ETBook-Bold.ufo
<glyph name="exclam" format="2">
  <advance width="272"/>
  <unicode hex="0021"/>
  <outline>
    <contour>
      <point x="160" y="185" type="curve"/>
      <point x="194" y="637" type="line" smooth="yes"/>
      <point x="197" y="671"/>
      <point x="200" y="690"/>
      <point x="154" y="690" type="curve" smooth="yes"/>
      <point x="118" y="690" type="line" smooth="yes"/>
      <point x="79" y="690"/>
      <point x="78" y="663"/>
      <point x="80" y="637" type="curve" smooth="yes"/>
      <point x="114" y="185" type="line"/>
      <point x="126" y="159"/>
      <point x="153" y="172"/>
    </contour>
    <contour>
      <point x="137" y="-9" type="curve" smooth="yes"/>
      <point x="168" y="-9"/>
      <point x="194" y="14"/>
      <point x="194" y="47" type="curve" smooth="yes"/>
      <point x="194" y="80"/>
      <point x="167" y="102"/>
      <point x="137" y="102" type="curve" smooth="yes"/>
      <point x="106" y="102"/>
      <point x="81" y="80"/>
      <point x="81" y="47" type="curve" smooth="yes"/>
      <point x="81" y="14"/>
      <point x="106" y="-9"/>
    </contour>
  </outline>
</glyph>
<glyph name="quotedbl" format="2">
  <advance width="425"/>
  <unicode hex="0022"/>
  <outline>
    <contour>
      <point x="355" y="518" type="line" smooth="yes"/>
      <point x="360" y="543"/>
      <point x="366" y="579"/>
      <point x="366" y="605" type="curve" smooth="yes"/>
      <point x="366" y="645"/>
      <point x="343" y="674"/>
      <point x="303" y="674" type="curve" smooth="yes"/>
      <point x="256" y="674"/>
      <point x="238" y="643"/>
      <point x="238" y="595" type="curve" smooth="yes"/>
      <point x="238" y="568"/>
      <point x="247" y="543"/>
      <point x="251" y="517" type="curve" smooth="yes"/>
      <point x="276" y="375" type="line" smooth="yes"/>
      <point x="279" y="361"/>
      <point x="317" y="345"/>
      <point x="327" y="374" type="curve"/>
    </contour>
    <contour>
      <point x="184" y="562" type="curve" smooth="yes"/>
      <point x="186" y="576"/>
      <point x="188" y="590"/>
      <point x="188" y="605" type="curve" smooth="yes"/>
      <point x="188" y="645"/>
      <point x="164" y="674"/>
      <point x="123" y="674" type="curve" smooth="yes"/>
      <point x="80" y="674"/>
      <point x="63" y="644"/>
      <point x="63" y="600" type="curve" smooth="yes"/>
      <point x="63" y="573"/>
      <point x="69" y="547"/>
      <point x="74" y="520" type="curve" smooth="yes"/>
      <point x="98" y="386" type="line" smooth="yes"/>
      <point x="102" y="361"/>
      <point x="134" y="351"/>
      <point x="149" y="373" type="curve"/>
      <point x="176" y="519" type="line" smooth="yes"/>
      <point x="179" y="533"/>
      <point x="182" y="547"/>
    </contour>
  </outline>
</glyph>
<glyph name="numbersign" format="2">
  <advance width="699"/>
  <unicode hex="0023"/>
  <outline>
    <contour>
      <point x="658" y="439" type="curve" smooth="yes"/>
      <point x="661" y="454"/>
      <point x="663" y="463"/>
      <point x="666" y="480" type="curve"/>
      <point x="667" y="498"/>
      <point x="659" y="503"/>
      <point x="643" y="503" type="curve"/>
      <point x="618" y="505"/>
      <point x="601" y="502"/>
      <point x="577" y="505" type="curve"/>
      <point x="575" y="505"/>
      <point x="563" y="506"/>
      <point x="564" y="508" type="curve"/>
      <point x="580" y="584"/>
      <point x="593" y="634"/>
      <point x="597" y="665" type="curve" smooth="yes"/>
      <point x="601" y="695"/>
      <point x="597" y="712"/>
      <point x="570" y="710" type="curve" smooth="yes"/>
      <point x="547" y="708" type="line" smooth="yes"/>
      <point x="519" y="706"/>
      <point x="518" y="691"/>
      <point x="514" y="671" type="curve" smooth="yes"/>
      <point x="507" y="640"/>
      <point x="481" y="514"/>
      <point x="481" y="514" type="curve"/>
      <point x="480" y="508"/>
      <point x="480" y="505"/>
      <point x="472" y="505" type="curve" smooth="yes"/>
      <point x="427" y="503"/>
      <point x="349" y="507"/>
      <point x="303" y="505" type="curve" smooth="yes"/>
      <point x="299" y="505"/>
      <point x="294" y="511"/>
      <point x="295" y="517" type="curve" smooth="yes"/>
      <point x="327" y="673" type="line" smooth="yes"/>
      <point x="332" y="701"/>
      <point x="326" y="705"/>
      <point x="300" y="707" type="curve" smooth="yes"/>
      <point x="273" y="710"/>
      <point x="254" y="720"/>
      <point x="247" y="683" type="curve" smooth="yes"/>
      <point x="210" y="510" type="line" smooth="yes"/>
      <point x="209" y="505"/>
      <point x="208" y="505"/>
      <point x="203" y="505" type="curve" smooth="yes"/>
      <point x="171" y="506"/>
      <point x="126" y="506"/>
      <point x="88" y="505" type="curve" smooth="yes"/>
      <point x="69" y="504"/>
      <point x="58" y="496"/>
      <point x="57" y="484" type="curve"/>
      <point x="55" y="472"/>
      <point x="49" y="459"/>
      <point x="51" y="446" type="curve"/>
      <point x="50" y="425"/>
      <point x="66" y="421"/>
      <point x="86" y="421" type="curve" smooth="yes"/>
      <point x="114" y="422"/>
      <point x="151" y="421"/>
      <point x="178" y="421" type="curve" smooth="yes"/>
      <point x="180" y="421"/>
      <point x="191" y="420"/>
      <point x="191" y="418" type="curve"/>
      <point x="159" y="268" type="line" smooth="yes"/>
      <point x="157" y="259"/>
      <point x="156" y="259"/>
      <point x="147" y="259" type="curve" smooth="yes"/>
      <point x="68" y="259" type="line" smooth="yes"/>
      <point x="47" y="259"/>
      <point x="36" y="252"/>
      <point x="36" y="234" type="curve"/>
      <point x="34" y="222"/>
      <point x="33" y="217"/>
      <point x="31" y="203" type="curve"/>
      <point x="31" y="176"/>
      <point x="44" y="175"/>
      <point x="62" y="175" type="curve" smooth="yes"/>
      <point x="130" y="175" type="line" smooth="yes"/>
      <point x="137" y="175"/>
      <point x="140" y="174"/>
      <point x="138" y="168" type="curve"/>
      <point x="106" y="13" type="line" smooth="yes"/>
      <point x="105" y="7"/>
      <point x="103" y="2"/>
      <point x="103" y="-3" type="curve" smooth="yes"/>
      <point x="103" y="-27"/>
      <point x="124" y="-29"/>
      <point x="139" y="-28" type="curve" smooth="yes"/>
      <point x="164" y="-26"/>
      <point x="182" y="-30"/>
      <point x="188" y="3" type="curve" smooth="yes"/>
      <point x="221" y="161" type="line"/>
      <point x="222" y="169"/>
      <point x="224" y="174"/>
      <point x="232" y="175" type="curve"/>
      <point x="285" y="178"/>
      <point x="346" y="177"/>
      <point x="399" y="175" type="curve" smooth="yes"/>
      <point x="406" y="175"/>
      <point x="410" y="173"/>
      <point x="408" y="162" type="curve" smooth="yes"/>
      <point x="393" y="92"/>
      <point x="381" y="46"/>
      <point x="376" y="17" type="curve" smooth="yes"/>
      <point x="372" y="-11"/>
      <point x="375" y="-29"/>
      <point x="398" y="-29" type="curve" smooth="yes"/>
      <point x="427" y="-29" type="line" smooth="yes"/>
      <point x="451" y="-29"/>
      <point x="456" y="-15"/>
      <point x="459" y="2" type="curve" smooth="yes"/>
      <point x="492" y="158" type="line"/>
      <point x="494" y="172"/>
      <point x="493" y="176"/>
      <point x="512" y="175" type="curve" smooth="yes"/>
      <point x="539" y="174"/>
      <point x="580" y="174"/>
      <point x="610" y="175" type="curve" smooth="yes"/>
      <point x="630" y="176"/>
      <point x="642" y="178"/>
      <point x="647" y="202" type="curve" smooth="yes"/>
      <point x="653" y="231" type="line" smooth="yes"/>
      <point x="656" y="245"/>
      <point x="651" y="254"/>
      <point x="641" y="257" type="curve"/>
      <point x="633" y="260"/>
      <point x="623" y="259"/>
      <point x="615" y="259" type="curve" smooth="yes"/>
      <point x="580" y="258"/>
      <point x="555" y="258"/>
      <point x="527" y="259" type="curve" smooth="yes"/>
      <point x="523" y="259"/>
      <point x="512" y="260"/>
      <point x="512" y="264" type="curve"/>
      <point x="541" y="400" type="line" smooth="yes"/>
      <point x="543" y="411"/>
      <point x="541" y="421"/>
      <point x="555" y="421" type="curve" smooth="yes"/>
      <point x="574" y="421"/>
      <point x="607" y="421"/>
      <point x="625" y="421" type="curve"/>
      <point x="641" y="422"/>
      <point x="655" y="424"/>
    </contour>
    <contour>
      <point x="447" y="421" type="curve" smooth="yes"/>
      <point x="453" y="421"/>
      <point x="462" y="419"/>
      <point x="460" y="410" type="curve" smooth="yes"/>
      <point x="430" y="269" type="line" smooth="yes"/>
      <point x="428" y="260"/>
      <point x="425" y="259"/>
      <point x="414" y="260" type="curve"/>
      <point x="374" y="261"/>
      <point x="300" y="262"/>
      <point x="252" y="260" type="curve"/>
      <point x="251" y="261"/>
      <point x="241" y="261"/>
      <point x="241" y="264" type="curve"/>
      <point x="273" y="411" type="line" smooth="yes"/>
      <point x="276" y="424"/>
      <point x="275" y="421"/>
      <point x="288" y="421" type="curve" smooth="yes"/>
      <point x="318" y="422"/>
      <point x="408" y="422"/>
    </contour>
  </outline>
</glyph>
<glyph name="dollar" format="2">
  <advance width="479"/>
  <unicode hex="0024"/>
  <outline>
    <contour>
      <point x="208" y="600" type="curve"/>
      <point x="208" y="600"/>
      <point x="208" y="608"/>
      <point x="207" y="609" type="curve"/>
      <point x="207" y="641" type="line"/>
      <point x="203" y="650"/>
      <point x="195" y="656"/>
      <point x="186" y="658" type="curve"/>
      <point x="173" y="657"/>
      <point x="161" y="658"/>
      <point x="156" y="643" type="curve"/>
      <point x="156" y="598" type="line" smooth="yes"/>
      <point x="156" y="592"/>
      <point x="154" y="588"/>
      <point x="151" y="587" type="curve" smooth="yes"/>
      <point x="89" y="563"/>
      <point x="48" y="512"/>
      <point x="48" y="450" type="curve" smooth="yes"/>
      <point x="48" y="373"/>
      <point x="99" y="339"/>
      <point x="153" y="298" type="curve"/>
      <point x="154" y="297"/>
      <point x="155" y="296"/>
      <point x="156" y="294" type="curve"/>
      <point x="156" y="65" type="line" smooth="yes"/>
      <point x="156" y="64"/>
      <point x="155" y="62"/>
      <point x="155" y="60" type="curve"/>
      <point x="149" y="66"/>
      <point x="145" y="71"/>
      <point x="143" y="76" type="curve"/>
      <point x="128" y="106"/>
      <point x="124" y="158"/>
      <point x="79" y="158" type="curve" smooth="yes"/>
      <point x="53" y="158"/>
      <point x="31" y="134"/>
      <point x="31" y="109" type="curve" smooth="yes"/>
      <point x="31" y="87"/>
      <point x="43" y="61"/>
      <point x="63" y="40" type="curve" smooth="yes"/>
      <point x="86" y="16"/>
      <point x="120" y="3"/>
      <point x="149" y="-7" type="curve"/>
      <point x="153" y="-8"/>
      <point x="156" y="-11"/>
      <point x="156" y="-16" type="curve" smooth="yes"/>
      <point x="156" y="-72" type="line"/>
      <point x="156" y="-85" type="line"/>
      <point x="155" y="-90"/>
      <point x="154" y="-102"/>
      <point x="168" y="-107" type="curve"/>
      <point x="196" y="-107" type="line"/>
      <point x="209" y="-102"/>
      <point x="211" y="-94"/>
      <point x="210" y="-84" type="curve"/>
      <point x="207" y="-66"/>
      <point x="208" y="-48"/>
      <point x="208" y="-30" type="curve" smooth="yes"/>
      <point x="208" y="-21"/>
      <point x="211" y="-19"/>
      <point x="214" y="-20" type="curve"/>
      <point x="224" y="-21"/>
      <point x="233" y="-22"/>
      <point x="244" y="-21" type="curve"/>
      <point x="248" y="-20"/>
      <point x="251" y="-24"/>
      <point x="251" y="-27" type="curve"/>
      <point x="250" y="-84" type="line"/>
      <point x="249" y="-94"/>
      <point x="256" y="-105"/>
      <point x="267" y="-107" type="curve"/>
      <point x="283" y="-107" type="line" smooth="yes"/>
      <point x="290" y="-107"/>
      <point x="304" y="-105"/>
      <point x="304" y="-88" type="curve" smooth="yes"/>
      <point x="303" y="-61"/>
      <point x="303" y="-45"/>
      <point x="303" y="-19" type="curve" smooth="yes"/>
      <point x="303" y="-16"/>
      <point x="301" y="-12"/>
      <point x="305" y="-11" type="curve"/>
      <point x="386" y="15"/>
      <point x="439" y="76"/>
      <point x="439" y="152" type="curve" smooth="yes"/>
      <point x="439" y="241"/>
      <point x="368" y="290"/>
      <point x="305" y="329" type="curve"/>
      <point x="303" y="331"/>
      <point x="303" y="339"/>
      <point x="303" y="342" type="curve" smooth="yes"/>
      <point x="303" y="503" type="line" smooth="yes"/>
      <point x="303" y="506"/>
      <point x="304" y="502"/>
      <point x="305" y="501" type="curve"/>
      <point x="322" y="477"/>
      <point x="335" y="446"/>
      <point x="370" y="446" type="curve" smooth="yes"/>
      <point x="396" y="446"/>
      <point x="415" y="467"/>
      <point x="415" y="492" type="curve" smooth="yes"/>
      <point x="415" y="534"/>
      <point x="368" y="568"/>
      <point x="310" y="587" type="curve"/>
      <point x="306" y="588"/>
      <point x="303" y="593"/>
      <point x="303" y="599" type="curve" smooth="yes"/>
      <point x="303" y="610"/>
      <point x="312" y="657"/>
      <point x="285" y="657" type="curve" smooth="yes"/>
      <point x="272" y="657" type="line"/>
      <point x="265" y="655"/>
      <point x="253" y="650"/>
      <point x="251" y="640" type="curve"/>
      <point x="251" y="610" type="line" smooth="yes"/>
      <point x="251" y="609"/>
      <point x="249" y="600"/>
      <point x="248" y="600" type="curve"/>
      <point x="235" y="601"/>
      <point x="220" y="601"/>
    </contour>
    <contour>
      <point x="249" y="364" type="curve"/>
      <point x="237" y="372"/>
      <point x="224" y="379"/>
      <point x="212" y="389" type="curve"/>
      <point x="210" y="392" type="line"/>
      <point x="207" y="395"/>
      <point x="207" y="398"/>
      <point x="207" y="403" type="curve" smooth="yes"/>
      <point x="207" y="545" type="line" smooth="yes"/>
      <point x="207" y="547"/>
      <point x="206" y="548"/>
      <point x="207" y="548" type="curve"/>
      <point x="221" y="551"/>
      <point x="236" y="548"/>
      <point x="249" y="545" type="curve"/>
      <point x="252" y="544"/>
      <point x="251" y="539"/>
      <point x="251" y="533" type="curve" smooth="yes"/>
      <point x="251" y="370" type="line" smooth="yes"/>
      <point x="251" y="368"/>
      <point x="250" y="366"/>
    </contour>
    <contour>
      <point x="155" y="530" type="curve"/>
      <point x="155" y="530"/>
      <point x="156" y="528"/>
      <point x="156" y="518" type="curve"/>
      <point x="155" y="445" type="line"/>
      <point x="155" y="435"/>
      <point x="155" y="432"/>
      <point x="151" y="437" type="curve"/>
      <point x="138" y="451"/>
      <point x="132" y="464"/>
      <point x="132" y="484" type="curve" smooth="yes"/>
      <point x="132" y="501"/>
      <point x="140" y="518"/>
    </contour>
    <contour>
      <point x="309" y="54" type="curve"/>
      <point x="304" y="51"/>
      <point x="303" y="53"/>
      <point x="303" y="64" type="curve" smooth="yes"/>
      <point x="303" y="195" type="line" smooth="yes"/>
      <point x="303" y="198"/>
      <point x="300" y="203"/>
      <point x="304" y="201" type="curve"/>
      <point x="329" y="183"/>
      <point x="347" y="163"/>
      <point x="347" y="130" type="curve" smooth="yes"/>
      <point x="347" y="96"/>
      <point x="337" y="73"/>
    </contour>
    <contour>
      <point x="213" y="261" type="curve"/>
      <point x="226" y="252"/>
      <point x="235" y="247"/>
      <point x="248" y="238" type="curve"/>
      <point x="250" y="238"/>
      <point x="251" y="232"/>
      <point x="251" y="229" type="curve" smooth="yes"/>
      <point x="251" y="40" type="line" smooth="yes"/>
      <point x="251" y="37"/>
      <point x="251" y="34"/>
      <point x="251" y="32" type="curve"/>
      <point x="250" y="27"/>
      <point x="215" y="31"/>
      <point x="212" y="32" type="curve"/>
      <point x="209" y="32"/>
      <point x="208" y="33"/>
      <point x="208" y="41" type="curve" smooth="yes"/>
      <point x="207" y="254" type="line" smooth="yes"/>
      <point x="207" y="263"/>
      <point x="213" y="262"/>
    </contour>
  </outline>
</glyph>
<glyph name="percent" format="2">
  <advance width="696"/>
  <unicode hex="0025"/>
  <outline>
    <contour>
      <point x="189" y="303" type="curve" smooth="yes"/>
      <point x="272" y="303"/>
      <point x="339" y="367"/>
      <point x="341" y="456" type="curve" smooth="yes"/>
      <point x="342" y="546"/>
      <point x="270" y="606"/>
      <point x="188" y="606" type="curve" smooth="yes"/>
      <point x="105" y="606"/>
      <point x="37" y="543"/>
      <point x="37" y="453" type="curve" smooth="yes"/>
      <point x="37" y="366"/>
      <point x="109" y="303"/>
    </contour>
    <contour>
      <point x="178" y="-54" type="curve"/>
      <point x="560" y="602" type="line"/>
      <point x="563" y="610"/>
      <point x="565" y="627"/>
      <point x="551" y="632" type="curve"/>
      <point x="539" y="637" type="line"/>
      <point x="531" y="641"/>
      <point x="514" y="639"/>
      <point x="504" y="627" type="curve"/>
      <point x="120" y="-33" type="line" smooth="yes"/>
      <point x="109" y="-52"/>
      <point x="121" y="-63"/>
      <point x="141" y="-68" type="curve" smooth="yes"/>
      <point x="154" y="-71"/>
      <point x="169" y="-73"/>
    </contour>
    <contour>
      <point x="496" y="-43" type="curve" smooth="yes"/>
      <point x="580" y="-43"/>
      <point x="646" y="21"/>
      <point x="648" y="110" type="curve" smooth="yes"/>
      <point x="650" y="200"/>
      <point x="576" y="260"/>
      <point x="495" y="260" type="curve" smooth="yes"/>
      <point x="413" y="260"/>
      <point x="344" y="197"/>
      <point x="344" y="107" type="curve" smooth="yes"/>
      <point x="344" y="20"/>
      <point x="416" y="-43"/>
    </contour>
    <contour>
      <point x="186" y="554" type="curve" smooth="yes"/>
      <point x="232" y="554"/>
      <point x="263" y="523"/>
      <point x="263" y="456" type="curve" smooth="yes"/>
      <point x="263" y="388"/>
      <point x="233" y="355"/>
      <point x="189" y="355" type="curve" smooth="yes"/>
      <point x="147" y="355"/>
      <point x="116" y="387"/>
      <point x="116" y="455" type="curve" smooth="yes"/>
      <point x="116" y="521"/>
      <point x="145" y="554"/>
    </contour>
    <contour>
      <point x="493" y="209" type="curve" smooth="yes"/>
      <point x="540" y="209"/>
      <point x="570" y="178"/>
      <point x="570" y="110" type="curve" smooth="yes"/>
      <point x="570" y="42"/>
      <point x="540" y="10"/>
      <point x="496" y="10" type="curve" smooth="yes"/>
      <point x="454" y="10"/>
      <point x="423" y="42"/>
      <point x="423" y="109" type="curve" smooth="yes"/>
      <point x="423" y="176"/>
      <point x="453" y="209"/>
    </contour>
  </outline>
</glyph>
<glyph name="quotesingle" format="2">
  <advance width="185"/>
  <unicode hex="0027"/>
  <outline>
    <contour>
      <point x="147" y="560" type="curve" smooth="yes"/>
      <point x="150" y="576"/>
      <point x="152" y="591"/>
      <point x="152" y="605" type="curve" smooth="yes"/>
      <point x="152" y="646"/>
      <point x="131" y="674"/>
      <point x="92" y="674" type="curve" smooth="yes"/>
      <point x="50" y="674"/>
      <point x="35" y="643"/>
      <point x="35" y="596" type="curve" smooth="yes"/>
      <point x="35" y="570"/>
      <point x="42" y="545"/>
      <point x="46" y="519" type="curve" smooth="yes"/>
      <point x="68" y="389" type="line" smooth="yes"/>
      <point x="71" y="372"/>
      <point x="68" y="365"/>
      <point x="91" y="363" type="curve" smooth="yes"/>
      <point x="112" y="361"/>
      <point x="119" y="381"/>
      <point x="120" y="391" type="curve"/>
      <point x="130" y="447"/>
      <point x="137" y="504"/>
    </contour>
  </outline>
</glyph>
<glyph name="parenleft" format="2">
  <advance width="326"/>
  <unicode hex="0028"/>
  <outline>
    <contour>
      <point x="283" y="-223" type="curve" smooth="yes"/>
      <point x="300" y="-215"/>
      <point x="320" y="-199"/>
      <point x="311" y="-178" type="curve"/>
      <point x="282" y="-144"/>
      <point x="274" y="-133"/>
      <point x="249" y="-87" type="curve" smooth="yes"/>
      <point x="186" y="26"/>
      <point x="162" y="114"/>
      <point x="162" y="240" type="curve" smooth="yes"/>
      <point x="162" y="326"/>
      <point x="173" y="389"/>
      <point x="198" y="457" type="curve" smooth="yes"/>
      <point x="224" y="528"/>
      <point x="270" y="610"/>
      <point x="310" y="656" type="curve"/>
      <point x="326" y="682"/>
      <point x="292" y="727"/>
      <point x="261" y="702" type="curve"/>
      <point x="149" y="578"/>
      <point x="70" y="410"/>
      <point x="70" y="240" type="curve" smooth="yes"/>
      <point x="70" y="76"/>
      <point x="145" y="-92"/>
      <point x="251" y="-213" type="curve"/>
      <point x="257" y="-219"/>
      <point x="268" y="-230"/>
    </contour>
  </outline>
</glyph>
<glyph name="parenright" format="2">
  <advance width="316"/>
  <unicode hex="0029"/>
  <outline>
    <contour>
      <point x="58" y="-221" type="curve"/>
      <point x="173" y="-98"/>
      <point x="248" y="72"/>
      <point x="248" y="242" type="curve" smooth="yes"/>
      <point x="248" y="408"/>
      <point x="176" y="573"/>
      <point x="67" y="696" type="curve" smooth="yes"/>
      <point x="56" y="708"/>
      <point x="36" y="711"/>
      <point x="20" y="698" type="curve" smooth="yes"/>
      <point x="5" y="685"/>
      <point x="5" y="663"/>
      <point x="16" y="651" type="curve" smooth="yes"/>
      <point x="39" y="625"/>
      <point x="47" y="611"/>
      <point x="70" y="569" type="curve" smooth="yes"/>
      <point x="133" y="455"/>
      <point x="158" y="367"/>
      <point x="158" y="242" type="curve" smooth="yes"/>
      <point x="158" y="155"/>
      <point x="147" y="92"/>
      <point x="122" y="24" type="curve" smooth="yes"/>
      <point x="96" y="-47"/>
      <point x="50" y="-128"/>
      <point x="9" y="-175" type="curve"/>
      <point x="-15" y="-214"/>
      <point x="33" y="-241"/>
    </contour>
  </outline>
</glyph>
<glyph name="asterisk" format="2">
  <advance width="534"/>
  <unicode hex="002A"/>
  <outline>
    <contour>
      <point x="251" y="419" type="curve"/>
      <point x="251" y="418" type="line"/>
      <point x="252" y="417"/>
      <point x="252" y="414"/>
      <point x="252" y="413" type="curve"/>
      <point x="251" y="365"/>
      <point x="245" y="348"/>
      <point x="239" y="332" type="curve" smooth="yes"/>
      <point x="231" y="311"/>
      <point x="225" y="302"/>
      <point x="225" y="278" type="curve" smooth="yes"/>
      <point x="225" y="252"/>
      <point x="242" y="227"/>
      <point x="272" y="227" type="curve" smooth="yes"/>
      <point x="302" y="227"/>
      <point x="319" y="252"/>
      <point x="319" y="278" type="curve" smooth="yes"/>
      <point x="319" y="290"/>
      <point x="318" y="299"/>
      <point x="314" y="307" type="curve"/>
      <point x="312" y="315"/>
      <point x="309" y="323"/>
      <point x="306" y="332" type="curve" smooth="yes"/>
      <point x="300" y="348"/>
      <point x="294" y="366"/>
      <point x="292" y="414" type="curve" smooth="yes"/>
      <point x="292" y="416"/>
      <point x="294" y="418"/>
      <point x="296" y="418" type="curve"/>
      <point x="318" y="405"/>
      <point x="336" y="390"/>
      <point x="352" y="371" type="curve" smooth="yes"/>
      <point x="373" y="347"/>
      <point x="388" y="317"/>
      <point x="426" y="317" type="curve" smooth="yes"/>
      <point x="453" y="317"/>
      <point x="469" y="340"/>
      <point x="469" y="359" type="curve" smooth="yes"/>
      <point x="469" y="417"/>
      <point x="401" y="415"/>
      <point x="361" y="427" type="curve" smooth="yes"/>
      <point x="355" y="429"/>
      <point x="312" y="444"/>
      <point x="311" y="449" type="curve"/>
      <point x="309" y="456"/>
      <point x="355" y="470"/>
      <point x="362" y="472" type="curve" smooth="yes"/>
      <point x="401" y="484"/>
      <point x="469" y="485"/>
      <point x="469" y="541" type="curve" smooth="yes"/>
      <point x="469" y="551"/>
      <point x="462" y="584"/>
      <point x="422" y="584" type="curve" smooth="yes"/>
      <point x="397" y="584"/>
      <point x="379" y="562"/>
      <point x="365" y="546" type="curve" smooth="yes"/>
      <point x="344" y="520"/>
      <point x="326" y="503"/>
      <point x="297" y="484" type="curve"/>
      <point x="296" y="484"/>
      <point x="293" y="484"/>
      <point x="292" y="485" type="curve"/>
      <point x="289" y="487"/>
      <point x="295" y="526"/>
      <point x="296" y="531" type="curve" smooth="yes"/>
      <point x="303" y="561"/>
      <point x="318" y="591"/>
      <point x="318" y="623" type="curve" smooth="yes"/>
      <point x="318" y="645"/>
      <point x="303" y="672"/>
      <point x="272" y="672" type="curve" smooth="yes"/>
      <point x="241" y="672"/>
      <point x="226" y="645"/>
      <point x="226" y="623" type="curve" smooth="yes"/>
      <point x="226" y="601"/>
      <point x="234" y="583"/>
      <point x="240" y="562" type="curve" smooth="yes"/>
      <point x="246" y="544"/>
      <point x="251" y="522"/>
      <point x="253" y="486" type="curve"/>
      <point x="253" y="481"/>
      <point x="254" y="481"/>
      <point x="250" y="483" type="curve"/>
      <point x="215" y="505"/>
      <point x="195" y="528"/>
      <point x="179" y="546" type="curve" smooth="yes"/>
      <point x="164" y="562"/>
      <point x="148" y="584"/>
      <point x="123" y="584" type="curve" smooth="yes"/>
      <point x="83" y="584"/>
      <point x="74" y="551"/>
      <point x="74" y="541" type="curve" smooth="yes"/>
      <point x="74" y="503"/>
      <point x="98" y="494"/>
      <point x="129" y="486" type="curve"/>
      <point x="144" y="481"/>
      <point x="162" y="479"/>
      <point x="183" y="472" type="curve"/>
      <point x="198" y="468"/>
      <point x="213" y="463"/>
      <point x="233" y="453" type="curve" smooth="yes"/>
      <point x="237" y="451"/>
      <point x="236" y="450"/>
      <point x="233" y="448" type="curve"/>
      <point x="202" y="436"/>
      <point x="158" y="420"/>
      <point x="130" y="414" type="curve" smooth="yes"/>
      <point x="99" y="406"/>
      <point x="74" y="399"/>
      <point x="74" y="359" type="curve" smooth="yes"/>
      <point x="74" y="340"/>
      <point x="92" y="317"/>
      <point x="118" y="317" type="curve" smooth="yes"/>
      <point x="150" y="317"/>
      <point x="164" y="335"/>
      <point x="181" y="356" type="curve" smooth="yes"/>
      <point x="196" y="375"/>
      <point x="214" y="397"/>
    </contour>
  </outline>
</glyph>
<glyph name="plus" format="2">
  <advance width="698"/>
  <unicode hex="002B"/>
  <outline>
    <contour>
      <point x="599" y="296" type="line" smooth="yes"/>
      <point x="617" y="296"/>
      <point x="633" y="296"/>
      <point x="633" y="324" type="curve" smooth="yes"/>
      <point x="633" y="353" type="line" smooth="yes"/>
      <point x="633" y="370"/>
      <point x="631" y="380"/>
      <point x="606" y="380" type="curve" smooth="yes"/>
      <point x="408" y="380" type="line" smooth="yes"/>
      <point x="399" y="380"/>
      <point x="400" y="384"/>
      <point x="393" y="389" type="curve"/>
      <point x="393" y="589" type="line" smooth="yes"/>
      <point x="393" y="611"/>
      <point x="389" y="620"/>
      <point x="369" y="620" type="curve" smooth="yes"/>
      <point x="330" y="620" type="line" smooth="yes"/>
      <point x="317" y="620"/>
      <point x="310" y="615"/>
      <point x="308" y="607" type="curve" smooth="yes"/>
      <point x="306" y="600"/>
      <point x="307" y="592"/>
      <point x="307" y="585" type="curve" smooth="yes"/>
      <point x="307" y="391" type="line" smooth="yes"/>
      <point x="307" y="387"/>
      <point x="304" y="380"/>
      <point x="296" y="380" type="curve" smooth="yes"/>
      <point x="93" y="380" type="line" smooth="yes"/>
      <point x="65" y="380"/>
      <point x="66" y="373"/>
      <point x="66" y="352" type="curve" smooth="yes"/>
      <point x="66" y="324" type="line" smooth="yes"/>
      <point x="66" y="301"/>
      <point x="71" y="296"/>
      <point x="92" y="296" type="curve" smooth="yes"/>
      <point x="297" y="296" type="line" smooth="yes"/>
      <point x="300" y="296"/>
      <point x="307" y="293"/>
      <point x="307" y="291" type="curve" smooth="yes"/>
      <point x="307" y="80" type="line" smooth="yes"/>
      <point x="307" y="62"/>
      <point x="308" y="53"/>
      <point x="331" y="52" type="curve" smooth="yes"/>
      <point x="347" y="52"/>
      <point x="350" y="52"/>
      <point x="363" y="52" type="curve" smooth="yes"/>
      <point x="386" y="52"/>
      <point x="393" y="53"/>
      <point x="393" y="80" type="curve" smooth="yes"/>
      <point x="393" y="283" type="line" smooth="yes"/>
      <point x="393" y="289"/>
      <point x="398" y="296"/>
      <point x="403" y="296" type="curve" smooth="yes"/>
    </contour>
  </outline>
</glyph>
<glyph name="comma" format="2">
  <advance width="251"/>
  <unicode hex="002C"/>
  <outline>
    <contour>
      <point x="105" y="-126" type="curve" smooth="yes"/>
      <point x="160" y="-101"/>
      <point x="192" y="-54"/>
      <point x="192" y="1" type="curve" smooth="yes"/>
      <point x="192" y="47"/>
      <point x="168" y="82"/>
      <point x="125" y="82" type="curve" smooth="yes"/>
      <point x="93" y="82"/>
      <point x="65" y="59"/>
      <point x="65" y="26" type="curve" smooth="yes"/>
      <point x="65" y="-9"/>
      <point x="94" y="-34"/>
      <point x="129" y="-26" type="curve"/>
      <point x="131" y="-26"/>
      <point x="132" y="-31"/>
      <point x="131" y="-33" type="curve"/>
      <point x="129" y="-53"/>
      <point x="112" y="-76"/>
      <point x="76" y="-97" type="curve"/>
      <point x="71" y="-99"/>
      <point x="63" y="-112"/>
      <point x="66" y="-121" type="curve"/>
      <point x="68" y="-123"/>
      <point x="71" y="-125"/>
      <point x="73" y="-128" type="curve"/>
      <point x="80" y="-137"/>
      <point x="96" y="-130"/>
    </contour>
  </outline>
</glyph>
<glyph name="hyphen" format="2">
  <advance width="435"/>
  <unicode hex="002D"/>
  <outline>
    <contour>
      <point x="398" y="220" type="curve"/>
      <point x="400" y="246" type="line" smooth="yes"/>
      <point x="401" y="256"/>
      <point x="389" y="267"/>
      <point x="376" y="267" type="curve" smooth="yes"/>
      <point x="301" y="267"/>
      <point x="149" y="267"/>
      <point x="69" y="267" type="curve" smooth="yes"/>
      <point x="60" y="267"/>
      <point x="40" y="262"/>
      <point x="40" y="246" type="curve" smooth="yes"/>
      <point x="40" y="218" type="line"/>
      <point x="42" y="213"/>
      <point x="46" y="202"/>
      <point x="60" y="202" type="curve" smooth="yes"/>
      <point x="199" y="200"/>
      <point x="253" y="200"/>
      <point x="378" y="202" type="curve"/>
      <point x="388" y="203"/>
      <point x="395" y="208"/>
    </contour>
  </outline>
</glyph>
<glyph name="period" format="2">
  <advance width="217"/>
  <unicode hex="002E"/>
  <outline>
    <contour>
      <point x="122" y="-12" type="curve" smooth="yes"/>
      <point x="156" y="-12"/>
      <point x="179" y="11"/>
      <point x="179" y="40" type="curve" smooth="yes"/>
      <point x="179" y="70"/>
      <point x="156" y="91"/>
      <point x="122" y="91" type="curve" smooth="yes"/>
      <point x="88" y="91"/>
      <point x="63" y="71"/>
      <point x="63" y="39" type="curve" smooth="yes"/>
      <point x="63" y="9"/>
      <point x="89" y="-12"/>
    </contour>
  </outline>
</glyph>
<glyph name="zero" format="2">
  <advance width="489"/>
  <unicode hex="0030"/>
  <outline>
    <contour>
      <point x="249" y="-14" type="curve" smooth="yes"/>
      <point x="378" y="-14"/>
      <point x="468" y="83"/>
      <point x="468" y="218" type="curve" smooth="yes"/>
      <point x="468" y="355"/>
      <point x="379" y="455"/>
      <point x="250" y="455" type="curve" smooth="yes"/>
      <point x="123" y="455"/>
      <point x="33" y="353"/>
      <point x="33" y="215" type="curve" smooth="yes"/>
      <point x="33" y="84"/>
      <point x="125" y="-14"/>
    </contour>
    <contour>
      <point x="248" y="389" type="curve" smooth="yes"/>
      <point x="328" y="389"/>
      <point x="377" y="332"/>
      <point x="377" y="220" type="curve" smooth="yes"/>
      <point x="377" y="111"/>
      <point x="327" y="54"/>
      <point x="249" y="54" type="curve" smooth="yes"/>
      <point x="174" y="54"/>
      <point x="125" y="112"/>
      <point x="125" y="221" type="curve" smooth="yes"/>
      <point x="125" y="329"/>
      <point x="176" y="389"/>
    </contour>
  </outline>
</glyph>
<glyph name="one" format="2">
  <advance width="400"/>
  <unicode hex="0031"/>
  <outline>
    <contour>
      <point x="158" y="314" type="curve" smooth="yes"/>
      <point x="166" y="319"/>
      <point x="165" y="322"/>
      <point x="166" y="311" type="curve"/>
      <point x="166" y="310" type="line"/>
      <point x="166" y="89" type="line" smooth="yes"/>
      <point x="166" y="64"/>
      <point x="157" y="57"/>
      <point x="134" y="56" type="curve"/>
      <point x="125" y="55"/>
      <point x="117" y="55"/>
      <point x="108" y="55" type="curve"/>
      <point x="102" y="56"/>
      <point x="93" y="56"/>
      <point x="85" y="52" type="curve" smooth="yes"/>
      <point x="69" y="44"/>
      <point x="66" y="-5"/>
      <point x="93" y="-4" type="curve" smooth="yes"/>
      <point x="153" y="-1"/>
      <point x="252" y="-3"/>
      <point x="330" y="-4" type="curve" smooth="yes"/>
      <point x="357" y="-4"/>
      <point x="346" y="51"/>
      <point x="333" y="54" type="curve"/>
      <point x="326" y="56"/>
      <point x="320" y="56"/>
      <point x="315" y="55" type="curve"/>
      <point x="301" y="55"/>
      <point x="288" y="55"/>
      <point x="275" y="58" type="curve"/>
      <point x="266" y="59"/>
      <point x="264" y="60"/>
      <point x="263" y="61" type="curve"/>
      <point x="258" y="65"/>
      <point x="259" y="87"/>
      <point x="259" y="92" type="curve" smooth="yes"/>
      <point x="259" y="428" type="line" smooth="yes"/>
      <point x="259" y="446"/>
      <point x="207" y="444"/>
      <point x="200" y="439" type="curve"/>
      <point x="175" y="405"/>
      <point x="132" y="367"/>
      <point x="97" y="344" type="curve" smooth="yes"/>
      <point x="83" y="334"/>
      <point x="73" y="328"/>
      <point x="56" y="317" type="curve"/>
      <point x="46" y="309"/>
      <point x="62" y="266"/>
      <point x="80" y="275" type="curve" smooth="yes"/>
      <point x="106" y="288"/>
      <point x="134" y="298"/>
    </contour>
  </outline>
</glyph>
<glyph name="two" format="2">
  <advance width="481"/>
  <unicode hex="0032"/>
  <outline>
    <contour>
      <point x="199" y="86" type="curve" smooth="yes"/>
      <point x="190" y="86"/>
      <point x="192" y="89"/>
      <point x="196" y="92" type="curve" smooth="yes"/>
      <point x="273" y="146"/>
      <point x="390" y="232"/>
      <point x="390" y="333" type="curve" smooth="yes"/>
      <point x="390" y="403"/>
      <point x="323" y="455"/>
      <point x="245" y="455" type="curve" smooth="yes"/>
      <point x="176" y="455"/>
      <point x="125" y="427"/>
      <point x="64" y="359" type="curve"/>
      <point x="50" y="329"/>
      <point x="94" y="322"/>
      <point x="101" y="328" type="curve" smooth="yes"/>
      <point x="142" y="366"/>
      <point x="172" y="377"/>
      <point x="207" y="377" type="curve" smooth="yes"/>
      <point x="257" y="377"/>
      <point x="289" y="345"/>
      <point x="289" y="296" type="curve" smooth="yes"/>
      <point x="289" y="260"/>
      <point x="270" y="226"/>
      <point x="210" y="174" type="curve" smooth="yes"/>
      <point x="160" y="131"/>
      <point x="117" y="96"/>
      <point x="34" y="40" type="curve"/>
      <point x="29" y="33"/>
      <point x="21" y="6"/>
      <point x="41" y="-4" type="curve"/>
      <point x="366" y="-4" type="line"/>
      <point x="374" y="-4" type="line" smooth="yes"/>
      <point x="386" y="-4"/>
      <point x="406" y="-1"/>
      <point x="411" y="17" type="curve" smooth="yes"/>
      <point x="444" y="151" type="line" smooth="yes"/>
      <point x="449" y="170"/>
      <point x="414" y="181"/>
      <point x="397" y="165" type="curve"/>
      <point x="386" y="136"/>
      <point x="377" y="117"/>
      <point x="369" y="104" type="curve"/>
      <point x="361" y="89"/>
      <point x="358" y="88"/>
      <point x="336" y="87" type="curve" smooth="yes"/>
      <point x="283" y="85"/>
      <point x="251" y="86"/>
    </contour>
  </outline>
</glyph>
<glyph name="six" format="2">
  <advance width="503"/>
  <unicode hex="0036"/>
  <outline>
    <contour>
      <point x="255" y="-14" type="curve" smooth="yes"/>
      <point x="370" y="-14"/>
      <point x="458" y="79"/>
      <point x="458" y="200" type="curve" smooth="yes"/>
      <point x="458" y="319"/>
      <point x="373" y="402"/>
      <point x="255" y="402" type="curve" smooth="yes"/>
      <point x="244" y="402"/>
      <point x="234" y="401"/>
      <point x="223" y="401" type="curve"/>
      <point x="216" y="400"/>
      <point x="212" y="402"/>
      <point x="220" y="411" type="curve"/>
      <point x="280" y="487"/>
      <point x="346" y="529"/>
      <point x="443" y="572" type="curve"/>
      <point x="471" y="609"/>
      <point x="431" y="620"/>
      <point x="409" y="614" type="curve" smooth="yes"/>
      <point x="239" y="560"/>
      <point x="40" y="433"/>
      <point x="40" y="223" type="curve" smooth="yes"/>
      <point x="40" y="89"/>
      <point x="132" y="-14"/>
    </contour>
    <contour>
      <point x="242" y="356" type="curve" smooth="yes"/>
      <point x="309" y="356"/>
      <point x="352" y="299"/>
      <point x="352" y="185" type="curve" smooth="yes"/>
      <point x="352" y="123"/>
      <point x="339" y="84"/>
      <point x="315" y="60" type="curve" smooth="yes"/>
      <point x="298" y="43"/>
      <point x="275" y="35"/>
      <point x="252" y="35" type="curve" smooth="yes"/>
      <point x="192" y="35"/>
      <point x="148" y="90"/>
      <point x="148" y="200" type="curve" smooth="yes"/>
      <point x="148" y="251"/>
      <point x="153" y="279"/>
      <point x="178" y="339" type="curve"/>
      <point x="209" y="353"/>
      <point x="222" y="356"/>
    </contour>
  </outline>
</glyph>
<glyph name="eight" format="2">
  <advance width="464"/>
  <unicode hex="0038"/>
  <outline>
    <contour>
      <point x="239" y="-14" type="curve" smooth="yes"/>
      <point x="339" y="-14"/>
      <point x="424" y="54"/>
      <point x="424" y="151" type="curve" smooth="yes"/>
      <point x="424" y="219"/>
      <point x="388" y="264"/>
      <point x="316" y="324" type="curve"/>
      <point x="314" y="326"/>
      <point x="312" y="328"/>
      <point x="313" y="329" type="curve"/>
      <point x="377" y="372"/>
      <point x="401" y="413"/>
      <point x="401" y="471" type="curve" smooth="yes"/>
      <point x="401" y="556"/>
      <point x="335" y="614"/>
      <point x="245" y="614" type="curve" smooth="yes"/>
      <point x="151" y="614"/>
      <point x="83" y="554"/>
      <point x="83" y="464" type="curve" smooth="yes"/>
      <point x="83" y="402"/>
      <point x="107" y="352"/>
      <point x="169" y="303" type="curve"/>
      <point x="172" y="300"/>
      <point x="168" y="299"/>
      <point x="164" y="296" type="curve"/>
      <point x="110" y="262"/>
      <point x="59" y="220"/>
      <point x="59" y="144" type="curve" smooth="yes"/>
      <point x="59" y="50"/>
      <point x="142" y="-14"/>
    </contour>
    <contour>
      <point x="240" y="565" type="curve" smooth="yes"/>
      <point x="288" y="565"/>
      <point x="322" y="530"/>
      <point x="322" y="462" type="curve" smooth="yes"/>
      <point x="322" y="432"/>
      <point x="314" y="404"/>
      <point x="301" y="384" type="curve" smooth="yes"/>
      <point x="296" y="376"/>
      <point x="290" y="370"/>
      <point x="278" y="362" type="curve"/>
      <point x="276" y="361"/>
      <point x="271" y="357"/>
      <point x="269" y="359" type="curve"/>
      <point x="191" y="414"/>
      <point x="163" y="456"/>
      <point x="163" y="496" type="curve" smooth="yes"/>
      <point x="163" y="537"/>
      <point x="194" y="565"/>
    </contour>
    <contour>
      <point x="222" y="264" type="curve" smooth="yes"/>
      <point x="305" y="205"/>
      <point x="329" y="171"/>
      <point x="329" y="120" type="curve" smooth="yes"/>
      <point x="329" y="74"/>
      <point x="295" y="38"/>
      <point x="246" y="38" type="curve" smooth="yes"/>
      <point x="190" y="38"/>
      <point x="150" y="84"/>
      <point x="150" y="146" type="curve" smooth="yes"/>
      <point x="150" y="194"/>
      <point x="166" y="239"/>
      <point x="209" y="268" type="curve"/>
      <point x="213" y="270"/>
      <point x="219" y="266"/>
    </contour>
  </outline>
</glyph>
<glyph name="eight.lining" format="2">
  <advance width="488"/>
  <unicode hex="0038"/>
  <outline>
    <contour>
      <point x="159" y="318" type="curve"/>
      <point x="161" y="316"/>
      <point x="162" y="312"/>
      <point x="158" y="309" type="curve"/>
      <point x="157" y="308"/>
      <point x="155" y="307"/>
      <point x="153" y="306" type="curve"/>
      <point x="90" y="269"/>
      <point x="50" y="220"/>
      <point x="50" y="157" type="curve" smooth="yes"/>
      <point x="50" y="59"/>
      <point x="131" y="-18"/>
      <point x="249" y="-18" type="curve" smooth="yes"/>
      <point x="358" y="-18"/>
      <point x="451" y="67"/>
      <point x="451" y="175" type="curve" smooth="yes"/>
      <point x="451" y="247"/>
      <point x="411" y="298"/>
      <point x="340" y="339" type="curve"/>
      <point x="336" y="342"/>
      <point x="334" y="346"/>
      <point x="338" y="348" type="curve"/>
      <point x="394" y="382"/>
      <point x="418" y="427"/>
      <point x="418" y="484" type="curve" smooth="yes"/>
      <point x="418" y="572"/>
      <point x="346" y="638"/>
      <point x="247" y="638" type="curve" smooth="yes"/>
      <point x="149" y="638"/>
      <point x="65" y="563"/>
      <point x="65" y="467" type="curve" smooth="yes"/>
      <point x="65" y="405"/>
      <point x="96" y="357"/>
    </contour>
    <contour>
      <point x="246" y="586" type="curve" smooth="yes"/>
      <point x="296" y="586"/>
      <point x="327" y="548"/>
      <point x="327" y="483" type="curve" smooth="yes"/>
      <point x="327" y="439"/>
      <point x="318" y="407"/>
      <point x="285" y="379" type="curve"/>
      <point x="280" y="374"/>
      <point x="275" y="373"/>
      <point x="267" y="376" type="curve"/>
      <point x="210" y="402"/>
      <point x="153" y="433"/>
      <point x="153" y="495" type="curve" smooth="yes"/>
      <point x="153" y="547"/>
      <point x="193" y="586"/>
    </contour>
    <contour>
      <point x="330" y="215" type="curve" smooth="yes"/>
      <point x="345" y="199"/>
      <point x="354" y="175"/>
      <point x="354" y="148" type="curve" smooth="yes"/>
      <point x="354" y="82"/>
      <point x="308" y="34"/>
      <point x="250" y="34" type="curve" smooth="yes"/>
      <point x="194" y="34"/>
      <point x="147" y="84"/>
      <point x="147" y="158" type="curve" smooth="yes"/>
      <point x="147" y="207"/>
      <point x="171" y="248"/>
      <point x="217" y="279" type="curve"/>
      <point x="222" y="283"/>
      <point x="226" y="285"/>
      <point x="237" y="279" type="curve" smooth="yes"/>
      <point x="276" y="258"/>
      <point x="311" y="234"/>
    </contour>
  </outline>
</glyph>
<glyph name="nine" format="2">
  <advance width="489"/>
  <unicode hex="0039"/>
  <outline>
    <contour>
      <point x="286" y="46" type="curve" smooth="yes"/>
      <point x="298" y="49"/>
      <point x="287" y="33"/>
      <point x="285" y="30" type="curve" smooth="yes"/>
      <point x="233" y="-48"/>
      <point x="139" y="-93"/>
      <point x="50" y="-125" type="curve" smooth="yes"/>
      <point x="23" y="-135"/>
      <point x="38" y="-184"/>
      <point x="71" y="-176" type="curve" smooth="yes"/>
      <point x="266" y="-129"/>
      <point x="448" y="-18"/>
      <point x="448" y="213" type="curve" smooth="yes"/>
      <point x="448" y="349"/>
      <point x="360" y="456"/>
      <point x="234" y="456" type="curve" smooth="yes"/>
      <point x="118" y="456"/>
      <point x="30" y="368"/>
      <point x="30" y="247" type="curve" smooth="yes"/>
      <point x="30" y="133"/>
      <point x="117" y="39"/>
      <point x="230" y="39" type="curve" smooth="yes"/>
      <point x="253" y="39"/>
      <point x="267" y="41"/>
    </contour>
    <contour>
      <point x="238" y="407" type="curve" smooth="yes"/>
      <point x="297" y="407"/>
      <point x="341" y="354"/>
      <point x="341" y="244" type="curve" smooth="yes"/>
      <point x="341" y="198"/>
      <point x="339" y="168"/>
      <point x="325" y="120" type="curve" smooth="yes"/>
      <point x="322" y="108"/>
      <point x="321" y="107"/>
      <point x="311" y="102" type="curve" smooth="yes"/>
      <point x="284" y="89"/>
      <point x="267" y="85"/>
      <point x="246" y="85" type="curve" smooth="yes"/>
      <point x="180" y="85"/>
      <point x="136" y="142"/>
      <point x="136" y="256" type="curve" smooth="yes"/>
      <point x="136" y="327"/>
      <point x="155" y="407"/>
    </contour>
  </outline>
</glyph>
<glyph name="colon" format="2">
  <advance width="257"/>
  <unicode hex="003A"/>
  <outline>
    <contour>
      <point x="129" y="288" type="curve" smooth="yes"/>
      <point x="160" y="288"/>
      <point x="184" y="311"/>
      <point x="184" y="342" type="curve" smooth="yes"/>
      <point x="184" y="376"/>
      <point x="160" y="398"/>
      <point x="129" y="398" type="curve" smooth="yes"/>
      <point x="98" y="398"/>
      <point x="74" y="376"/>
      <point x="74" y="342" type="curve" smooth="yes"/>
      <point x="74" y="311"/>
      <point x="98" y="288"/>
    </contour>
    <contour>
      <point x="129" y="-7" type="curve" smooth="yes"/>
      <point x="160" y="-7"/>
      <point x="184" y="16"/>
      <point x="184" y="49" type="curve" smooth="yes"/>
      <point x="184" y="81"/>
      <point x="160" y="103"/>
      <point x="129" y="103" type="curve" smooth="yes"/>
      <point x="98" y="103"/>
      <point x="74" y="81"/>
      <point x="74" y="49" type="curve" smooth="yes"/>
      <point x="74" y="17"/>
      <point x="98" y="-7"/>
    </contour>
  </outline>
</glyph>
<glyph name="less" format="2">
  <advance width="698"/>
  <unicode hex="003C"/>
  <outline>
    <contour>
      <point x="591" y="85" type="curve" smooth="yes"/>
      <point x="626" y="73"/>
      <point x="635" y="96"/>
      <point x="635" y="115" type="curve" smooth="yes"/>
      <point x="635" y="136" type="line" smooth="yes"/>
      <point x="635" y="149"/>
      <point x="632" y="161"/>
      <point x="615" y="168" type="curve" smooth="yes"/>
      <point x="511" y="208"/>
      <point x="307" y="291"/>
      <point x="200" y="337" type="curve"/>
      <point x="197" y="339"/>
      <point x="199" y="341"/>
      <point x="201" y="341" type="curve"/>
      <point x="307" y="383"/>
      <point x="505" y="465"/>
      <point x="607" y="507" type="curve" smooth="yes"/>
      <point x="616" y="511"/>
      <point x="635" y="524"/>
      <point x="635" y="539" type="curve" smooth="yes"/>
      <point x="635" y="554" type="line" smooth="yes"/>
      <point x="635" y="581"/>
      <point x="630" y="607"/>
      <point x="595" y="593" type="curve" smooth="yes"/>
      <point x="485" y="551"/>
      <point x="210" y="435"/>
      <point x="83" y="380" type="curve" smooth="yes"/>
      <point x="67" y="373"/>
      <point x="65" y="364"/>
      <point x="65" y="353" type="curve"/>
      <point x="64" y="349"/>
      <point x="62" y="337"/>
      <point x="65" y="327" type="curve"/>
      <point x="65" y="314"/>
      <point x="67" y="306"/>
      <point x="82" y="299" type="curve" smooth="yes"/>
      <point x="204" y="244"/>
      <point x="453" y="135"/>
    </contour>
  </outline>
</glyph>
<glyph name="greater" format="2">
  <advance width="698"/>
  <unicode hex="003E"/>
  <outline>
    <contour>
      <point x="608" y="295" type="curve" smooth="yes"/>
      <point x="629" y="304"/>
      <point x="635" y="311"/>
      <point x="635" y="327" type="curve"/>
      <point x="637" y="337"/>
      <point x="635" y="349"/>
      <point x="634" y="354" type="curve"/>
      <point x="634" y="368"/>
      <point x="623" y="377"/>
      <point x="611" y="382" type="curve" smooth="yes"/>
      <point x="483" y="437"/>
      <point x="258" y="531"/>
      <point x="104" y="593" type="curve" smooth="yes"/>
      <point x="77" y="604"/>
      <point x="65" y="586"/>
      <point x="65" y="558" type="curve" smooth="yes"/>
      <point x="65" y="541" type="line" smooth="yes"/>
      <point x="65" y="516"/>
      <point x="73" y="515"/>
      <point x="92" y="507" type="curve" smooth="yes"/>
      <point x="190" y="468"/>
      <point x="359" y="400"/>
      <point x="497" y="342" type="curve"/>
      <point x="502" y="339"/>
      <point x="499" y="337"/>
      <point x="499" y="337" type="curve"/>
      <point x="393" y="291"/>
      <point x="187" y="209"/>
      <point x="84" y="168" type="curve" smooth="yes"/>
      <point x="68" y="161"/>
      <point x="64" y="149"/>
      <point x="64" y="136" type="curve" smooth="yes"/>
      <point x="64" y="130"/>
      <point x="65" y="123"/>
      <point x="65" y="115" type="curve" smooth="yes"/>
      <point x="65" y="98"/>
      <point x="72" y="71"/>
      <point x="109" y="86" type="curve" smooth="yes"/>
      <point x="235" y="137"/>
      <point x="485" y="240"/>
    </contour>
  </outline>
</glyph>
<glyph name="B" format="2">
  <advance width="656"/>
  <unicode hex="0042"/>
  <outline>
    <contour>
      <point x="459" y="6" type="curve" smooth="yes"/>
      <point x="549" y="23"/>
      <point x="620" y="109"/>
      <point x="620" y="203" type="curve" smooth="yes"/>
      <point x="620" y="275"/>
      <point x="572" y="332"/>
      <point x="501" y="366" type="curve" smooth="yes"/>
      <point x="497" y="368"/>
      <point x="494" y="371"/>
      <point x="500" y="374" type="curve" smooth="yes"/>
      <point x="548" y="399"/>
      <point x="582" y="445"/>
      <point x="582" y="498" type="curve" smooth="yes"/>
      <point x="582" y="555"/>
      <point x="545" y="607"/>
      <point x="488" y="632" type="curve" smooth="yes"/>
      <point x="441" y="653"/>
      <point x="418" y="660"/>
      <point x="331" y="660" type="curve" smooth="yes"/>
      <point x="228" y="660"/>
      <point x="144" y="662"/>
      <point x="41" y="651" type="curve" smooth="yes"/>
      <point x="28" y="650"/>
      <point x="25" y="597"/>
      <point x="42" y="597" type="curve" smooth="yes"/>
      <point x="65" y="597" type="line" smooth="yes"/>
      <point x="80" y="597"/>
      <point x="111" y="599"/>
      <point x="123" y="587" type="curve" smooth="yes"/>
      <point x="133" y="577"/>
      <point x="137" y="556"/>
      <point x="137" y="509" type="curve" smooth="yes"/>
      <point x="137" y="139" type="line" smooth="yes"/>
      <point x="137" y="63"/>
      <point x="130" y="54"/>
      <point x="58" y="54" type="curve"/>
      <point x="50" y="56"/>
      <point x="39" y="54"/>
      <point x="31" y="53" type="curve"/>
      <point x="20" y="49"/>
      <point x="6" y="-2"/>
      <point x="34" y="-4" type="curve"/>
      <point x="119" y="-2"/>
      <point x="228" y="-2"/>
      <point x="325" y="-4" type="curve" smooth="yes"/>
      <point x="409" y="-6"/>
      <point x="427" y="0"/>
    </contour>
    <contour>
      <point x="417" y="583" type="curve" smooth="yes"/>
      <point x="442" y="562"/>
      <point x="456" y="530"/>
      <point x="456" y="492" type="curve" smooth="yes"/>
      <point x="456" y="379"/>
      <point x="350" y="394"/>
      <point x="272" y="394" type="curve" smooth="yes"/>
      <point x="271" y="394"/>
      <point x="258" y="396"/>
      <point x="258" y="403" type="curve" smooth="yes"/>
      <point x="258" y="596" type="line" smooth="yes"/>
      <point x="258" y="603"/>
      <point x="262" y="607"/>
      <point x="267" y="609" type="curve"/>
      <point x="319" y="613"/>
      <point x="373" y="619"/>
    </contour>
    <contour>
      <point x="422" y="319" type="curve" smooth="yes"/>
      <point x="465" y="294"/>
      <point x="491" y="248"/>
      <point x="491" y="197" type="curve" smooth="yes"/>
      <point x="491" y="119"/>
      <point x="437" y="58"/>
      <point x="357" y="58" type="curve" smooth="yes"/>
      <point x="290" y="58"/>
      <point x="268" y="75"/>
      <point x="263" y="105" type="curve" smooth="yes"/>
      <point x="260" y="120"/>
      <point x="258" y="148"/>
      <point x="258" y="181" type="curve" smooth="yes"/>
      <point x="258" y="320" type="line" smooth="yes"/>
      <point x="258" y="327"/>
      <point x="264" y="337"/>
      <point x="271" y="339" type="curve"/>
      <point x="325" y="339"/>
      <point x="373" y="348"/>
    </contour>
  </outline>
</glyph>
<glyph name="C" format="2">
  <advance width="762"/>
  <unicode hex="0043"/>
  <outline>
    <contour>
      <point x="630" y="5" type="curve"/>
      <point x="661" y="56"/>
      <point x="688" y="117"/>
      <point x="704" y="169" type="curve" smooth="yes"/>
      <point x="711" y="194"/>
      <point x="663" y="196"/>
      <point x="653" y="177" type="curve" smooth="yes"/>
      <point x="629" y="133"/>
      <point x="621" y="125"/>
      <point x="596" y="103" type="curve" smooth="yes"/>
      <point x="551" y="62"/>
      <point x="507" y="43"/>
      <point x="443" y="43" type="curve" smooth="yes"/>
      <point x="291" y="43"/>
      <point x="183" y="167"/>
      <point x="183" y="338" type="curve" smooth="yes"/>
      <point x="183" y="504"/>
      <point x="277" y="607"/>
      <point x="429" y="607" type="curve" smooth="yes"/>
      <point x="527" y="607"/>
      <point x="594" y="553"/>
      <point x="626" y="460" type="curve"/>
      <point x="638" y="442"/>
      <point x="671" y="450"/>
      <point x="676" y="471" type="curve"/>
      <point x="675" y="491"/>
      <point x="676" y="509"/>
      <point x="676" y="531" type="curve" smooth="yes"/>
      <point x="677" y="554"/>
      <point x="675" y="582"/>
      <point x="666" y="621" type="curve" smooth="yes"/>
      <point x="663" y="634"/>
      <point x="634" y="634"/>
      <point x="626" y="628" type="curve"/>
      <point x="618" y="621"/>
      <point x="607" y="625"/>
      <point x="598" y="628" type="curve" smooth="yes"/>
      <point x="530" y="651"/>
      <point x="496" y="665"/>
      <point x="423" y="665" type="curve" smooth="yes"/>
      <point x="203" y="665"/>
      <point x="48" y="522"/>
      <point x="48" y="317" type="curve" smooth="yes"/>
      <point x="48" y="123"/>
      <point x="199" y="-19"/>
      <point x="412" y="-19" type="curve" smooth="yes"/>
      <point x="450" y="-19"/>
      <point x="491" y="-17"/>
      <point x="529" y="-5" type="curve" smooth="yes"/>
      <point x="558" y="4"/>
      <point x="571" y="9"/>
      <point x="602" y="9" type="curve" smooth="yes"/>
      <point x="608" y="9"/>
      <point x="611" y="9"/>
    </contour>
  </outline>
</glyph>
<glyph name="D" format="2">
  <advance width="773"/>
  <unicode hex="0044"/>
  <outline>
    <contour>
      <point x="476" y="18" type="curve" smooth="yes"/>
      <point x="624" y="60"/>
      <point x="727" y="196"/>
      <point x="727" y="345" type="curve" smooth="yes"/>
      <point x="727" y="445"/>
      <point x="683" y="531"/>
      <point x="603" y="588" type="curve" smooth="yes"/>
      <point x="530" y="639"/>
      <point x="452" y="659"/>
      <point x="322" y="659" type="curve" smooth="yes"/>
      <point x="224" y="659"/>
      <point x="129" y="655"/>
      <point x="31" y="651" type="curve"/>
      <point x="22" y="649" type="line"/>
      <point x="10" y="645"/>
      <point x="5" y="597"/>
      <point x="25" y="597" type="curve" smooth="yes"/>
      <point x="34" y="597" type="line" smooth="yes"/>
      <point x="75" y="597"/>
      <point x="91" y="593"/>
      <point x="98" y="583" type="curve" smooth="yes"/>
      <point x="109" y="568"/>
      <point x="106" y="526"/>
      <point x="106" y="509" type="curve" smooth="yes"/>
      <point x="106" y="140" type="line" smooth="yes"/>
      <point x="106" y="122"/>
      <point x="108" y="102"/>
      <point x="102" y="85" type="curve" smooth="yes"/>
      <point x="91" y="51"/>
      <point x="55" y="59"/>
      <point x="27" y="55" type="curve"/>
      <point x="3" y="48"/>
      <point x="-4" y="-4"/>
      <point x="43" y="-4" type="curve" smooth="yes"/>
      <point x="279" y="-3" type="line" smooth="yes"/>
      <point x="351" y="-3"/>
      <point x="405" y="-2"/>
    </contour>
    <contour>
      <point x="501" y="550" type="curve" smooth="yes"/>
      <point x="561" y="505"/>
      <point x="597" y="423"/>
      <point x="597" y="330" type="curve" smooth="yes"/>
      <point x="597" y="131"/>
      <point x="472" y="54"/>
      <point x="291" y="54" type="curve" smooth="yes"/>
      <point x="231" y="54"/>
      <point x="226" y="69"/>
      <point x="226" y="109" type="curve" smooth="yes"/>
      <point x="226" y="591" type="line" smooth="yes"/>
      <point x="226" y="597"/>
      <point x="234" y="604"/>
      <point x="241" y="605" type="curve"/>
      <point x="283" y="607"/>
      <point x="306" y="607"/>
      <point x="348" y="603" type="curve" smooth="yes"/>
      <point x="425" y="595"/>
      <point x="460" y="582"/>
    </contour>
  </outline>
</glyph>
<glyph name="G" format="2">
  <advance width="763"/>
  <unicode hex="0047"/>
  <outline>
    <contour>
      <point x="709" y="245" type="curve"/>
      <point x="714" y="244"/>
      <point x="724" y="245"/>
      <point x="729" y="249" type="curve"/>
      <point x="734" y="254"/>
      <point x="733" y="262"/>
      <point x="735" y="270" type="curve"/>
      <point x="736" y="278"/>
      <point x="736" y="299"/>
      <point x="715" y="298" type="curve" smooth="yes"/>
      <point x="649" y="298"/>
      <point x="517" y="296"/>
      <point x="443" y="298" type="curve"/>
      <point x="408" y="294"/>
      <point x="426" y="244"/>
      <point x="443" y="244" type="curve" smooth="yes"/>
      <point x="481" y="243" type="line" smooth="yes"/>
      <point x="536" y="242"/>
      <point x="547" y="233"/>
      <point x="547" y="188" type="curve" smooth="yes"/>
      <point x="547" y="157"/>
      <point x="547" y="116"/>
      <point x="547" y="90" type="curve" smooth="yes"/>
      <point x="547" y="84"/>
      <point x="548" y="70"/>
      <point x="541" y="68" type="curve"/>
      <point x="501" y="50"/>
      <point x="459" y="38"/>
      <point x="418" y="38" type="curve" smooth="yes"/>
      <point x="275" y="38"/>
      <point x="180" y="151"/>
      <point x="180" y="319" type="curve" smooth="yes"/>
      <point x="180" y="502"/>
      <point x="273" y="612"/>
      <point x="429" y="612" type="curve" smooth="yes"/>
      <point x="530" y="612"/>
      <point x="586" y="560"/>
      <point x="607" y="458" type="curve" smooth="yes"/>
      <point x="611" y="440"/>
      <point x="658" y="433"/>
      <point x="659" y="461" type="curve" smooth="yes"/>
      <point x="662" y="511"/>
      <point x="661" y="626"/>
      <point x="654" y="637" type="curve"/>
      <point x="650" y="646"/>
      <point x="626" y="646"/>
      <point x="620" y="638" type="curve"/>
      <point x="615" y="633"/>
      <point x="613" y="632"/>
      <point x="607" y="632" type="curve" smooth="yes"/>
      <point x="601" y="632"/>
      <point x="596" y="632"/>
      <point x="579" y="637" type="curve" smooth="yes"/>
      <point x="506" y="659"/>
      <point x="468" y="667"/>
      <point x="414" y="667" type="curve" smooth="yes"/>
      <point x="307" y="667"/>
      <point x="237" y="638"/>
      <point x="167" y="574" type="curve" smooth="yes"/>
      <point x="96" y="508"/>
      <point x="50" y="414"/>
      <point x="50" y="314" type="curve" smooth="yes"/>
      <point x="50" y="124"/>
      <point x="188" y="-19"/>
      <point x="386" y="-19" type="curve" smooth="yes"/>
      <point x="471" y="-19"/>
      <point x="580" y="9"/>
      <point x="649" y="43" type="curve" smooth="yes"/>
      <point x="662" y="50"/>
      <point x="663" y="69"/>
      <point x="663" y="79" type="curve" smooth="yes"/>
      <point x="662" y="108"/>
      <point x="662" y="163"/>
      <point x="663" y="189" type="curve" smooth="yes"/>
      <point x="664" y="234"/>
      <point x="668" y="240"/>
    </contour>
  </outline>
</glyph>
<glyph name="K" format="2">
  <advance width="740"/>
  <unicode hex="004B"/>
  <outline>
    <contour>
      <point x="698" y="-3" type="curve"/>
      <point x="724" y="2"/>
      <point x="722" y="30"/>
      <point x="716" y="43" type="curve"/>
      <point x="710" y="54"/>
      <point x="702" y="54"/>
      <point x="693" y="54" type="curve" smooth="yes"/>
      <point x="635" y="54"/>
      <point x="615" y="60"/>
      <point x="574" y="109" type="curve" smooth="yes"/>
      <point x="518" y="175"/>
      <point x="467" y="246"/>
      <point x="404" y="306" type="curve" smooth="yes"/>
      <point x="383" y="325"/>
      <point x="370" y="337"/>
      <point x="358" y="345" type="curve"/>
      <point x="360" y="347" type="line"/>
      <point x="397" y="390"/>
      <point x="445" y="455"/>
      <point x="476" y="502" type="curve" smooth="yes"/>
      <point x="485" y="516"/>
      <point x="494" y="531"/>
      <point x="505" y="546" type="curve" smooth="yes"/>
      <point x="535" y="587"/>
      <point x="568" y="599"/>
      <point x="631" y="600" type="curve"/>
      <point x="663" y="596"/>
      <point x="664" y="651"/>
      <point x="631" y="650" type="curve" smooth="yes"/>
      <point x="584" y="648"/>
      <point x="483" y="647"/>
      <point x="386" y="650" type="curve"/>
      <point x="379" y="651"/>
      <point x="367" y="649"/>
      <point x="363" y="639" type="curve" smooth="yes"/>
      <point x="360" y="631"/>
      <point x="356" y="612"/>
      <point x="372" y="600" type="curve"/>
      <point x="390" y="598" type="line" smooth="yes"/>
      <point x="430" y="594"/>
      <point x="431" y="594"/>
      <point x="431" y="585" type="curve" smooth="yes"/>
      <point x="431" y="535"/>
      <point x="323" y="405"/>
      <point x="273" y="362" type="curve" smooth="yes"/>
      <point x="262" y="352"/>
      <point x="253" y="345"/>
      <point x="242" y="341" type="curve"/>
      <point x="240" y="341"/>
      <point x="239" y="343"/>
      <point x="239" y="345" type="curve" smooth="yes"/>
      <point x="239" y="542" type="line" smooth="yes"/>
      <point x="239" y="587"/>
      <point x="249" y="598"/>
      <point x="304" y="598" type="curve" smooth="yes"/>
      <point x="320" y="598"/>
      <point x="332" y="606"/>
      <point x="332" y="625" type="curve" smooth="yes"/>
      <point x="332" y="647"/>
      <point x="316" y="651"/>
      <point x="308" y="651" type="curve" smooth="yes"/>
      <point x="255" y="649"/>
      <point x="163" y="649"/>
      <point x="43" y="652" type="curve" smooth="yes"/>
      <point x="35" y="652"/>
      <point x="24" y="651"/>
      <point x="20" y="639" type="curve"/>
      <point x="15" y="629"/>
      <point x="15" y="600"/>
      <point x="37" y="598" type="curve"/>
      <point x="57" y="598" type="line" smooth="yes"/>
      <point x="111" y="598"/>
      <point x="122" y="587"/>
      <point x="122" y="542" type="curve" smooth="yes"/>
      <point x="122" y="106" type="line" smooth="yes"/>
      <point x="122" y="65"/>
      <point x="97" y="54"/>
      <point x="58" y="54" type="curve"/>
      <point x="51" y="55"/>
      <point x="42" y="56"/>
      <point x="35" y="54" type="curve"/>
      <point x="9" y="45"/>
      <point x="13" y="15"/>
      <point x="21" y="4" type="curve" smooth="yes"/>
      <point x="26" y="-3"/>
      <point x="34" y="-4"/>
      <point x="42" y="-4" type="curve" smooth="yes"/>
      <point x="44" y="-4"/>
      <point x="46" y="-4"/>
      <point x="48" y="-4" type="curve" smooth="yes"/>
      <point x="104" y="-2"/>
      <point x="235" y="-1"/>
      <point x="309" y="-4" type="curve" smooth="yes"/>
      <point x="317" y="-4"/>
      <point x="328" y="-3"/>
      <point x="332" y="6" type="curve"/>
      <point x="337" y="14"/>
      <point x="336" y="32"/>
      <point x="332" y="41" type="curve" smooth="yes"/>
      <point x="327" y="51"/>
      <point x="313" y="53"/>
      <point x="304" y="53" type="curve" smooth="yes"/>
      <point x="250" y="53"/>
      <point x="239" y="67"/>
      <point x="239" y="106" type="curve" smooth="yes"/>
      <point x="239" y="266" type="line" smooth="yes"/>
      <point x="239" y="274"/>
      <point x="236" y="288"/>
      <point x="243" y="288" type="curve"/>
      <point x="253" y="286"/>
      <point x="261" y="283"/>
      <point x="272" y="275" type="curve" smooth="yes"/>
      <point x="345" y="223"/>
      <point x="397" y="151"/>
      <point x="451" y="82" type="curve" smooth="yes"/>
      <point x="473" y="55"/>
      <point x="431" y="51"/>
      <point x="411" y="50" type="curve" smooth="yes"/>
      <point x="389" y="50"/>
      <point x="387" y="24"/>
      <point x="393" y="8" type="curve"/>
      <point x="399" y="-2"/>
      <point x="405" y="-2"/>
      <point x="414" y="-4" type="curve"/>
      <point x="482" y="-3"/>
      <point x="618" y="2"/>
    </contour>
  </outline>
</glyph>
<glyph name="L" format="2">
  <advance width="595"/>
  <unicode hex="004C"/>
  <outline>
    <contour>
      <point x="515" y="19" type="curve"/>
      <point x="528" y="40"/>
      <point x="553" y="95"/>
      <point x="576" y="150" type="curve"/>
      <point x="577" y="152"/>
      <point x="581" y="167"/>
      <point x="568" y="174" type="curve"/>
      <point x="559" y="181"/>
      <point x="546" y="178"/>
      <point x="536" y="174" type="curve"/>
      <point x="500" y="127" type="line" smooth="yes"/>
      <point x="454" y="67"/>
      <point x="442" y="66"/>
      <point x="371" y="66" type="curve" smooth="yes"/>
      <point x="288" y="66" type="line" smooth="yes"/>
      <point x="252" y="66"/>
      <point x="233" y="75"/>
      <point x="233" y="108" type="curve" smooth="yes"/>
      <point x="233" y="552" type="line" smooth="yes"/>
      <point x="233" y="587"/>
      <point x="240" y="591"/>
      <point x="300" y="593" type="curve" smooth="yes"/>
      <point x="311" y="593"/>
      <point x="322" y="594"/>
      <point x="332" y="595" type="curve" smooth="yes"/>
      <point x="357" y="597"/>
      <point x="358" y="620"/>
      <point x="354" y="636" type="curve" smooth="yes"/>
      <point x="350" y="651"/>
      <point x="337" y="652"/>
      <point x="330" y="652" type="curve" smooth="yes"/>
      <point x="217" y="650"/>
      <point x="149" y="649"/>
      <point x="51" y="651" type="curve"/>
      <point x="46" y="652"/>
      <point x="33" y="652"/>
      <point x="26" y="641" type="curve"/>
      <point x="21" y="632"/>
      <point x="20" y="599"/>
      <point x="40" y="597" type="curve"/>
      <point x="52" y="597" type="line" smooth="yes"/>
      <point x="106" y="596"/>
      <point x="117" y="587"/>
      <point x="117" y="542" type="curve" smooth="yes"/>
      <point x="117" y="144" type="line" smooth="yes"/>
      <point x="117" y="105"/>
      <point x="116" y="99"/>
      <point x="115" y="88" type="curve"/>
      <point x="109" y="61"/>
      <point x="69" y="56"/>
      <point x="46" y="56" type="curve"/>
      <point x="44" y="55"/>
      <point x="41" y="56"/>
      <point x="39" y="56" type="curve" smooth="yes"/>
      <point x="33" y="56" type="line"/>
      <point x="14" y="54"/>
      <point x="14" y="26"/>
      <point x="18" y="13" type="curve" smooth="yes"/>
      <point x="21" y="4"/>
      <point x="31" y="-4"/>
      <point x="43" y="-3" type="curve" smooth="yes"/>
      <point x="73" y="-1"/>
      <point x="298" y="-1"/>
      <point x="475" y="-4" type="curve" smooth="yes"/>
      <point x="496" y="-4"/>
      <point x="507" y="8"/>
    </contour>
  </outline>
</glyph>
<glyph name="M" format="2">
  <advance width="942"/>
  <unicode hex="004D"/>
  <outline>
    <contour>
      <point x="679" y="467" type="line" smooth="yes"/>
      <point x="683" y="476"/>
      <point x="688" y="492"/>
      <point x="689" y="478" type="curve" smooth="yes"/>
      <point x="696" y="368"/>
      <point x="704" y="258"/>
      <point x="709" y="149" type="curve" smooth="yes"/>
      <point x="711" y="88"/>
      <point x="726" y="52"/>
      <point x="645" y="52" type="curve" smooth="yes"/>
      <point x="633" y="52"/>
      <point x="619" y="44"/>
      <point x="618" y="35" type="curve" smooth="yes"/>
      <point x="617" y="28"/>
      <point x="616" y="19"/>
      <point x="618" y="13" type="curve"/>
      <point x="620" y="1"/>
      <point x="630" y="-2"/>
      <point x="645" y="-2" type="curve" smooth="yes"/>
      <point x="710" y="-1"/>
      <point x="844" y="0"/>
      <point x="893" y="-3" type="curve"/>
      <point x="905" y="-3"/>
      <point x="916" y="1"/>
      <point x="918" y="14" type="curve"/>
      <point x="918" y="35"/>
      <point x="922" y="52"/>
      <point x="890" y="52" type="curve" smooth="yes"/>
      <point x="842" y="52"/>
      <point x="831" y="54"/>
      <point x="825" y="143" type="curve" smooth="yes"/>
      <point x="798" y="526" type="line" smooth="yes"/>
      <point x="797" y="540"/>
      <point x="796" y="551"/>
      <point x="796" y="566" type="curve" smooth="yes"/>
      <point x="796" y="583"/>
      <point x="802" y="589"/>
      <point x="811" y="592" type="curve" smooth="yes"/>
      <point x="823" y="596"/>
      <point x="838" y="595"/>
      <point x="851" y="597" type="curve"/>
      <point x="879" y="599"/>
      <point x="873" y="651"/>
      <point x="846" y="650" type="curve" smooth="yes"/>
      <point x="801" y="649"/>
      <point x="756" y="649"/>
      <point x="711" y="650" type="curve" smooth="yes"/>
      <point x="704" y="650"/>
      <point x="685" y="647"/>
      <point x="677" y="633" type="curve"/>
      <point x="480" y="186" type="line" smooth="yes"/>
      <point x="476" y="178"/>
      <point x="471" y="169"/>
      <point x="468" y="176" type="curve" smooth="yes"/>
      <point x="263" y="634" type="line" smooth="yes"/>
      <point x="256" y="650"/>
      <point x="241" y="650"/>
      <point x="230" y="650" type="curve" smooth="yes"/>
      <point x="198" y="649"/>
      <point x="128" y="649"/>
      <point x="94" y="651" type="curve" smooth="yes"/>
      <point x="82" y="652"/>
      <point x="73" y="647"/>
      <point x="70" y="632" type="curve" smooth="yes"/>
      <point x="68" y="624"/>
      <point x="69" y="614"/>
      <point x="72" y="607" type="curve" smooth="yes"/>
      <point x="85" y="579"/>
      <point x="139" y="614"/>
      <point x="139" y="564" type="curve" smooth="yes"/>
      <point x="139" y="423"/>
      <point x="122" y="282"/>
      <point x="113" y="141" type="curve" smooth="yes"/>
      <point x="112" y="124"/>
      <point x="111" y="109"/>
      <point x="110" y="96" type="curve"/>
      <point x="105" y="58"/>
      <point x="90" y="49"/>
      <point x="45" y="51" type="curve" smooth="yes"/>
      <point x="34" y="52"/>
      <point x="28" y="49"/>
      <point x="23" y="39" type="curve" smooth="yes"/>
      <point x="19" y="31"/>
      <point x="19" y="20"/>
      <point x="22" y="12" type="curve" smooth="yes"/>
      <point x="27" y="-2"/>
      <point x="36" y="0"/>
      <point x="47" y="-2" type="curve"/>
      <point x="115" y="0"/>
      <point x="194" y="-1"/>
      <point x="245" y="-3" type="curve"/>
      <point x="249" y="-2"/>
      <point x="253" y="-2"/>
      <point x="256" y="-1" type="curve"/>
      <point x="272" y="3"/>
      <point x="273" y="22"/>
      <point x="270" y="35" type="curve"/>
      <point x="266" y="49"/>
      <point x="253" y="51"/>
      <point x="245" y="51" type="curve"/>
      <point x="193" y="55"/>
      <point x="186" y="67"/>
      <point x="186" y="96" type="curve" smooth="yes"/>
      <point x="186" y="107"/>
      <point x="187" y="125"/>
      <point x="188" y="144" type="curve" smooth="yes"/>
      <point x="209" y="481" type="line"/>
      <point x="209" y="484"/>
      <point x="216" y="471"/>
      <point x="216" y="469" type="curve"/>
      <point x="426" y="5" type="line" smooth="yes"/>
      <point x="432" y="-9"/>
      <point x="471" y="-9"/>
      <point x="477" y="5" type="curve" smooth="yes"/>
    </contour>
  </outline>
</glyph>
<glyph name="N" format="2">
  <advance width="834"/>
  <unicode hex="004E"/>
  <outline>
    <contour>
      <point x="623" y="199" type="line"/>
      <point x="234" y="636" type="line" smooth="yes"/>
      <point x="226" y="645"/>
      <point x="210" y="651"/>
      <point x="202" y="651" type="curve" smooth="yes"/>
      <point x="168" y="650"/>
      <point x="116" y="654"/>
      <point x="61" y="651" type="curve" smooth="yes"/>
      <point x="47" y="650"/>
      <point x="35" y="645"/>
      <point x="35" y="625" type="curve" smooth="yes"/>
      <point x="35" y="612"/>
      <point x="41" y="598"/>
      <point x="49" y="598" type="curve" smooth="yes"/>
      <point x="82" y="597"/>
      <point x="105" y="593"/>
      <point x="121" y="583" type="curve"/>
      <point x="121" y="99" type="line" smooth="yes"/>
      <point x="121" y="80"/>
      <point x="115" y="53"/>
      <point x="57" y="53" type="curve" smooth="yes"/>
      <point x="16" y="53"/>
      <point x="26" y="-6"/>
      <point x="52" y="-4" type="curve" smooth="yes"/>
      <point x="112" y="-1"/>
      <point x="222" y="-2"/>
      <point x="283" y="-3" type="curve" smooth="yes"/>
      <point x="311" y="-4"/>
      <point x="311" y="30"/>
      <point x="304" y="44" type="curve"/>
      <point x="301" y="52"/>
      <point x="288" y="56"/>
      <point x="275" y="57" type="curve" smooth="yes"/>
      <point x="250" y="58"/>
      <point x="219" y="50"/>
      <point x="208" y="82" type="curve" smooth="yes"/>
      <point x="202" y="100"/>
      <point x="203" y="125"/>
      <point x="203" y="145" type="curve" smooth="yes"/>
      <point x="203" y="489" type="line" smooth="yes"/>
      <point x="203" y="506"/>
      <point x="206" y="497"/>
      <point x="213" y="492" type="curve"/>
      <point x="360" y="327"/>
      <point x="486" y="183"/>
      <point x="651" y="-2" type="curve" smooth="yes"/>
      <point x="661" y="-13"/>
      <point x="715" y="-17"/>
      <point x="715" y="14" type="curve" smooth="yes"/>
      <point x="715" y="525" type="line" smooth="yes"/>
      <point x="715" y="596"/>
      <point x="716" y="596"/>
      <point x="786" y="598" type="curve" smooth="yes"/>
      <point x="803" y="598"/>
      <point x="811" y="604"/>
      <point x="810" y="623" type="curve" smooth="yes"/>
      <point x="809" y="633"/>
      <point x="809" y="652"/>
      <point x="793" y="652" type="curve" smooth="yes"/>
      <point x="704" y="650"/>
      <point x="628" y="648"/>
      <point x="552" y="651" type="curve" smooth="yes"/>
      <point x="522" y="652"/>
      <point x="526" y="597"/>
      <point x="551" y="596" type="curve"/>
      <point x="573" y="594"/>
      <point x="590" y="594"/>
      <point x="604" y="592" type="curve" smooth="yes"/>
      <point x="615" y="590"/>
      <point x="622" y="587"/>
      <point x="626" y="583" type="curve" smooth="yes"/>
      <point x="634" y="575"/>
      <point x="635" y="560"/>
      <point x="635" y="509" type="curve" smooth="yes"/>
      <point x="635" y="198" type="line" smooth="yes"/>
      <point x="635" y="185"/>
      <point x="628" y="192"/>
      <point x="622" y="199" type="curve"/>
    </contour>
  </outline>
</glyph>
<glyph name="O" format="2">
  <advance width="827"/>
  <unicode hex="004F"/>
  <outline>
    <contour>
      <point x="413" y="-19" type="curve" smooth="yes"/>
      <point x="622" y="-19"/>
      <point x="777" y="138"/>
      <point x="777" y="339" type="curve" smooth="yes"/>
      <point x="777" y="527"/>
      <point x="626" y="667"/>
      <point x="415" y="667" type="curve" smooth="yes"/>
      <point x="200" y="667"/>
      <point x="45" y="515"/>
      <point x="45" y="312" type="curve" smooth="yes"/>
      <point x="45" y="125"/>
      <point x="202" y="-19"/>
    </contour>
    <contour>
      <point x="387" y="610" type="curve" smooth="yes"/>
      <point x="542" y="610"/>
      <point x="646" y="487"/>
      <point x="646" y="309" type="curve" smooth="yes"/>
      <point x="646" y="163"/>
      <point x="594" y="39"/>
      <point x="430" y="39" type="curve" smooth="yes"/>
      <point x="282" y="39"/>
      <point x="176" y="166"/>
      <point x="176" y="338" type="curve" smooth="yes"/>
      <point x="176" y="502"/>
      <point x="260" y="610"/>
    </contour>
  </outline>
</glyph>
<glyph name="P" format="2">
  <advance width="577"/>
  <unicode hex="0050"/>
  <outline>
    <contour>
      <point x="288" y="261" type="curve" smooth="yes"/>
      <point x="445" y="261"/>
      <point x="544" y="339"/>
      <point x="544" y="468" type="curve" smooth="yes"/>
      <point x="544" y="553"/>
      <point x="486" y="623"/>
      <point x="396" y="646" type="curve" smooth="yes"/>
      <point x="357" y="656"/>
      <point x="332" y="659"/>
      <point x="263" y="659" type="curve" smooth="yes"/>
      <point x="187" y="659"/>
      <point x="116" y="659"/>
      <point x="37" y="650" type="curve" smooth="yes"/>
      <point x="25" y="649"/>
      <point x="20" y="634"/>
      <point x="20" y="623" type="curve"/>
      <point x="25" y="588"/>
      <point x="62" y="600"/>
      <point x="87" y="601" type="curve" smooth="yes"/>
      <point x="116" y="601"/>
      <point x="122" y="595"/>
      <point x="122" y="532" type="curve" smooth="yes"/>
      <point x="122" y="86" type="line" smooth="yes"/>
      <point x="122" y="59"/>
      <point x="120" y="56"/>
      <point x="74" y="56" type="curve" smooth="yes"/>
      <point x="40" y="56"/>
      <point x="36" y="58"/>
      <point x="35" y="25" type="curve"/>
      <point x="34" y="18"/>
      <point x="36" y="12"/>
      <point x="39" y="7" type="curve"/>
      <point x="46" y="-3"/>
      <point x="55" y="-4"/>
      <point x="66" y="-4" type="curve" smooth="yes"/>
      <point x="135" y="-2"/>
      <point x="260" y="-2"/>
      <point x="337" y="-5" type="curve"/>
      <point x="351" y="-7"/>
      <point x="359" y="9"/>
      <point x="360" y="22" type="curve" smooth="yes"/>
      <point x="361" y="32"/>
      <point x="359" y="40"/>
      <point x="356" y="45" type="curve" smooth="yes"/>
      <point x="348" y="57"/>
      <point x="342" y="56"/>
      <point x="324" y="57" type="curve"/>
      <point x="311" y="57"/>
      <point x="298" y="55"/>
      <point x="287" y="55" type="curve" smooth="yes"/>
      <point x="251" y="54"/>
      <point x="241" y="68"/>
      <point x="241" y="106" type="curve" smooth="yes"/>
      <point x="241" y="254" type="line" smooth="yes"/>
      <point x="241" y="263"/>
      <point x="242" y="265"/>
      <point x="245" y="264" type="curve"/>
      <point x="259" y="262"/>
      <point x="267" y="261"/>
    </contour>
    <contour>
      <point x="357" y="592" type="curve" smooth="yes"/>
      <point x="393" y="573"/>
      <point x="418" y="530"/>
      <point x="418" y="470" type="curve" smooth="yes"/>
      <point x="418" y="373"/>
      <point x="375" y="312"/>
      <point x="282" y="312" type="curve" smooth="yes"/>
      <point x="267" y="312"/>
      <point x="267" y="312"/>
      <point x="252" y="315" type="curve"/>
      <point x="245" y="317"/>
      <point x="241" y="326"/>
      <point x="241" y="332" type="curve" smooth="yes"/>
      <point x="241" y="592" type="line" smooth="yes"/>
      <point x="241" y="598"/>
      <point x="242" y="606"/>
      <point x="252" y="607" type="curve" smooth="yes"/>
      <point x="287" y="611"/>
      <point x="326" y="608"/>
    </contour>
  </outline>
</glyph>
<glyph name="R" format="2">
  <advance width="696"/>
  <unicode hex="0052"/>
  <outline>
    <contour>
      <point x="659" y="-14" type="curve" smooth="yes"/>
      <point x="667" y="-13"/>
      <point x="674" y="-11"/>
      <point x="681" y="-6" type="curve"/>
      <point x="692" y="10"/>
      <point x="687" y="26"/>
      <point x="674" y="36" type="curve"/>
      <point x="649" y="41"/>
      <point x="635" y="48"/>
      <point x="623" y="58" type="curve" smooth="yes"/>
      <point x="592" y="82"/>
      <point x="585" y="89"/>
      <point x="563" y="120" type="curve" smooth="yes"/>
      <point x="527" y="174"/>
      <point x="490" y="227"/>
      <point x="455" y="282" type="curve"/>
      <point x="449" y="293"/>
      <point x="451" y="294"/>
      <point x="453" y="295" type="curve"/>
      <point x="512" y="329"/>
      <point x="552" y="394"/>
      <point x="552" y="466" type="curve" smooth="yes"/>
      <point x="552" y="619"/>
      <point x="402" y="659"/>
      <point x="279" y="659" type="curve" smooth="yes"/>
      <point x="198" y="659"/>
      <point x="114" y="659"/>
      <point x="32" y="651" type="curve"/>
      <point x="12" y="641"/>
      <point x="12" y="599"/>
      <point x="35" y="599" type="curve" smooth="yes"/>
      <point x="81" y="598"/>
      <point x="100" y="597"/>
      <point x="108" y="587" type="curve"/>
      <point x="113" y="582"/>
      <point x="115" y="575"/>
      <point x="116" y="562" type="curve" smooth="yes"/>
      <point x="117" y="549"/>
      <point x="117" y="532"/>
      <point x="117" y="509" type="curve" smooth="yes"/>
      <point x="117" y="140" type="line"/>
      <point x="117" y="106" type="line" smooth="yes"/>
      <point x="117" y="66"/>
      <point x="109" y="53"/>
      <point x="55" y="53" type="curve" smooth="yes"/>
      <point x="52" y="53"/>
      <point x="49" y="53"/>
      <point x="46" y="53" type="curve" smooth="yes"/>
      <point x="42" y="53"/>
      <point x="38" y="53"/>
      <point x="35" y="52" type="curve"/>
      <point x="1" y="47"/>
      <point x="11" y="-2"/>
      <point x="31" y="-3" type="curve" smooth="yes"/>
      <point x="47" y="-4" type="line"/>
      <point x="119" y="1"/>
      <point x="250" y="-3"/>
      <point x="321" y="-3" type="curve" smooth="yes"/>
      <point x="349" y="-3"/>
      <point x="348" y="19"/>
      <point x="344" y="39" type="curve"/>
      <point x="337" y="60"/>
      <point x="317" y="57"/>
      <point x="300" y="55" type="curve"/>
      <point x="250" y="55"/>
      <point x="240" y="64"/>
      <point x="238" y="106" type="curve" smooth="yes"/>
      <point x="237" y="156"/>
      <point x="237" y="195"/>
      <point x="237" y="245" type="curve" smooth="yes"/>
      <point x="237" y="246"/>
      <point x="240" y="258"/>
      <point x="246" y="257" type="curve"/>
      <point x="280" y="256"/>
      <point x="308" y="257"/>
      <point x="341" y="260" type="curve"/>
      <point x="348" y="261"/>
      <point x="353" y="248"/>
      <point x="355" y="243" type="curve"/>
      <point x="370" y="217"/>
      <point x="382" y="191"/>
      <point x="398" y="165" type="curve" smooth="yes"/>
      <point x="424" y="125"/>
      <point x="451" y="84"/>
      <point x="483" y="48" type="curve" smooth="yes"/>
      <point x="510" y="17"/>
      <point x="548" y="-15"/>
      <point x="638" y="-15" type="curve" smooth="yes"/>
      <point x="645" y="-15"/>
      <point x="652" y="-15"/>
    </contour>
    <contour>
      <point x="269" y="608" type="curve" smooth="yes"/>
      <point x="393" y="608"/>
      <point x="423" y="549"/>
      <point x="423" y="460" type="curve" smooth="yes"/>
      <point x="423" y="395"/>
      <point x="390" y="335"/>
      <point x="329" y="314" type="curve" smooth="yes"/>
      <point x="306" y="307"/>
      <point x="269" y="310"/>
      <point x="245" y="311" type="curve"/>
      <point x="245" y="311"/>
      <point x="237" y="315"/>
      <point x="237" y="322" type="curve" smooth="yes"/>
      <point x="237" y="596" type="line" smooth="yes"/>
      <point x="237" y="609"/>
      <point x="258" y="608"/>
    </contour>
  </outline>
</glyph>
<glyph name="T" format="2">
  <advance width="681"/>
  <unicode hex="0054"/>
  <outline>
    <contour>
      <point x="657" y="490" type="curve" smooth="yes"/>
      <point x="642" y="652" type="line" smooth="yes"/>
      <point x="641" y="661"/>
      <point x="638" y="668"/>
      <point x="628" y="670" type="curve" smooth="yes"/>
      <point x="617" y="672"/>
      <point x="596" y="671"/>
      <point x="592" y="661" type="curve" smooth="yes"/>
      <point x="589" y="654"/>
      <point x="586" y="653"/>
      <point x="582" y="652" type="curve" smooth="yes"/>
      <point x="577" y="651"/>
      <point x="557" y="651"/>
      <point x="545" y="651" type="curve" smooth="yes"/>
      <point x="442" y="650"/>
      <point x="239" y="650"/>
      <point x="139" y="651" type="curve" smooth="yes"/>
      <point x="129" y="651"/>
      <point x="99" y="649"/>
      <point x="94" y="661" type="curve" smooth="yes"/>
      <point x="89" y="674"/>
      <point x="61" y="679"/>
      <point x="45" y="661" type="curve"/>
      <point x="39" y="614"/>
      <point x="31" y="531"/>
      <point x="29" y="491" type="curve" smooth="yes"/>
      <point x="28" y="474"/>
      <point x="60" y="466"/>
      <point x="78" y="478" type="curve"/>
      <point x="97" y="574"/>
      <point x="112" y="582"/>
      <point x="139" y="582" type="curve" smooth="yes"/>
      <point x="159" y="582" type="line"/>
      <point x="265" y="582" type="line" smooth="yes"/>
      <point x="280" y="582"/>
      <point x="282" y="566"/>
      <point x="282" y="560" type="curve"/>
      <point x="283" y="547"/>
      <point x="282" y="260"/>
      <point x="282" y="140" type="curve" smooth="yes"/>
      <point x="282" y="106" type="line" smooth="yes"/>
      <point x="282" y="56"/>
      <point x="256" y="54"/>
      <point x="230" y="54" type="curve"/>
      <point x="215" y="55"/>
      <point x="204" y="54"/>
      <point x="191" y="54" type="curve"/>
      <point x="180" y="52"/>
      <point x="177" y="52"/>
      <point x="170" y="41" type="curve"/>
      <point x="167" y="32"/>
      <point x="167" y="18"/>
      <point x="170" y="10" type="curve" smooth="yes"/>
      <point x="172" y="4"/>
      <point x="177" y="-4"/>
      <point x="192" y="-4" type="curve" smooth="yes"/>
      <point x="265" y="-2"/>
      <point x="414" y="0"/>
      <point x="492" y="-3" type="curve" smooth="yes"/>
      <point x="500" y="-3"/>
      <point x="512" y="-4"/>
      <point x="518" y="12" type="curve" smooth="yes"/>
      <point x="523" y="25"/>
      <point x="519" y="57"/>
      <point x="494" y="57" type="curve" smooth="yes"/>
      <point x="466" y="57" type="line" smooth="yes"/>
      <point x="408" y="57"/>
      <point x="403" y="75"/>
      <point x="403" y="106" type="curve" smooth="yes"/>
      <point x="403" y="140" type="line" smooth="yes"/>
      <point x="403" y="249"/>
      <point x="403" y="493"/>
      <point x="403" y="557" type="curve" smooth="yes"/>
      <point x="403" y="578"/>
      <point x="411" y="582"/>
      <point x="416" y="582" type="curve" smooth="yes"/>
      <point x="548" y="582" type="line" smooth="yes"/>
      <point x="574" y="582"/>
      <point x="588" y="575"/>
      <point x="605" y="492" type="curve" smooth="yes"/>
      <point x="608" y="476"/>
      <point x="614" y="469"/>
      <point x="634" y="469" type="curve" smooth="yes"/>
      <point x="643" y="469"/>
      <point x="658" y="474"/>
    </contour>
  </outline>
</glyph>
<glyph name="U" format="2">
  <advance width="815"/>
  <unicode hex="0055"/>
  <outline>
    <contour>
      <point x="780" y="599" type="curve"/>
      <point x="795" y="602"/>
      <point x="798" y="618"/>
      <point x="798" y="625" type="curve" smooth="yes"/>
      <point x="798" y="636"/>
      <point x="792" y="650"/>
      <point x="779" y="650" type="curve" smooth="yes"/>
      <point x="718" y="651"/>
      <point x="589" y="651"/>
      <point x="539" y="650" type="curve" smooth="yes"/>
      <point x="533" y="650"/>
      <point x="524" y="646"/>
      <point x="521" y="640" type="curve" smooth="yes"/>
      <point x="517" y="631"/>
      <point x="517" y="618"/>
      <point x="521" y="610" type="curve"/>
      <point x="525" y="600"/>
      <point x="531" y="600"/>
      <point x="539" y="598" type="curve"/>
      <point x="609" y="596"/>
      <point x="619" y="585"/>
      <point x="619" y="480" type="curve" smooth="yes"/>
      <point x="619" y="304" type="line" smooth="yes"/>
      <point x="619" y="260"/>
      <point x="620" y="216"/>
      <point x="604" y="174" type="curve" smooth="yes"/>
      <point x="578" y="106"/>
      <point x="526" y="65"/>
      <point x="425" y="65" type="curve" smooth="yes"/>
      <point x="270" y="65"/>
      <point x="231" y="170"/>
      <point x="231" y="310" type="curve" smooth="yes"/>
      <point x="231" y="499" type="line" smooth="yes"/>
      <point x="231" y="514"/>
      <point x="232" y="527"/>
      <point x="232" y="542" type="curve" smooth="yes"/>
      <point x="233" y="589"/>
      <point x="243" y="597"/>
      <point x="297" y="597" type="curve" smooth="yes"/>
      <point x="306" y="597" type="line" smooth="yes"/>
      <point x="324" y="597"/>
      <point x="338" y="650"/>
      <point x="297" y="650" type="curve" smooth="yes"/>
      <point x="231" y="650"/>
      <point x="111" y="650"/>
      <point x="46" y="650" type="curve" smooth="yes"/>
      <point x="36" y="650"/>
      <point x="30" y="649"/>
      <point x="24" y="641" type="curve" smooth="yes"/>
      <point x="13" y="626"/>
      <point x="19" y="599"/>
      <point x="41" y="597" type="curve"/>
      <point x="93" y="595"/>
      <point x="110" y="605"/>
      <point x="110" y="549" type="curve" smooth="yes"/>
      <point x="110" y="296" type="line" smooth="yes"/>
      <point x="110" y="201"/>
      <point x="112" y="178"/>
      <point x="133" y="132" type="curve" smooth="yes"/>
      <point x="178" y="35"/>
      <point x="265" y="-19"/>
      <point x="402" y="-19" type="curve" smooth="yes"/>
      <point x="501" y="-19"/>
      <point x="554" y="4"/>
      <point x="612" y="55" type="curve" smooth="yes"/>
      <point x="697" y="130"/>
      <point x="698" y="204"/>
      <point x="698" y="305" type="curve" smooth="yes"/>
      <point x="698" y="484" type="line" smooth="yes"/>
      <point x="698" y="586"/>
      <point x="711" y="597"/>
    </contour>
  </outline>
</glyph>
<glyph name="V" format="2">
  <advance width="761"/>
  <unicode hex="0056"/>
  <outline>
    <contour>
      <point x="629" y="505" type="line" smooth="yes"/>
      <point x="661" y="587"/>
      <point x="678" y="600"/>
      <point x="727" y="600" type="curve"/>
      <point x="748" y="603"/>
      <point x="756" y="651"/>
      <point x="723" y="650" type="curve" smooth="yes"/>
      <point x="685" y="649"/>
      <point x="536" y="647"/>
      <point x="498" y="650" type="curve"/>
      <point x="491" y="651"/>
      <point x="478" y="648"/>
      <point x="474" y="642" type="curve" smooth="yes"/>
      <point x="468" y="633"/>
      <point x="468" y="620"/>
      <point x="473" y="610" type="curve" smooth="yes"/>
      <point x="479" y="599"/>
      <point x="484" y="598"/>
      <point x="495" y="598" type="curve" smooth="yes"/>
      <point x="516" y="598"/>
      <point x="530" y="598"/>
      <point x="540" y="596" type="curve"/>
      <point x="559" y="591"/>
      <point x="564" y="580"/>
      <point x="563" y="565" type="curve" smooth="yes"/>
      <point x="562" y="550"/>
      <point x="555" y="532"/>
      <point x="549" y="517" type="curve" smooth="yes"/>
      <point x="412" y="161" type="line" smooth="yes"/>
      <point x="410" y="155"/>
      <point x="403" y="162"/>
      <point x="401" y="166" type="curve"/>
      <point x="254" y="526" type="line" smooth="yes"/>
      <point x="251" y="534"/>
      <point x="248" y="541"/>
      <point x="245" y="548" type="curve"/>
      <point x="240" y="565"/>
      <point x="235" y="584"/>
      <point x="259" y="589" type="curve" smooth="yes"/>
      <point x="272" y="592"/>
      <point x="293" y="593"/>
      <point x="322" y="595" type="curve"/>
      <point x="330" y="599"/>
      <point x="337" y="600"/>
      <point x="341" y="611" type="curve"/>
      <point x="345" y="620"/>
      <point x="343" y="635"/>
      <point x="337" y="643" type="curve"/>
      <point x="331" y="652"/>
      <point x="317" y="650"/>
      <point x="307" y="650" type="curve" smooth="yes"/>
      <point x="244" y="648"/>
      <point x="114" y="648"/>
      <point x="47" y="650" type="curve" smooth="yes"/>
      <point x="40" y="650"/>
      <point x="25" y="649"/>
      <point x="21" y="635" type="curve"/>
      <point x="18" y="629"/>
      <point x="17" y="618"/>
      <point x="20" y="609" type="curve"/>
      <point x="25" y="599"/>
      <point x="31" y="597"/>
      <point x="40" y="595" type="curve"/>
      <point x="80" y="594"/>
      <point x="100" y="592"/>
      <point x="129" y="520" type="curve" smooth="yes"/>
      <point x="341" y="-1" type="line" smooth="yes"/>
      <point x="344" y="-9"/>
      <point x="353" y="-21"/>
      <point x="363" y="-23" type="curve"/>
      <point x="378" y="-25"/>
      <point x="397" y="-25"/>
      <point x="404" y="-24" type="curve"/>
      <point x="415" y="-23"/>
      <point x="428" y="-7"/>
      <point x="431" y="1" type="curve" smooth="yes"/>
    </contour>
  </outline>
</glyph>
<glyph name="W" format="2">
  <advance width="1086"/>
  <unicode hex="0057"/>
  <outline>
    <contour>
      <point x="414" y="153" type="line"/>
      <point x="263" y="524" type="line" smooth="yes"/>
      <point x="247" y="563"/>
      <point x="245" y="574"/>
      <point x="245" y="582" type="curve" smooth="yes"/>
      <point x="245" y="592"/>
      <point x="247" y="599"/>
      <point x="283" y="599" type="curve" smooth="yes"/>
      <point x="290" y="599"/>
      <point x="299" y="600"/>
      <point x="303" y="609" type="curve"/>
      <point x="306" y="617"/>
      <point x="307" y="629"/>
      <point x="305" y="638" type="curve" smooth="yes"/>
      <point x="302" y="649"/>
      <point x="290" y="651"/>
      <point x="281" y="651" type="curve" smooth="yes"/>
      <point x="191" y="650"/>
      <point x="91" y="650"/>
      <point x="37" y="650" type="curve" smooth="yes"/>
      <point x="4" y="650"/>
      <point x="9" y="606"/>
      <point x="23" y="598" type="curve" smooth="yes"/>
      <point x="30" y="594"/>
      <point x="37" y="594"/>
      <point x="43" y="594" type="curve"/>
      <point x="61" y="593"/>
      <point x="94" y="595"/>
      <point x="109" y="582" type="curve"/>
      <point x="122" y="572"/>
      <point x="131" y="551"/>
      <point x="149" y="505" type="curve" smooth="yes"/>
      <point x="347" y="8" type="line" smooth="yes"/>
      <point x="351" y="-2"/>
      <point x="358" y="-12"/>
      <point x="368" y="-16" type="curve"/>
      <point x="380" y="-19"/>
      <point x="409" y="-21"/>
      <point x="421" y="-18" type="curve" smooth="yes"/>
      <point x="435" y="-15"/>
      <point x="441" y="-7"/>
      <point x="446" y="6" type="curve" smooth="yes"/>
      <point x="546" y="247" type="line" smooth="yes"/>
      <point x="550" y="257"/>
      <point x="555" y="261"/>
      <point x="560" y="249" type="curve" smooth="yes"/>
      <point x="664" y="5" type="line"/>
      <point x="666" y="1"/>
      <point x="668" y="-5"/>
      <point x="670" y="-8" type="curve"/>
      <point x="680" y="-20"/>
      <point x="725" y="-18"/>
      <point x="738" y="-16" type="curve" smooth="yes"/>
      <point x="750" y="-14"/>
      <point x="755" y="0"/>
      <point x="757" y="5" type="curve" smooth="yes"/>
      <point x="957" y="520" type="line" smooth="yes"/>
      <point x="985" y="594"/>
      <point x="998" y="600"/>
      <point x="1050" y="600" type="curve" smooth="yes"/>
      <point x="1068" y="600"/>
      <point x="1072" y="618"/>
      <point x="1072" y="627" type="curve"/>
      <point x="1071" y="639"/>
      <point x="1063" y="652"/>
      <point x="1050" y="652" type="curve" smooth="yes"/>
      <point x="987" y="650"/>
      <point x="898" y="648"/>
      <point x="851" y="651" type="curve" smooth="yes"/>
      <point x="827" y="653"/>
      <point x="817" y="606"/>
      <point x="845" y="601" type="curve"/>
      <point x="902" y="599"/>
      <point x="906" y="595"/>
      <point x="882" y="533" type="curve" smooth="yes"/>
      <point x="732" y="146" type="line" smooth="yes"/>
      <point x="728" y="135"/>
      <point x="725" y="138"/>
      <point x="722" y="146" type="curve"/>
      <point x="722" y="146"/>
      <point x="658" y="297"/>
      <point x="615" y="399" type="curve" smooth="yes"/>
      <point x="612" y="406"/>
      <point x="613" y="414"/>
      <point x="615" y="418" type="curve"/>
      <point x="664" y="536" type="line" smooth="yes"/>
      <point x="687" y="591"/>
      <point x="695" y="597"/>
      <point x="755" y="598" type="curve" smooth="yes"/>
      <point x="759" y="598"/>
      <point x="765" y="598"/>
      <point x="769" y="600" type="curve"/>
      <point x="781" y="607"/>
      <point x="782" y="638"/>
      <point x="770" y="646" type="curve"/>
      <point x="762" y="650"/>
      <point x="758" y="652"/>
      <point x="749" y="651" type="curve"/>
      <point x="620" y="649"/>
      <point x="444" y="649"/>
      <point x="342" y="651" type="curve" smooth="yes"/>
      <point x="319" y="652"/>
      <point x="325" y="603"/>
      <point x="340" y="600" type="curve"/>
      <point x="410" y="597"/>
      <point x="413" y="594"/>
      <point x="437" y="537" type="curve" smooth="yes"/>
      <point x="507" y="375" type="line"/>
      <point x="509" y="369"/>
      <point x="508" y="354"/>
      <point x="505" y="347" type="curve" smooth="yes"/>
      <point x="426" y="156" type="line" smooth="yes"/>
      <point x="421" y="143"/>
      <point x="417" y="147"/>
      <point x="413" y="153" type="curve"/>
    </contour>
    <contour>
      <point x="591" y="599" type="curve"/>
      <point x="605" y="598"/>
      <point x="607" y="594"/>
      <point x="604" y="585" type="curve" smooth="yes"/>
      <point x="596" y="562"/>
      <point x="586" y="533"/>
      <point x="576" y="510" type="curve"/>
      <point x="573" y="502"/>
      <point x="570" y="500"/>
      <point x="565" y="510" type="curve"/>
      <point x="562" y="518"/>
      <point x="539" y="574"/>
      <point x="536" y="584" type="curve" smooth="yes"/>
      <point x="532" y="598"/>
      <point x="535" y="598"/>
      <point x="550" y="599" type="curve"/>
      <point x="564" y="599"/>
      <point x="581" y="598"/>
    </contour>
  </outline>
</glyph>
<glyph name="X" format="2">
  <advance width="785"/>
  <unicode hex="0058"/>
  <outline>
    <contour>
      <point x="752" y="-2" type="curve" smooth="yes"/>
      <point x="768" y="-3"/>
      <point x="773" y="14"/>
      <point x="773" y="22" type="curve" smooth="yes"/>
      <point x="773" y="33"/>
      <point x="767" y="47"/>
      <point x="755" y="48" type="curve" smooth="yes"/>
      <point x="670" y="58"/>
      <point x="667" y="75"/>
      <point x="622" y="134" type="curve" smooth="yes"/>
      <point x="618" y="139"/>
      <point x="511" y="286"/>
      <point x="451" y="353" type="curve"/>
      <point x="447" y="358"/>
      <point x="446" y="359"/>
      <point x="451" y="365" type="curve" smooth="yes"/>
      <point x="541" y="483" type="line" smooth="yes"/>
      <point x="591" y="547"/>
      <point x="630" y="594"/>
      <point x="711" y="599" type="curve"/>
      <point x="738" y="598"/>
      <point x="742" y="647"/>
      <point x="711" y="651" type="curve"/>
      <point x="630" y="647"/>
      <point x="561" y="650"/>
      <point x="480" y="650" type="curve" smooth="yes"/>
      <point x="474" y="650"/>
      <point x="466" y="648"/>
      <point x="462" y="644" type="curve"/>
      <point x="452" y="636"/>
      <point x="452" y="612"/>
      <point x="463" y="602" type="curve" smooth="yes"/>
      <point x="470" y="596"/>
      <point x="493" y="597"/>
      <point x="502" y="597" type="curve" smooth="yes"/>
      <point x="525" y="597"/>
      <point x="530" y="590"/>
      <point x="516" y="570" type="curve" smooth="yes"/>
      <point x="482" y="520"/>
      <point x="445" y="474"/>
      <point x="409" y="427" type="curve"/>
      <point x="409" y="427"/>
      <point x="401" y="418"/>
      <point x="398" y="421" type="curve"/>
      <point x="302" y="547" type="line" smooth="yes"/>
      <point x="294" y="557"/>
      <point x="284" y="571"/>
      <point x="280" y="581" type="curve" smooth="yes"/>
      <point x="275" y="592"/>
      <point x="277" y="596"/>
      <point x="285" y="597" type="curve" smooth="yes"/>
      <point x="294" y="598"/>
      <point x="306" y="598"/>
      <point x="327" y="599" type="curve" smooth="yes"/>
      <point x="335" y="599"/>
      <point x="341" y="601"/>
      <point x="347" y="603" type="curve"/>
      <point x="356" y="612"/>
      <point x="355" y="633"/>
      <point x="352" y="638" type="curve"/>
      <point x="346" y="652"/>
      <point x="333" y="652"/>
      <point x="326" y="652" type="curve"/>
      <point x="251" y="648"/>
      <point x="117" y="648"/>
      <point x="50" y="651" type="curve" smooth="yes"/>
      <point x="36" y="652"/>
      <point x="26" y="647"/>
      <point x="22" y="638" type="curve" smooth="yes"/>
      <point x="18" y="629"/>
      <point x="21" y="615"/>
      <point x="22" y="610" type="curve"/>
      <point x="25" y="599"/>
      <point x="41" y="592"/>
      <point x="47" y="592" type="curve" smooth="yes"/>
      <point x="86" y="591"/>
      <point x="104" y="589"/>
      <point x="120" y="579" type="curve"/>
      <point x="142" y="567"/>
      <point x="168" y="531"/>
      <point x="183" y="511" type="curve" smooth="yes"/>
      <point x="320" y="338" type="line"/>
      <point x="322" y="333"/>
      <point x="331" y="329"/>
      <point x="322" y="320" type="curve"/>
      <point x="261" y="244"/>
      <point x="205" y="176"/>
      <point x="145" y="99" type="curve" smooth="yes"/>
      <point x="117" y="62"/>
      <point x="91" y="55"/>
      <point x="42" y="51" type="curve" smooth="yes"/>
      <point x="28" y="50"/>
      <point x="22" y="34"/>
      <point x="22" y="25" type="curve" smooth="yes"/>
      <point x="22" y="15"/>
      <point x="28" y="-3"/>
      <point x="42" y="-2" type="curve" smooth="yes"/>
      <point x="111" y="1"/>
      <point x="222" y="-2"/>
      <point x="274" y="-3" type="curve" smooth="yes"/>
      <point x="302" y="-3"/>
      <point x="300" y="49"/>
      <point x="272" y="49" type="curve" smooth="yes"/>
      <point x="263" y="49" type="line" smooth="yes"/>
      <point x="237" y="49"/>
      <point x="225" y="52"/>
      <point x="220" y="55" type="curve"/>
      <point x="216" y="57"/>
      <point x="215" y="59"/>
      <point x="215" y="63" type="curve" smooth="yes"/>
      <point x="215" y="66"/>
      <point x="219" y="77"/>
      <point x="235" y="97" type="curve" smooth="yes"/>
      <point x="362" y="254" type="line" smooth="yes"/>
      <point x="373" y="268"/>
      <point x="373" y="271"/>
      <point x="384" y="256" type="curve" smooth="yes"/>
      <point x="496" y="106" type="line" smooth="yes"/>
      <point x="505" y="94"/>
      <point x="522" y="73"/>
      <point x="523" y="58" type="curve"/>
      <point x="523" y="50"/>
      <point x="501" y="49"/>
      <point x="489" y="49" type="curve" smooth="yes"/>
      <point x="476" y="49" type="line" smooth="yes"/>
      <point x="462" y="49"/>
      <point x="457" y="21"/>
      <point x="464" y="7" type="curve" smooth="yes"/>
      <point x="469" y="-2"/>
      <point x="477" y="-4"/>
      <point x="486" y="-3" type="curve"/>
      <point x="529" y="-1"/>
      <point x="700" y="0"/>
    </contour>
  </outline>
</glyph>
<glyph name="Z" format="2">
  <advance width="705"/>
  <unicode hex="005A"/>
  <outline>
    <contour>
      <point x="628" y="18" type="curve"/>
      <point x="633" y="63"/>
      <point x="640" y="149"/>
      <point x="642" y="198" type="curve" smooth="yes"/>
      <point x="642" y="206"/>
      <point x="638" y="211"/>
      <point x="625" y="211" type="curve" smooth="yes"/>
      <point x="620" y="211"/>
      <point x="609" y="212"/>
      <point x="601" y="211" type="curve"/>
      <point x="587" y="210"/>
      <point x="587" y="205"/>
      <point x="586" y="196" type="curve" smooth="yes"/>
      <point x="576" y="99"/>
      <point x="562" y="67"/>
      <point x="457" y="67" type="curve" smooth="yes"/>
      <point x="227" y="67" type="line" smooth="yes"/>
      <point x="224" y="67"/>
      <point x="196" y="67"/>
      <point x="201" y="72" type="curve"/>
      <point x="615" y="604" type="line"/>
      <point x="624" y="619"/>
      <point x="618" y="635"/>
      <point x="615" y="640" type="curve"/>
      <point x="610" y="651"/>
      <point x="594" y="650"/>
      <point x="585" y="650" type="curve" smooth="yes"/>
      <point x="117" y="650" type="line"/>
      <point x="106" y="648"/>
      <point x="89" y="643"/>
      <point x="86" y="632" type="curve"/>
      <point x="82" y="598"/>
      <point x="81" y="530"/>
      <point x="81" y="492" type="curve" smooth="yes"/>
      <point x="81" y="470"/>
      <point x="131" y="474"/>
      <point x="132" y="483" type="curve"/>
      <point x="133" y="488" type="line"/>
      <point x="144" y="579"/>
      <point x="153" y="583"/>
      <point x="246" y="583" type="curve" smooth="yes"/>
      <point x="448" y="583" type="line" smooth="yes"/>
      <point x="449" y="583"/>
      <point x="448" y="577"/>
      <point x="446" y="574" type="curve"/>
      <point x="38" y="45" type="line" smooth="yes"/>
      <point x="35" y="41"/>
      <point x="32" y="32"/>
      <point x="31" y="26" type="curve" smooth="yes"/>
      <point x="28" y="3"/>
      <point x="50" y="-2"/>
      <point x="61" y="-2" type="curve" smooth="yes"/>
      <point x="73" y="-2"/>
      <point x="167" y="-3"/>
      <point x="276" y="-3" type="curve" smooth="yes"/>
      <point x="388" y="-3"/>
      <point x="518" y="-2"/>
      <point x="588" y="-2" type="curve" smooth="yes"/>
      <point x="597" y="-2"/>
      <point x="625" y="5"/>
    </contour>
  </outline>
</glyph>
<glyph name="bracketleft" format="2">
  <advance width="337"/>
  <unicode hex="005B"/>
  <outline>
    <contour>
      <point x="250" y="-227" type="curve" smooth="yes"/>
      <point x="261" y="-226"/>
      <point x="277" y="-228"/>
      <point x="277" y="-215" type="curve" smooth="yes"/>
      <point x="277" y="-199" type="line" smooth="yes"/>
      <point x="277" y="-184"/>
      <point x="274" y="-179"/>
      <point x="261" y="-178" type="curve" smooth="yes"/>
      <point x="235" y="-176" type="line" smooth="yes"/>
      <point x="199" y="-173"/>
      <point x="194" y="-174"/>
      <point x="194" y="-153" type="curve" smooth="yes"/>
      <point x="194" y="40"/>
      <point x="194" y="422"/>
      <point x="194" y="612" type="curve" smooth="yes"/>
      <point x="194" y="628"/>
      <point x="198" y="631"/>
      <point x="201" y="633" type="curve"/>
      <point x="210" y="638"/>
      <point x="248" y="639"/>
      <point x="260" y="640" type="curve" smooth="yes"/>
      <point x="270" y="641"/>
      <point x="277" y="644"/>
      <point x="277" y="656" type="curve" smooth="yes"/>
      <point x="277" y="676" type="line" smooth="yes"/>
      <point x="277" y="689"/>
      <point x="265" y="689"/>
      <point x="255" y="689" type="curve" smooth="yes"/>
      <point x="219" y="689"/>
      <point x="165" y="693"/>
      <point x="129" y="690" type="curve" smooth="yes"/>
      <point x="107" y="688"/>
      <point x="99" y="682"/>
      <point x="99" y="659" type="curve" smooth="yes"/>
      <point x="99" y="446"/>
      <point x="99" y="14"/>
      <point x="99" y="-199" type="curve" smooth="yes"/>
      <point x="99" y="-220"/>
      <point x="111" y="-228"/>
      <point x="128" y="-229" type="curve" smooth="yes"/>
      <point x="160" y="-230"/>
      <point x="218" y="-229"/>
    </contour>
  </outline>
</glyph>
<glyph name="backslash" format="2">
  <advance width="479"/>
  <unicode hex="005C"/>
  <outline>
    <contour>
      <point x="424" y="-14" type="line" smooth="yes"/>
      <point x="454" y="-11"/>
      <point x="446" y="10"/>
      <point x="440" y="23" type="curve" smooth="yes"/>
      <point x="130" y="654" type="line" smooth="yes"/>
      <point x="119" y="675"/>
      <point x="114" y="674"/>
      <point x="94" y="674" type="curve" smooth="yes"/>
      <point x="63" y="674" type="line" smooth="yes"/>
      <point x="44" y="674"/>
      <point x="26" y="665"/>
      <point x="36" y="645" type="curve" smooth="yes"/>
      <point x="351" y="2" type="line" smooth="yes"/>
      <point x="358" y="-12"/>
      <point x="364" y="-21"/>
      <point x="383" y="-19" type="curve" smooth="yes"/>
    </contour>
  </outline>
</glyph>
<glyph name="bracketright" format="2">
  <advance width="343"/>
  <unicode hex="005D"/>
  <outline>
    <contour>
      <point x="205" y="-199" type="curve" smooth="yes"/>
      <point x="205" y="14"/>
      <point x="205" y="441"/>
      <point x="205" y="654" type="curve" smooth="yes"/>
      <point x="205" y="677"/>
      <point x="198" y="688"/>
      <point x="175" y="690" type="curve" smooth="yes"/>
      <point x="145" y="692"/>
      <point x="86" y="690"/>
      <point x="54" y="690" type="curve" smooth="yes"/>
      <point x="43" y="690" type="line" smooth="yes"/>
      <point x="36" y="690"/>
      <point x="27" y="687"/>
      <point x="27" y="673" type="curve" smooth="yes"/>
      <point x="27" y="655" type="line" smooth="yes"/>
      <point x="27" y="642"/>
      <point x="36" y="641"/>
      <point x="44" y="640" type="curve"/>
      <point x="59" y="639"/>
      <point x="74" y="638"/>
      <point x="89" y="637" type="curve"/>
      <point x="106" y="635"/>
      <point x="109" y="634"/>
      <point x="110" y="614" type="curve" smooth="yes"/>
      <point x="113" y="421"/>
      <point x="111" y="39"/>
      <point x="110" y="-152" type="curve" smooth="yes"/>
      <point x="109" y="-176"/>
      <point x="95" y="-176"/>
      <point x="73" y="-177" type="curve"/>
      <point x="64" y="-178"/>
      <point x="49" y="-178"/>
      <point x="41" y="-180" type="curve" smooth="yes"/>
      <point x="33" y="-182"/>
      <point x="27" y="-186"/>
      <point x="27" y="-194" type="curve" smooth="yes"/>
      <point x="27" y="-210" type="line" smooth="yes"/>
      <point x="27" y="-223"/>
      <point x="38" y="-228"/>
      <point x="47" y="-229" type="curve" smooth="yes"/>
      <point x="79" y="-231"/>
      <point x="142" y="-230"/>
      <point x="174" y="-229" type="curve" smooth="yes"/>
      <point x="191" y="-228"/>
      <point x="205" y="-220"/>
    </contour>
  </outline>
</glyph>
<glyph name="asciicircum" format="2">
  <advance width="491"/>
  <unicode hex="005E"/>
  <outline>
    <contour>
      <point x="454" y="336" type="curve" smooth="yes"/>
      <point x="468" y="337"/>
      <point x="486" y="346"/>
      <point x="472" y="370" type="curve" smooth="yes"/>
      <point x="422" y="456"/>
      <point x="339" y="592"/>
      <point x="270" y="703" type="curve" smooth="yes"/>
      <point x="268" y="706"/>
      <point x="265" y="711"/>
      <point x="257" y="711" type="curve" smooth="yes"/>
      <point x="238" y="711" type="line" smooth="yes"/>
      <point x="232" y="711"/>
      <point x="228" y="706"/>
      <point x="227" y="703" type="curve"/>
      <point x="166" y="612"/>
      <point x="70" y="453"/>
      <point x="24" y="374" type="curve" smooth="yes"/>
      <point x="16" y="359"/>
      <point x="15" y="344"/>
      <point x="30" y="338" type="curve" smooth="yes"/>
      <point x="39" y="334"/>
      <point x="50" y="335"/>
      <point x="59" y="334" type="curve"/>
      <point x="74" y="334"/>
      <point x="84" y="335"/>
      <point x="94" y="351" type="curve" smooth="yes"/>
      <point x="130" y="412"/>
      <point x="197" y="525"/>
      <point x="238" y="588" type="curve" smooth="yes"/>
      <point x="245" y="598"/>
      <point x="249" y="599"/>
      <point x="256" y="588" type="curve" smooth="yes"/>
      <point x="297" y="524"/>
      <point x="362" y="418"/>
      <point x="398" y="355" type="curve" smooth="yes"/>
      <point x="414" y="328"/>
      <point x="426" y="333"/>
    </contour>
  </outline>
</glyph>
<glyph name="grave" format="2">
  <advance width="348"/>
  <unicode hex="0060"/>
  <outline>
    <contour>
      <point x="193" y="483" type="curve"/>
      <point x="205" y="473"/>
      <point x="236" y="473"/>
      <point x="234" y="497" type="curve"/>
      <point x="224" y="537"/>
      <point x="204" y="604"/>
      <point x="187" y="646" type="curve"/>
      <point x="179" y="658"/>
      <point x="169" y="658"/>
      <point x="160" y="658" type="curve" smooth="yes"/>
      <point x="88" y="657" type="line" smooth="yes"/>
      <point x="76" y="657"/>
      <point x="52" y="641"/>
      <point x="68" y="624" type="curve" smooth="yes"/>
      <point x="108" y="582"/>
      <point x="163" y="521"/>
    </contour>
  </outline>
</glyph>
<glyph name="a" format="2">
  <advance width="421"/>
  <unicode hex="0061"/>
  <outline>
    <contour>
      <point x="234" y="36" type="line"/>
      <point x="242" y="5"/>
      <point x="261" y="-12"/>
      <point x="292" y="-12" type="curve" smooth="yes"/>
      <point x="321" y="-12"/>
      <point x="362" y="11"/>
      <point x="404" y="48" type="curve"/>
      <point x="408" y="60"/>
      <point x="410" y="84"/>
      <point x="389" y="87" type="curve"/>
      <point x="381" y="87"/>
      <point x="379" y="86"/>
      <point x="373" y="82" type="curve"/>
      <point x="362" y="73"/>
      <point x="352" y="67"/>
      <point x="339" y="67" type="curve" smooth="yes"/>
      <point x="332" y="67"/>
      <point x="328" y="69"/>
      <point x="328" y="104" type="curve" smooth="yes"/>
      <point x="328" y="278" type="line" smooth="yes"/>
      <point x="328" y="338"/>
      <point x="327" y="348"/>
      <point x="309" y="372" type="curve" smooth="yes"/>
      <point x="285" y="406"/>
      <point x="237" y="431"/>
      <point x="192" y="431" type="curve" smooth="yes"/>
      <point x="158" y="431"/>
      <point x="131" y="418"/>
      <point x="94" y="390" type="curve" smooth="yes"/>
      <point x="57" y="361"/>
      <point x="29" y="330"/>
      <point x="29" y="301" type="curve" smooth="yes"/>
      <point x="29" y="273"/>
      <point x="44" y="270"/>
      <point x="65" y="277" type="curve" smooth="yes"/>
      <point x="72" y="279"/>
      <point x="120" y="299"/>
      <point x="132" y="313" type="curve"/>
      <point x="127" y="326"/>
      <point x="128" y="325"/>
      <point x="128" y="338" type="curve" smooth="yes"/>
      <point x="128" y="351"/>
      <point x="155" y="371"/>
      <point x="173" y="371" type="curve" smooth="yes"/>
      <point x="205" y="371"/>
      <point x="226" y="348"/>
      <point x="227" y="295" type="curve" smooth="yes"/>
      <point x="228" y="234" type="line" smooth="yes"/>
      <point x="228" y="230"/>
      <point x="225" y="227"/>
      <point x="223" y="225" type="curve"/>
      <point x="194" y="212"/>
      <point x="165" y="199"/>
      <point x="134" y="191" type="curve" smooth="yes"/>
      <point x="65" y="173"/>
      <point x="23" y="140"/>
      <point x="23" y="84" type="curve" smooth="yes"/>
      <point x="23" y="27"/>
      <point x="68" y="-12"/>
      <point x="128" y="-12" type="curve" smooth="yes"/>
      <point x="168" y="-12"/>
      <point x="190" y="1"/>
      <point x="234" y="35" type="curve"/>
    </contour>
    <contour>
      <point x="227" y="162" type="curve" smooth="yes"/>
      <point x="227" y="96" type="line"/>
      <point x="219" y="79"/>
      <point x="177" y="54"/>
      <point x="162" y="54" type="curve" smooth="yes"/>
      <point x="137" y="54"/>
      <point x="119" y="72"/>
      <point x="119" y="96" type="curve" smooth="yes"/>
      <point x="119" y="116"/>
      <point x="128" y="131"/>
      <point x="165" y="145" type="curve" smooth="yes"/>
      <point x="186" y="154"/>
      <point x="201" y="160"/>
      <point x="221" y="170" type="curve"/>
      <point x="224" y="171"/>
      <point x="227" y="166"/>
    </contour>
  </outline>
</glyph>
<glyph name="d" format="2">
  <advance width="521"/>
  <unicode hex="0064"/>
  <outline>
    <contour>
      <point x="324" y="38" type="curve"/>
      <point x="328" y="41"/>
      <point x="331" y="35"/>
      <point x="331" y="31" type="curve"/>
      <point x="330" y="14"/>
      <point x="337" y="-19"/>
      <point x="366" y="-10" type="curve" smooth="yes"/>
      <point x="400" y="0"/>
      <point x="463" y="23"/>
      <point x="496" y="39" type="curve"/>
      <point x="506" y="43"/>
      <point x="508" y="61"/>
      <point x="504" y="73" type="curve" smooth="yes"/>
      <point x="498" y="93"/>
      <point x="490" y="92"/>
      <point x="474" y="88" type="curve"/>
      <point x="469" y="86"/>
      <point x="450" y="79"/>
      <point x="445" y="79" type="curve" smooth="yes"/>
      <point x="429" y="79"/>
      <point x="429" y="81"/>
      <point x="429" y="124" type="curve" smooth="yes"/>
      <point x="429" y="713" type="line" smooth="yes"/>
      <point x="429" y="726"/>
      <point x="423" y="743"/>
      <point x="399" y="733" type="curve"/>
      <point x="360" y="719"/>
      <point x="311" y="703"/>
      <point x="277" y="692" type="curve"/>
      <point x="262" y="689"/>
      <point x="258" y="677"/>
      <point x="259" y="665" type="curve" smooth="yes"/>
      <point x="260" y="654"/>
      <point x="262" y="645"/>
      <point x="276" y="643" type="curve"/>
      <point x="289" y="642"/>
      <point x="319" y="642"/>
      <point x="329" y="636" type="curve"/>
      <point x="331" y="635"/>
      <point x="331" y="630"/>
      <point x="331" y="628" type="curve"/>
      <point x="332" y="609"/>
      <point x="333" y="479"/>
      <point x="331" y="441" type="curve"/>
      <point x="331" y="435"/>
      <point x="334" y="421"/>
      <point x="327" y="423" type="curve" smooth="yes"/>
      <point x="300" y="431"/>
      <point x="276" y="436"/>
      <point x="250" y="436" type="curve" smooth="yes"/>
      <point x="119" y="436"/>
      <point x="19" y="330"/>
      <point x="19" y="196" type="curve" smooth="yes"/>
      <point x="19" y="82"/>
      <point x="94" y="-15"/>
      <point x="193" y="-15" type="curve" smooth="yes"/>
      <point x="232" y="-15"/>
      <point x="271" y="3"/>
    </contour>
    <contour>
      <point x="330" y="309" type="curve"/>
      <point x="330" y="116" type="line" smooth="yes"/>
      <point x="330" y="109"/>
      <point x="327" y="103"/>
      <point x="326" y="102" type="curve"/>
      <point x="287" y="76"/>
      <point x="253" y="64"/>
      <point x="229" y="64" type="curve" smooth="yes"/>
      <point x="170" y="64"/>
      <point x="120" y="128"/>
      <point x="120" y="226" type="curve" smooth="yes"/>
      <point x="120" y="319"/>
      <point x="165" y="375"/>
      <point x="228" y="375" type="curve" smooth="yes"/>
      <point x="267" y="375"/>
      <point x="296" y="357"/>
    </contour>
  </outline>
</glyph>
<glyph name="g" format="2">
  <advance width="486"/>
  <unicode hex="0067"/>
  <outline>
    <contour>
      <point x="460" y="-65" type="curve" smooth="yes"/>
      <point x="460" y="56"/>
      <point x="334" y="57"/>
      <point x="244" y="58" type="curve" smooth="yes"/>
      <point x="187" y="58"/>
      <point x="159" y="61"/>
      <point x="145" y="65" type="curve" smooth="yes"/>
      <point x="124" y="71"/>
      <point x="137" y="82"/>
      <point x="148" y="91" type="curve" smooth="yes"/>
      <point x="156" y="98"/>
      <point x="165" y="104"/>
      <point x="172" y="112" type="curve"/>
      <point x="184" y="109"/>
      <point x="196" y="108"/>
      <point x="209" y="108" type="curve" smooth="yes"/>
      <point x="308" y="108"/>
      <point x="384" y="171"/>
      <point x="384" y="266" type="curve" smooth="yes"/>
      <point x="384" y="280"/>
      <point x="383" y="290"/>
      <point x="379" y="303" type="curve"/>
      <point x="379" y="302"/>
      <point x="378" y="311"/>
      <point x="383" y="310" type="curve"/>
      <point x="397" y="309"/>
      <point x="426" y="305"/>
      <point x="435" y="305" type="curve" smooth="yes"/>
      <point x="450" y="305"/>
      <point x="453" y="318"/>
      <point x="455" y="326" type="curve"/>
      <point x="456" y="344"/>
      <point x="453" y="362"/>
      <point x="452" y="379" type="curve" smooth="yes"/>
      <point x="450" y="401"/>
      <point x="439" y="401"/>
      <point x="421" y="399" type="curve"/>
      <point x="397" y="395"/>
      <point x="340" y="388"/>
      <point x="334" y="388" type="curve" smooth="yes"/>
      <point x="331" y="388" type="line"/>
      <point x="303" y="416"/>
      <point x="266" y="429"/>
      <point x="223" y="429" type="curve" smooth="yes"/>
      <point x="126" y="429"/>
      <point x="48" y="356"/>
      <point x="48" y="258" type="curve" smooth="yes"/>
      <point x="48" y="206"/>
      <point x="73" y="164"/>
      <point x="115" y="137" type="curve"/>
      <point x="115" y="137"/>
      <point x="121" y="134"/>
      <point x="117" y="131" type="curve"/>
      <point x="109" y="126"/>
      <point x="100" y="121"/>
      <point x="89" y="115" type="curve" smooth="yes"/>
      <point x="71" y="105"/>
      <point x="41" y="91"/>
      <point x="41" y="66" type="curve" smooth="yes"/>
      <point x="41" y="35"/>
      <point x="60" y="7"/>
      <point x="106" y="-12" type="curve"/>
      <point x="109" y="-13"/>
      <point x="107" y="-17"/>
      <point x="103" y="-20" type="curve"/>
      <point x="59" y="-47"/>
      <point x="23" y="-73"/>
      <point x="23" y="-133" type="curve" smooth="yes"/>
      <point x="23" y="-210"/>
      <point x="125" y="-250"/>
      <point x="191" y="-250" type="curve" smooth="yes"/>
      <point x="332" y="-250"/>
      <point x="460" y="-173"/>
    </contour>
    <contour>
      <point x="291" y="260" type="curve" smooth="yes"/>
      <point x="291" y="194"/>
      <point x="259" y="162"/>
      <point x="219" y="162" type="curve" smooth="yes"/>
      <point x="179" y="162"/>
      <point x="142" y="201"/>
      <point x="142" y="278" type="curve" smooth="yes"/>
      <point x="142" y="338"/>
      <point x="174" y="376"/>
      <point x="211" y="376" type="curve" smooth="yes"/>
      <point x="253" y="376"/>
      <point x="291" y="332"/>
    </contour>
    <contour>
      <point x="379" y="-91" type="curve" smooth="yes"/>
      <point x="379" y="-132"/>
      <point x="306" y="-180"/>
      <point x="245" y="-180" type="curve" smooth="yes"/>
      <point x="173" y="-180"/>
      <point x="116" y="-147"/>
      <point x="117" y="-107" type="curve" smooth="yes"/>
      <point x="117" y="-91"/>
      <point x="135" y="-68"/>
      <point x="148" y="-55" type="curve"/>
      <point x="156" y="-46"/>
      <point x="166" y="-39"/>
      <point x="174" y="-29" type="curve"/>
      <point x="213" y="-31"/>
      <point x="240" y="-29"/>
      <point x="281" y="-32" type="curve" smooth="yes"/>
      <point x="363" y="-38"/>
      <point x="379" y="-57"/>
    </contour>
  </outline>
</glyph>
<glyph name="h" format="2">
  <advance width="526"/>
  <unicode hex="0068"/>
  <outline>
    <contour>
      <point x="504" y="-2" type="curve" smooth="yes"/>
      <point x="516" y="-2"/>
      <point x="521" y="13"/>
      <point x="520" y="25" type="curve" smooth="yes"/>
      <point x="518" y="41"/>
      <point x="517" y="54"/>
      <point x="495" y="54" type="curve" smooth="yes"/>
      <point x="448" y="54"/>
      <point x="445" y="55"/>
      <point x="445" y="72" type="curve" smooth="yes"/>
      <point x="445" y="131"/>
      <point x="451" y="190"/>
      <point x="451" y="248" type="curve" smooth="yes"/>
      <point x="451" y="288"/>
      <point x="448" y="327"/>
      <point x="437" y="359" type="curve" smooth="yes"/>
      <point x="421" y="412"/>
      <point x="379" y="435"/>
      <point x="323" y="435" type="curve" smooth="yes"/>
      <point x="267" y="435"/>
      <point x="235" y="419"/>
      <point x="192" y="392" type="curve"/>
      <point x="188" y="390"/>
      <point x="186" y="406"/>
      <point x="186" y="408" type="curve" smooth="yes"/>
      <point x="186" y="702" type="line" smooth="yes"/>
      <point x="186" y="728"/>
      <point x="172" y="734"/>
      <point x="154" y="729" type="curve" smooth="yes"/>
      <point x="112" y="717"/>
      <point x="59" y="699"/>
      <point x="27" y="686" type="curve" smooth="yes"/>
      <point x="9" y="679"/>
      <point x="10" y="642"/>
      <point x="30" y="640" type="curve"/>
      <point x="43" y="638"/>
      <point x="55" y="637"/>
      <point x="69" y="635" type="curve"/>
      <point x="78" y="633"/>
      <point x="84" y="628"/>
      <point x="84" y="619" type="curve" smooth="yes"/>
      <point x="85" y="583" type="line"/>
      <point x="85" y="138" type="line" smooth="yes"/>
      <point x="85" y="57"/>
      <point x="80" y="55"/>
      <point x="45" y="52" type="curve"/>
      <point x="41" y="52"/>
      <point x="36" y="51"/>
      <point x="32" y="51" type="curve"/>
      <point x="23" y="49"/>
      <point x="19" y="50"/>
      <point x="16" y="44" type="curve"/>
      <point x="12" y="37"/>
      <point x="11" y="21"/>
      <point x="15" y="12" type="curve" smooth="yes"/>
      <point x="20" y="1"/>
      <point x="22" y="-4"/>
      <point x="32" y="-3" type="curve"/>
      <point x="88" y="-5"/>
      <point x="179" y="-1"/>
      <point x="230" y="-3" type="curve"/>
      <point x="246" y="-5"/>
      <point x="252" y="0"/>
      <point x="252" y="16" type="curve"/>
      <point x="251" y="21"/>
      <point x="252" y="28"/>
      <point x="252" y="33" type="curve"/>
      <point x="250" y="49"/>
      <point x="240" y="51"/>
      <point x="227" y="51" type="curve" smooth="yes"/>
      <point x="192" y="51"/>
      <point x="187" y="52"/>
      <point x="186" y="97" type="curve" smooth="yes"/>
      <point x="186" y="299" type="line" smooth="yes"/>
      <point x="186" y="306"/>
      <point x="185" y="328"/>
      <point x="193" y="332" type="curve"/>
      <point x="221" y="349"/>
      <point x="240" y="365"/>
      <point x="275" y="365" type="curve" smooth="yes"/>
      <point x="296" y="365"/>
      <point x="314" y="357"/>
      <point x="327" y="343" type="curve" smooth="yes"/>
      <point x="343" y="326"/>
      <point x="350" y="307"/>
      <point x="350" y="219" type="curve" smooth="yes"/>
      <point x="350" y="172"/>
      <point x="348" y="129"/>
      <point x="343" y="87" type="curve" smooth="yes"/>
      <point x="339" y="58"/>
      <point x="337" y="52"/>
      <point x="294" y="52" type="curve" smooth="yes"/>
      <point x="289" y="52" type="line" smooth="yes"/>
      <point x="272" y="52"/>
      <point x="269" y="32"/>
      <point x="269" y="24" type="curve"/>
      <point x="270" y="19"/>
      <point x="272" y="-2"/>
      <point x="296" y="-2" type="curve" smooth="yes"/>
      <point x="347" y="-1"/>
      <point x="406" y="-4"/>
    </contour>
  </outline>
</glyph>
<glyph name="i" format="2">
  <advance width="273"/>
  <unicode hex="0069"/>
  <outline>
    <contour>
      <point x="129" y="548" type="curve" smooth="yes"/>
      <point x="161" y="548"/>
      <point x="189" y="570"/>
      <point x="189" y="603" type="curve" smooth="yes"/>
      <point x="189" y="638"/>
      <point x="164" y="662"/>
      <point x="130" y="662" type="curve" smooth="yes"/>
      <point x="97" y="662"/>
      <point x="71" y="637"/>
      <point x="71" y="604" type="curve" smooth="yes"/>
      <point x="71" y="572"/>
      <point x="94" y="548"/>
    </contour>
    <contour>
      <point x="255" y="15" type="curve" smooth="yes"/>
      <point x="255" y="18"/>
      <point x="255" y="30"/>
      <point x="255" y="33" type="curve"/>
      <point x="253" y="48"/>
      <point x="242" y="54"/>
      <point x="227" y="53" type="curve"/>
      <point x="195" y="53"/>
      <point x="193" y="53"/>
      <point x="192" y="82" type="curve" smooth="yes"/>
      <point x="191" y="95"/>
      <point x="191" y="111"/>
      <point x="191" y="131" type="curve" smooth="yes"/>
      <point x="191" y="413" type="line" smooth="yes"/>
      <point x="191" y="431"/>
      <point x="186" y="455"/>
      <point x="153" y="444" type="curve" smooth="yes"/>
      <point x="113" y="431"/>
      <point x="69" y="415"/>
      <point x="34" y="402" type="curve"/>
      <point x="24" y="395"/>
      <point x="19" y="365"/>
      <point x="37" y="359" type="curve" smooth="yes"/>
      <point x="51" y="354"/>
      <point x="61" y="351"/>
      <point x="76" y="348" type="curve"/>
      <point x="79" y="347"/>
      <point x="89" y="346"/>
      <point x="91" y="343" type="curve"/>
      <point x="93" y="339"/>
      <point x="94" y="330"/>
      <point x="94" y="305" type="curve" smooth="yes"/>
      <point x="94" y="131" type="line" smooth="yes"/>
      <point x="94" y="113"/>
      <point x="94" y="98"/>
      <point x="94" y="87" type="curve"/>
      <point x="93" y="76"/>
      <point x="92" y="70"/>
      <point x="89" y="65" type="curve" smooth="yes"/>
      <point x="84" y="56"/>
      <point x="71" y="53"/>
      <point x="35" y="50" type="curve" smooth="yes"/>
      <point x="21" y="49"/>
      <point x="17" y="33"/>
      <point x="18" y="22" type="curve"/>
      <point x="20" y="11"/>
      <point x="28" y="-3"/>
      <point x="38" y="-3" type="curve" smooth="yes"/>
      <point x="87" y="-2"/>
      <point x="184" y="0"/>
      <point x="230" y="-3" type="curve" smooth="yes"/>
      <point x="244" y="-4"/>
      <point x="255" y="0"/>
    </contour>
  </outline>
</glyph>
<glyph name="j" format="2">
  <advance width="250"/>
  <unicode hex="006A"/>
  <outline>
    <contour>
      <point x="117" y="536" type="curve" smooth="yes"/>
      <point x="151" y="536"/>
      <point x="176" y="561"/>
      <point x="176" y="594" type="curve" smooth="yes"/>
      <point x="176" y="626"/>
      <point x="152" y="651"/>
      <point x="117" y="651" type="curve" smooth="yes"/>
      <point x="84" y="651"/>
      <point x="57" y="627"/>
      <point x="57" y="594" type="curve" smooth="yes"/>
      <point x="57" y="561"/>
      <point x="83" y="536"/>
    </contour>
    <contour>
      <point x="159" y="-129" type="curve" smooth="yes"/>
      <point x="177" y="-86"/>
      <point x="179" y="-56"/>
      <point x="179" y="29" type="curve" smooth="yes"/>
      <point x="179" y="420" type="line" smooth="yes"/>
      <point x="179" y="431"/>
      <point x="173" y="459"/>
      <point x="145" y="449" type="curve" smooth="yes"/>
      <point x="79" y="427"/>
      <point x="30" y="407"/>
      <point x="23" y="404" type="curve" smooth="yes"/>
      <point x="12" y="399"/>
      <point x="7" y="366"/>
      <point x="25" y="360" type="curve"/>
      <point x="33" y="358"/>
      <point x="43" y="356"/>
      <point x="54" y="353" type="curve"/>
      <point x="83" y="347"/>
      <point x="83" y="348"/>
      <point x="83" y="306" type="curve" smooth="yes"/>
      <point x="83" y="-8" type="line"/>
      <point x="83" y="-69" type="line" smooth="yes"/>
      <point x="83" y="-154"/>
      <point x="63" y="-175"/>
      <point x="32" y="-175" type="curve" smooth="yes"/>
      <point x="15" y="-175"/>
      <point x="-4" y="-163"/>
      <point x="-16" y="-148" type="curve" smooth="yes"/>
      <point x="-28" y="-134"/>
      <point x="-44" y="-115"/>
      <point x="-64" y="-115" type="curve" smooth="yes"/>
      <point x="-93" y="-115"/>
      <point x="-109" y="-150"/>
      <point x="-109" y="-177" type="curve" smooth="yes"/>
      <point x="-109" y="-220"/>
      <point x="-59" y="-244"/>
      <point x="-4" y="-244" type="curve" smooth="yes"/>
      <point x="44" y="-244"/>
      <point x="85" y="-229"/>
      <point x="117" y="-194" type="curve" smooth="yes"/>
      <point x="134" y="-175"/>
      <point x="149" y="-154"/>
    </contour>
  </outline>
</glyph>
<glyph name="k" format="2">
  <advance width="518"/>
  <unicode hex="006B"/>
  <outline>
    <contour>
      <point x="174" y="186" type="line"/>
      <point x="172" y="195"/>
      <point x="173" y="198"/>
      <point x="180" y="191" type="curve" smooth="yes"/>
      <point x="289" y="75" type="line" smooth="yes"/>
      <point x="310" y="54"/>
      <point x="311" y="49"/>
      <point x="285" y="49" type="curve" smooth="yes"/>
      <point x="268" y="49"/>
      <point x="260" y="46"/>
      <point x="260" y="30" type="curve" smooth="yes"/>
      <point x="260" y="25"/>
      <point x="261" y="10"/>
      <point x="264" y="5" type="curve"/>
      <point x="267" y="-1"/>
      <point x="273" y="-3"/>
      <point x="279" y="-3" type="curve" smooth="yes"/>
      <point x="330" y="-1"/>
      <point x="436" y="0"/>
      <point x="490" y="-3" type="curve" smooth="yes"/>
      <point x="508" y="-4"/>
      <point x="517" y="39"/>
      <point x="493" y="49" type="curve"/>
      <point x="481" y="49" type="line" smooth="yes"/>
      <point x="452" y="49"/>
      <point x="442" y="57"/>
      <point x="421" y="79" type="curve" smooth="yes"/>
      <point x="360" y="139"/>
      <point x="303" y="198"/>
      <point x="244" y="258" type="curve" smooth="yes"/>
      <point x="241" y="261"/>
      <point x="242" y="261"/>
      <point x="244" y="265" type="curve"/>
      <point x="279" y="289"/>
      <point x="309" y="310"/>
      <point x="342" y="335" type="curve" smooth="yes"/>
      <point x="383" y="365"/>
      <point x="412" y="377"/>
      <point x="457" y="378" type="curve" smooth="yes"/>
      <point x="466" y="378"/>
      <point x="473" y="396"/>
      <point x="473" y="405" type="curve" smooth="yes"/>
      <point x="473" y="414"/>
      <point x="468" y="431"/>
      <point x="452" y="431" type="curve" smooth="yes"/>
      <point x="407" y="430"/>
      <point x="331" y="429"/>
      <point x="271" y="430" type="curve" smooth="yes"/>
      <point x="253" y="430"/>
      <point x="248" y="421"/>
      <point x="247" y="407" type="curve" smooth="yes"/>
      <point x="245" y="387"/>
      <point x="254" y="382"/>
      <point x="270" y="380" type="curve"/>
      <point x="274" y="380"/>
      <point x="278" y="380"/>
      <point x="287" y="380" type="curve"/>
      <point x="297" y="379"/>
      <point x="299" y="377"/>
      <point x="295" y="373" type="curve" smooth="yes"/>
      <point x="292" y="370"/>
      <point x="286" y="366"/>
      <point x="280" y="362" type="curve" smooth="yes"/>
      <point x="177" y="287" type="line" smooth="yes"/>
      <point x="172" y="283"/>
      <point x="173" y="298"/>
      <point x="173" y="302" type="curve" smooth="yes"/>
      <point x="173" y="695" type="line" smooth="yes"/>
      <point x="173" y="720"/>
      <point x="162" y="730"/>
      <point x="138" y="722" type="curve" smooth="yes"/>
      <point x="92" y="705"/>
      <point x="74" y="698"/>
      <point x="22" y="680" type="curve" smooth="yes"/>
      <point x="17" y="678"/>
      <point x="10" y="673"/>
      <point x="9" y="665" type="curve" smooth="yes"/>
      <point x="7" y="652"/>
      <point x="9" y="639"/>
      <point x="25" y="635" type="curve"/>
      <point x="30" y="635"/>
      <point x="47" y="630"/>
      <point x="49" y="630" type="curve"/>
      <point x="71" y="625"/>
      <point x="75" y="624"/>
      <point x="75" y="603" type="curve"/>
      <point x="76" y="591"/>
      <point x="76" y="582"/>
      <point x="76" y="567" type="curve" smooth="yes"/>
      <point x="76" y="138" type="line" smooth="yes"/>
      <point x="76" y="55"/>
      <point x="75" y="51"/>
      <point x="36" y="51" type="curve" smooth="yes"/>
      <point x="22" y="51"/>
      <point x="16" y="48"/>
      <point x="12" y="40" type="curve"/>
      <point x="8" y="30"/>
      <point x="9" y="14"/>
      <point x="14" y="5" type="curve" smooth="yes"/>
      <point x="18" y="-3"/>
      <point x="25" y="-3"/>
      <point x="29" y="-3" type="curve"/>
      <point x="80" y="0"/>
      <point x="176" y="-2"/>
      <point x="224" y="-3" type="curve" smooth="yes"/>
      <point x="236" y="-3"/>
      <point x="240" y="12"/>
      <point x="240" y="23" type="curve" smooth="yes"/>
      <point x="240" y="34"/>
      <point x="236" y="50"/>
      <point x="225" y="50" type="curve" smooth="yes"/>
      <point x="215" y="50"/>
      <point x="209" y="49"/>
      <point x="199" y="50" type="curve"/>
      <point x="184" y="50"/>
      <point x="179" y="55"/>
      <point x="176" y="62" type="curve"/>
      <point x="173" y="71"/>
      <point x="174" y="87"/>
      <point x="174" y="97" type="curve" smooth="yes"/>
      <point x="173" y="130"/>
      <point x="173" y="153"/>
      <point x="173" y="186" type="curve"/>
    </contour>
  </outline>
</glyph>
<glyph name="l" format="2">
  <advance width="269"/>
  <unicode hex="006C"/>
  <outline>
    <contour>
      <point x="236" y="-2" type="curve" smooth="yes"/>
      <point x="253" y="-2"/>
      <point x="255" y="11"/>
      <point x="255" y="23" type="curve" smooth="yes"/>
      <point x="255" y="28"/>
      <point x="256" y="32"/>
      <point x="255" y="37" type="curve" smooth="yes"/>
      <point x="252" y="51"/>
      <point x="238" y="51"/>
      <point x="227" y="51" type="curve" smooth="yes"/>
      <point x="188" y="51"/>
      <point x="189" y="55"/>
      <point x="189" y="105" type="curve" smooth="yes"/>
      <point x="189" y="689" type="line" smooth="yes"/>
      <point x="189" y="713"/>
      <point x="180" y="722"/>
      <point x="163" y="720" type="curve"/>
      <point x="110" y="704"/>
      <point x="60" y="685"/>
      <point x="34" y="675" type="curve" smooth="yes"/>
      <point x="15" y="668"/>
      <point x="17" y="636"/>
      <point x="36" y="632" type="curve" smooth="yes"/>
      <point x="52" y="628"/>
      <point x="68" y="626"/>
      <point x="84" y="623" type="curve" smooth="yes"/>
      <point x="90" y="622"/>
      <point x="91" y="617"/>
      <point x="91" y="611" type="curve" smooth="yes"/>
      <point x="91" y="104" type="line" smooth="yes"/>
      <point x="91" y="57"/>
      <point x="86" y="50"/>
      <point x="43" y="51" type="curve" smooth="yes"/>
      <point x="36" y="51" type="line" smooth="yes"/>
      <point x="34" y="51"/>
      <point x="32" y="51"/>
      <point x="29" y="50" type="curve" smooth="yes"/>
      <point x="16" y="46"/>
      <point x="14" y="24"/>
      <point x="17" y="13" type="curve"/>
      <point x="19" y="3"/>
      <point x="34" y="-2"/>
      <point x="38" y="-2" type="curve" smooth="yes"/>
      <point x="106" y="0"/>
      <point x="146" y="-1"/>
    </contour>
  </outline>
</glyph>
<glyph name="m" format="2">
  <advance width="815"/>
  <unicode hex="006D"/>
  <outline>
    <contour>
      <point x="192" y="370" type="curve"/>
      <point x="188" y="367"/>
      <point x="186" y="369"/>
      <point x="186" y="373" type="curve" smooth="yes"/>
      <point x="186" y="412" type="line" smooth="yes"/>
      <point x="186" y="426"/>
      <point x="181" y="444"/>
      <point x="158" y="439" type="curve" smooth="yes"/>
      <point x="112" y="427"/>
      <point x="55" y="410"/>
      <point x="27" y="397" type="curve" smooth="yes"/>
      <point x="25" y="396"/>
      <point x="20" y="393"/>
      <point x="18" y="387" type="curve" smooth="yes"/>
      <point x="14" y="374"/>
      <point x="14" y="354"/>
      <point x="30" y="352" type="curve" smooth="yes"/>
      <point x="53" y="349" type="line" smooth="yes"/>
      <point x="77" y="346"/>
      <point x="82" y="344"/>
      <point x="85" y="339" type="curve"/>
      <point x="85" y="338"/>
      <point x="86" y="327"/>
      <point x="86" y="272" type="curve" smooth="yes"/>
      <point x="86" y="136" type="line" smooth="yes"/>
      <point x="86" y="53"/>
      <point x="78" y="51"/>
      <point x="45" y="50" type="curve" smooth="yes"/>
      <point x="39" y="50"/>
      <point x="34" y="49"/>
      <point x="29" y="48" type="curve" smooth="yes"/>
      <point x="24" y="47"/>
      <point x="20" y="46"/>
      <point x="17" y="43" type="curve"/>
      <point x="11" y="35"/>
      <point x="10" y="15"/>
      <point x="15" y="6" type="curve"/>
      <point x="18" y="-1"/>
      <point x="26" y="-3"/>
      <point x="34" y="-3" type="curve" smooth="yes"/>
      <point x="91" y="-1"/>
      <point x="191" y="-1"/>
      <point x="240" y="-3" type="curve" smooth="yes"/>
      <point x="248" y="-3"/>
      <point x="254" y="1"/>
      <point x="256" y="14" type="curve"/>
      <point x="256" y="27"/>
      <point x="255" y="45"/>
      <point x="249" y="46" type="curve" smooth="yes"/>
      <point x="242" y="47"/>
      <point x="241" y="49"/>
      <point x="233" y="48" type="curve"/>
      <point x="190" y="48"/>
      <point x="186" y="52"/>
      <point x="186" y="95" type="curve" smooth="yes"/>
      <point x="186" y="310" type="line"/>
      <point x="216" y="330"/>
      <point x="262" y="361"/>
      <point x="300" y="361" type="curve" smooth="yes"/>
      <point x="332" y="361"/>
      <point x="355" y="338"/>
      <point x="355" y="291" type="curve" smooth="yes"/>
      <point x="355" y="136" type="line" smooth="yes"/>
      <point x="355" y="50"/>
      <point x="348" y="49"/>
      <point x="306" y="49" type="curve" smooth="yes"/>
      <point x="304" y="49"/>
      <point x="301" y="49"/>
      <point x="299" y="49" type="curve" smooth="yes"/>
      <point x="268" y="48"/>
      <point x="270" y="-2"/>
      <point x="296" y="-2" type="curve" smooth="yes"/>
      <point x="350" y="-1"/>
      <point x="451" y="-2"/>
      <point x="501" y="-3" type="curve" smooth="yes"/>
      <point x="516" y="-3"/>
      <point x="520" y="16"/>
      <point x="520" y="24" type="curve"/>
      <point x="519" y="39"/>
      <point x="514" y="48"/>
      <point x="497" y="48" type="curve" smooth="yes"/>
      <point x="460" y="48"/>
      <point x="454" y="53"/>
      <point x="454" y="95" type="curve" smooth="yes"/>
      <point x="454" y="310" type="line"/>
      <point x="503" y="342"/>
      <point x="539" y="361"/>
      <point x="563" y="361" type="curve" smooth="yes"/>
      <point x="604" y="361"/>
      <point x="621" y="344"/>
      <point x="621" y="221" type="curve" smooth="yes"/>
      <point x="621" y="164"/>
      <point x="621" y="127"/>
      <point x="618" y="88" type="curve" smooth="yes"/>
      <point x="615" y="53"/>
      <point x="609" y="48"/>
      <point x="572" y="48" type="curve" smooth="yes"/>
      <point x="560" y="48"/>
      <point x="555" y="50"/>
      <point x="549" y="40" type="curve" smooth="yes"/>
      <point x="544" y="31"/>
      <point x="546" y="10"/>
      <point x="550" y="5" type="curve"/>
      <point x="553" y="0"/>
      <point x="560" y="-3"/>
      <point x="568" y="-3" type="curve" smooth="yes"/>
      <point x="637" y="-2"/>
      <point x="716" y="0"/>
      <point x="786" y="-3" type="curve" smooth="yes"/>
      <point x="797" y="-3"/>
      <point x="805" y="4"/>
      <point x="805" y="16" type="curve"/>
      <point x="806" y="24"/>
      <point x="807" y="43"/>
      <point x="798" y="48" type="curve"/>
      <point x="791" y="53"/>
      <point x="779" y="52"/>
      <point x="773" y="52" type="curve" smooth="yes"/>
      <point x="722" y="52"/>
      <point x="719" y="55"/>
      <point x="719" y="78" type="curve" smooth="yes"/>
      <point x="719" y="128"/>
      <point x="723" y="178"/>
      <point x="723" y="229" type="curve" smooth="yes"/>
      <point x="723" y="305"/>
      <point x="721" y="335"/>
      <point x="708" y="366" type="curve" smooth="yes"/>
      <point x="690" y="405"/>
      <point x="652" y="429"/>
      <point x="606" y="429" type="curve" smooth="yes"/>
      <point x="545" y="429"/>
      <point x="496" y="394"/>
      <point x="449" y="361" type="curve"/>
      <point x="447" y="360"/>
      <point x="446" y="358"/>
      <point x="445" y="360" type="curve"/>
      <point x="429" y="403"/>
      <point x="391" y="429"/>
      <point x="343" y="429" type="curve" smooth="yes"/>
      <point x="287" y="429"/>
      <point x="234" y="398"/>
    </contour>
  </outline>
</glyph>
<glyph name="n" format="2">
  <advance width="519"/>
  <unicode hex="006E"/>
  <outline>
    <contour>
      <point x="499" y="0" type="curve" smooth="yes"/>
      <point x="514" y="7"/>
      <point x="511" y="34"/>
      <point x="506" y="43" type="curve"/>
      <point x="499" y="51"/>
      <point x="488" y="53"/>
      <point x="479" y="50" type="curve"/>
      <point x="446" y="50"/>
      <point x="443" y="53"/>
      <point x="443" y="74" type="curve" smooth="yes"/>
      <point x="443" y="132"/>
      <point x="451" y="189"/>
      <point x="451" y="247" type="curve" smooth="yes"/>
      <point x="451" y="313"/>
      <point x="441" y="429"/>
      <point x="332" y="429" type="curve" smooth="yes"/>
      <point x="283" y="429"/>
      <point x="229" y="394"/>
      <point x="189" y="367" type="curve" smooth="yes"/>
      <point x="183" y="363"/>
      <point x="182" y="364"/>
      <point x="182" y="373" type="curve" smooth="yes"/>
      <point x="182" y="415" type="line" smooth="yes"/>
      <point x="182" y="439"/>
      <point x="172" y="446"/>
      <point x="147" y="441" type="curve" smooth="yes"/>
      <point x="137" y="439"/>
      <point x="127" y="435"/>
      <point x="116" y="431" type="curve" smooth="yes"/>
      <point x="90" y="421"/>
      <point x="57" y="409"/>
      <point x="30" y="400" type="curve"/>
      <point x="19" y="395"/>
      <point x="9" y="359"/>
      <point x="31" y="354" type="curve" smooth="yes"/>
      <point x="51" y="350" type="line" smooth="yes"/>
      <point x="79" y="345"/>
      <point x="80" y="344"/>
      <point x="82" y="341" type="curve"/>
      <point x="83" y="338"/>
      <point x="85" y="325"/>
      <point x="85" y="268" type="curve" smooth="yes"/>
      <point x="85" y="137" type="line" smooth="yes"/>
      <point x="85" y="51"/>
      <point x="74" y="48"/>
      <point x="39" y="48" type="curve" smooth="yes"/>
      <point x="34" y="48" type="line" smooth="yes"/>
      <point x="27" y="48"/>
      <point x="21" y="44"/>
      <point x="17" y="38" type="curve"/>
      <point x="15" y="33"/>
      <point x="16" y="11"/>
      <point x="18" y="6" type="curve" smooth="yes"/>
      <point x="21" y="-1"/>
      <point x="25" y="-1"/>
      <point x="35" y="-2" type="curve"/>
      <point x="99" y="-5"/>
      <point x="163" y="-1"/>
      <point x="226" y="-3" type="curve"/>
      <point x="236" y="-2"/>
      <point x="243" y="-2"/>
      <point x="246" y="6" type="curve"/>
      <point x="249" y="12"/>
      <point x="249" y="24"/>
      <point x="249" y="32" type="curve"/>
      <point x="247" y="44"/>
      <point x="239" y="50"/>
      <point x="231" y="50" type="curve" smooth="yes"/>
      <point x="187" y="50"/>
      <point x="182" y="52"/>
      <point x="182" y="95" type="curve" smooth="yes"/>
      <point x="182" y="306" type="line"/>
      <point x="224" y="336"/>
      <point x="269" y="357"/>
      <point x="292" y="357" type="curve" smooth="yes"/>
      <point x="330" y="357"/>
      <point x="353" y="333"/>
      <point x="353" y="261" type="curve" smooth="yes"/>
      <point x="353" y="205"/>
      <point x="353" y="149"/>
      <point x="347" y="94" type="curve" smooth="yes"/>
      <point x="343" y="61"/>
      <point x="336" y="53"/>
      <point x="297" y="50" type="curve"/>
      <point x="291" y="50" type="line" smooth="yes"/>
      <point x="277" y="50"/>
      <point x="274" y="28"/>
      <point x="274" y="19" type="curve"/>
      <point x="275" y="2"/>
      <point x="279" y="-3"/>
      <point x="299" y="-2" type="curve" smooth="yes"/>
      <point x="350" y="-1"/>
      <point x="436" y="-3"/>
      <point x="484" y="-2" type="curve" smooth="yes"/>
      <point x="489" y="-2"/>
      <point x="495" y="-2"/>
    </contour>
  </outline>
</glyph>
<glyph name="r" format="2">
  <advance width="363"/>
  <unicode hex="0072"/>
  <outline>
    <contour>
      <point x="318" y="312" type="curve"/>
      <point x="332" y="337"/>
      <point x="343" y="359"/>
      <point x="350" y="381" type="curve" smooth="yes"/>
      <point x="355" y="395"/>
      <point x="341" y="403"/>
      <point x="335" y="405" type="curve" smooth="yes"/>
      <point x="332" y="406"/>
      <point x="329" y="407"/>
      <point x="326" y="408" type="curve"/>
      <point x="290" y="416"/>
      <point x="260" y="439"/>
      <point x="221" y="419" type="curve" smooth="yes"/>
      <point x="206" y="411"/>
      <point x="194" y="372"/>
      <point x="187" y="357" type="curve"/>
      <point x="187" y="371"/>
      <point x="187" y="400"/>
      <point x="186" y="414" type="curve"/>
      <point x="186" y="428"/>
      <point x="175" y="442"/>
      <point x="154" y="434" type="curve" smooth="yes"/>
      <point x="97" y="413"/>
      <point x="74" y="409"/>
      <point x="39" y="391" type="curve"/>
      <point x="30" y="388"/>
      <point x="25" y="382"/>
      <point x="25" y="371" type="curve" smooth="yes"/>
      <point x="25" y="357" type="line"/>
      <point x="26" y="346"/>
      <point x="31" y="346"/>
      <point x="40" y="342" type="curve" smooth="yes"/>
      <point x="55" y="336"/>
      <point x="75" y="329"/>
      <point x="87" y="324" type="curve"/>
      <point x="89" y="323"/>
      <point x="90" y="310"/>
      <point x="90" y="308" type="curve" smooth="yes"/>
      <point x="90" y="136" type="line" smooth="yes"/>
      <point x="90" y="52"/>
      <point x="80" y="49"/>
      <point x="45" y="49" type="curve" smooth="yes"/>
      <point x="23" y="49"/>
      <point x="22" y="40"/>
      <point x="22" y="23" type="curve" smooth="yes"/>
      <point x="22" y="12"/>
      <point x="23" y="-4"/>
      <point x="44" y="-3" type="curve" smooth="yes"/>
      <point x="115" y="1"/>
      <point x="186" y="-3"/>
      <point x="256" y="-3" type="curve" smooth="yes"/>
      <point x="260" y="-3"/>
      <point x="265" y="-3"/>
      <point x="269" y="0" type="curve"/>
      <point x="280" y="10"/>
      <point x="282" y="50"/>
      <point x="257" y="50" type="curve" smooth="yes"/>
      <point x="236" y="50" type="line" smooth="yes"/>
      <point x="193" y="50"/>
      <point x="192" y="52"/>
      <point x="190" y="95" type="curve" smooth="yes"/>
      <point x="190" y="120"/>
      <point x="189" y="123"/>
      <point x="189" y="143" type="curve" smooth="yes"/>
      <point x="189" y="162"/>
      <point x="189" y="197"/>
      <point x="189" y="283" type="curve"/>
      <point x="214" y="328"/>
      <point x="230" y="336"/>
      <point x="242" y="336" type="curve" smooth="yes"/>
      <point x="252" y="336"/>
      <point x="260" y="332"/>
      <point x="272" y="326" type="curve" smooth="yes"/>
      <point x="290" y="317"/>
      <point x="297" y="314"/>
    </contour>
  </outline>
</glyph>
<glyph name="v" format="2">
  <advance width="512"/>
  <unicode hex="0076"/>
  <outline>
    <contour>
      <point x="489" y="370" type="curve" smooth="yes"/>
      <point x="497" y="371"/>
      <point x="503" y="384"/>
      <point x="504" y="394" type="curve"/>
      <point x="504" y="405"/>
      <point x="499" y="419"/>
      <point x="486" y="419" type="curve" smooth="yes"/>
      <point x="432" y="418"/>
      <point x="357" y="418"/>
      <point x="312" y="419" type="curve" smooth="yes"/>
      <point x="306" y="419"/>
      <point x="299" y="416"/>
      <point x="297" y="408" type="curve"/>
      <point x="294" y="399"/>
      <point x="295" y="385"/>
      <point x="298" y="378" type="curve" smooth="yes"/>
      <point x="301" y="370"/>
      <point x="306" y="369"/>
      <point x="314" y="369" type="curve" smooth="yes"/>
      <point x="325" y="369"/>
      <point x="383" y="366"/>
      <point x="367" y="333" type="curve" smooth="yes"/>
      <point x="343" y="283"/>
      <point x="305" y="188"/>
      <point x="282" y="135" type="curve"/>
      <point x="279" y="126"/>
      <point x="277" y="121"/>
      <point x="272" y="132" type="curve" smooth="yes"/>
      <point x="258" y="162"/>
      <point x="179" y="346"/>
      <point x="179" y="359" type="curve" smooth="yes"/>
      <point x="179" y="367"/>
      <point x="180" y="369"/>
      <point x="217" y="369" type="curve" smooth="yes"/>
      <point x="226" y="369" type="line" smooth="yes"/>
      <point x="238" y="369"/>
      <point x="244" y="383"/>
      <point x="244" y="394" type="curve" smooth="yes"/>
      <point x="244" y="404"/>
      <point x="238" y="419"/>
      <point x="228" y="419" type="curve" smooth="yes"/>
      <point x="165" y="416"/>
      <point x="42" y="421"/>
      <point x="22" y="419" type="curve"/>
      <point x="18" y="419"/>
      <point x="14" y="416"/>
      <point x="12" y="411" type="curve"/>
      <point x="3" y="398"/>
      <point x="4" y="373"/>
      <point x="25" y="369" type="curve" smooth="yes"/>
      <point x="51" y="365"/>
      <point x="62" y="366"/>
      <point x="75" y="339" type="curve" smooth="yes"/>
      <point x="79" y="331"/>
      <point x="84" y="318"/>
      <point x="94" y="296" type="curve" smooth="yes"/>
      <point x="221" y="11" type="line" smooth="yes"/>
      <point x="225" y="3"/>
      <point x="226" y="-4"/>
      <point x="237" y="-8" type="curve"/>
      <point x="243" y="-11"/>
      <point x="266" y="-11"/>
      <point x="273" y="-10" type="curve" smooth="yes"/>
      <point x="284" y="-8"/>
      <point x="286" y="0"/>
      <point x="290" y="7" type="curve"/>
      <point x="410" y="276" type="line" smooth="yes"/>
      <point x="445" y="357"/>
      <point x="454" y="366"/>
    </contour>
  </outline>
</glyph>
<glyph name="w" format="2">
  <advance width="769"/>
  <unicode hex="0077"/>
  <outline>
    <contour>
      <point x="546" y="137" type="curve" smooth="yes"/>
      <point x="544" y="132"/>
      <point x="540" y="127"/>
      <point x="537" y="136" type="curve"/>
      <point x="462" y="310" type="line" smooth="yes"/>
      <point x="450" y="338"/>
      <point x="448" y="346"/>
      <point x="448" y="353" type="curve" smooth="yes"/>
      <point x="448" y="361"/>
      <point x="453" y="366"/>
      <point x="493" y="367" type="curve"/>
      <point x="506" y="376"/>
      <point x="510" y="420"/>
      <point x="478" y="417" type="curve"/>
      <point x="472" y="416" type="line"/>
      <point x="419" y="411"/>
      <point x="322" y="416"/>
      <point x="277" y="417" type="curve" smooth="yes"/>
      <point x="266" y="417"/>
      <point x="261" y="402"/>
      <point x="262" y="391" type="curve"/>
      <point x="262" y="381"/>
      <point x="269" y="367"/>
      <point x="279" y="367" type="curve" smooth="yes"/>
      <point x="286" y="367"/>
      <point x="286" y="367"/>
      <point x="292" y="366" type="curve"/>
      <point x="308" y="366"/>
      <point x="316" y="363"/>
      <point x="328" y="352" type="curve" smooth="yes"/>
      <point x="339" y="341"/>
      <point x="348" y="322"/>
      <point x="355" y="308" type="curve"/>
      <point x="280" y="134" type="line"/>
      <point x="276" y="126"/>
      <point x="273" y="124"/>
      <point x="269" y="134" type="curve" smooth="yes"/>
      <point x="248" y="185"/>
      <point x="182" y="340"/>
      <point x="182" y="356" type="curve" smooth="yes"/>
      <point x="182" y="361"/>
      <point x="183" y="367"/>
      <point x="220" y="368" type="curve" smooth="yes"/>
      <point x="237" y="369"/>
      <point x="237" y="390"/>
      <point x="234" y="401" type="curve"/>
      <point x="230" y="413"/>
      <point x="226" y="417"/>
      <point x="214" y="417" type="curve" smooth="yes"/>
      <point x="151" y="414"/>
      <point x="93" y="416"/>
      <point x="31" y="416" type="curve"/>
      <point x="23" y="417"/>
      <point x="18" y="418"/>
      <point x="12" y="409" type="curve" smooth="yes"/>
      <point x="5" y="398"/>
      <point x="6" y="368"/>
      <point x="21" y="367" type="curve" smooth="yes"/>
      <point x="64" y="364"/>
      <point x="68" y="363"/>
      <point x="98" y="293" type="curve" smooth="yes"/>
      <point x="218" y="7" type="line" smooth="yes"/>
      <point x="222" y="-2"/>
      <point x="224" y="-8"/>
      <point x="236" y="-11" type="curve" smooth="yes"/>
      <point x="241" y="-12"/>
      <point x="261" y="-13"/>
      <point x="267" y="-11" type="curve"/>
      <point x="278" y="-9"/>
      <point x="280" y="-4"/>
      <point x="283" y="4" type="curve"/>
      <point x="316" y="79"/>
      <point x="347" y="161"/>
      <point x="383" y="235" type="curve" smooth="yes"/>
      <point x="386" y="242"/>
      <point x="389" y="240"/>
      <point x="393" y="232" type="curve"/>
      <point x="488" y="6" type="line" smooth="yes"/>
      <point x="493" y="-5"/>
      <point x="499" y="-7"/>
      <point x="510" y="-8" type="curve"/>
      <point x="518" y="-10"/>
      <point x="529" y="-10"/>
      <point x="535" y="-9" type="curve"/>
      <point x="544" y="-8"/>
      <point x="550" y="-8"/>
      <point x="553" y="1" type="curve"/>
      <point x="595" y="104"/>
      <point x="638" y="208"/>
      <point x="682" y="311" type="curve" smooth="yes"/>
      <point x="690" y="330"/>
      <point x="697" y="346"/>
      <point x="701" y="352" type="curve"/>
      <point x="711" y="365"/>
      <point x="730" y="366"/>
      <point x="744" y="367" type="curve" smooth="yes"/>
      <point x="762" y="369"/>
      <point x="767" y="421"/>
      <point x="737" y="417" type="curve"/>
      <point x="679" y="416"/>
      <point x="610" y="416"/>
      <point x="568" y="417" type="curve" smooth="yes"/>
      <point x="546" y="417"/>
      <point x="552" y="371"/>
      <point x="564" y="367" type="curve"/>
      <point x="571" y="367"/>
      <point x="579" y="367"/>
      <point x="587" y="367" type="curve" smooth="yes"/>
      <point x="610" y="366"/>
      <point x="631" y="364"/>
      <point x="625" y="334" type="curve" smooth="yes"/>
      <point x="623" y="322"/>
      <point x="603" y="272"/>
      <point x="582" y="223" type="curve" smooth="yes"/>
      <point x="566" y="184"/>
      <point x="552" y="151"/>
    </contour>
  </outline>
</glyph>
<glyph name="x" format="2">
  <advance width="536"/>
  <unicode hex="0078"/>
  <outline>
    <contour>
      <point x="503" y="-2" type="curve" smooth="yes"/>
      <point x="524" y="-3"/>
      <point x="523" y="8"/>
      <point x="523" y="19" type="curve" smooth="yes"/>
      <point x="523" y="35"/>
      <point x="521" y="45"/>
      <point x="508" y="47" type="curve"/>
      <point x="467" y="49"/>
      <point x="451" y="57"/>
      <point x="425" y="89" type="curve" smooth="yes"/>
      <point x="390" y="134" type="line" smooth="yes"/>
      <point x="378" y="148"/>
      <point x="362" y="171"/>
      <point x="316" y="228" type="curve"/>
      <point x="315" y="229"/>
      <point x="315" y="231"/>
      <point x="317" y="234" type="curve"/>
      <point x="354" y="275" type="line"/>
      <point x="392" y="315" type="line" smooth="yes"/>
      <point x="428" y="355"/>
      <point x="444" y="371"/>
      <point x="500" y="369" type="curve" smooth="yes"/>
      <point x="524" y="369"/>
      <point x="524" y="394"/>
      <point x="518" y="407" type="curve"/>
      <point x="513" y="416"/>
      <point x="505" y="418"/>
      <point x="496" y="417" type="curve"/>
      <point x="456" y="415"/>
      <point x="386" y="416"/>
      <point x="312" y="417" type="curve"/>
      <point x="307" y="418"/>
      <point x="295" y="419"/>
      <point x="292" y="403" type="curve"/>
      <point x="292" y="398"/>
      <point x="291" y="388"/>
      <point x="294" y="380" type="curve"/>
      <point x="300" y="367"/>
      <point x="302" y="371"/>
      <point x="311" y="369" type="curve"/>
      <point x="343" y="368"/>
      <point x="345" y="364"/>
      <point x="345" y="357" type="curve" smooth="yes"/>
      <point x="345" y="336"/>
      <point x="303" y="293"/>
      <point x="288" y="278" type="curve" smooth="yes"/>
      <point x="284" y="274"/>
      <point x="279" y="267"/>
      <point x="276" y="271" type="curve"/>
      <point x="266" y="281"/>
      <point x="223" y="335"/>
      <point x="209" y="359" type="curve" smooth="yes"/>
      <point x="202" y="371"/>
      <point x="217" y="370"/>
      <point x="229" y="370" type="curve" smooth="yes"/>
      <point x="238" y="370" type="line" smooth="yes"/>
      <point x="252" y="370"/>
      <point x="263" y="418"/>
      <point x="232" y="417" type="curve" smooth="yes"/>
      <point x="228" y="417" type="line" smooth="yes"/>
      <point x="182" y="416"/>
      <point x="91" y="414"/>
      <point x="39" y="417" type="curve" smooth="yes"/>
      <point x="14" y="418"/>
      <point x="19" y="373"/>
      <point x="32" y="369" type="curve"/>
      <point x="84" y="367"/>
      <point x="92" y="361"/>
      <point x="138" y="301" type="curve" smooth="yes"/>
      <point x="208" y="209" type="line" smooth="yes"/>
      <point x="212" y="204"/>
      <point x="212" y="200"/>
      <point x="209" y="196" type="curve"/>
      <point x="134" y="112" type="line" smooth="yes"/>
      <point x="82" y="53"/>
      <point x="70" y="47"/>
      <point x="27" y="46" type="curve" smooth="yes"/>
      <point x="14" y="46"/>
      <point x="9" y="33"/>
      <point x="9" y="21" type="curve"/>
      <point x="11" y="7"/>
      <point x="11" y="-2"/>
      <point x="28" y="-2" type="curve" smooth="yes"/>
      <point x="75" y="-1"/>
      <point x="163" y="0"/>
      <point x="214" y="-3" type="curve" smooth="yes"/>
      <point x="226" y="-4"/>
      <point x="232" y="4"/>
      <point x="232" y="20" type="curve" smooth="yes"/>
      <point x="232" y="30"/>
      <point x="226" y="44"/>
      <point x="215" y="45" type="curve"/>
      <point x="207" y="45" type="line"/>
      <point x="170" y="48"/>
      <point x="166" y="53"/>
      <point x="166" y="62" type="curve" smooth="yes"/>
      <point x="166" y="75"/>
      <point x="235" y="146"/>
      <point x="247" y="160" type="curve"/>
      <point x="250" y="163"/>
      <point x="253" y="158"/>
      <point x="256" y="154" type="curve" smooth="yes"/>
      <point x="310" y="82" type="line"/>
      <point x="314" y="76"/>
      <point x="333" y="57"/>
      <point x="333" y="50" type="curve" smooth="yes"/>
      <point x="333" y="44"/>
      <point x="328" y="45"/>
      <point x="309" y="45" type="curve" smooth="yes"/>
      <point x="301" y="45" type="line" smooth="yes"/>
      <point x="288" y="45"/>
      <point x="283" y="36"/>
      <point x="283" y="21" type="curve" smooth="yes"/>
      <point x="283" y="10"/>
      <point x="285" y="-3"/>
      <point x="303" y="-3" type="curve" smooth="yes"/>
      <point x="360" y="-1"/>
      <point x="453" y="-1"/>
    </contour>
  </outline>
</glyph>
<glyph name="z" format="2">
  <advance width="410"/>
  <unicode hex="007A"/>
  <outline>
    <contour>
      <point x="359" y="12" type="curve"/>
      <point x="398" y="116" type="line"/>
      <point x="400" y="120"/>
      <point x="399" y="127"/>
      <point x="395" y="131" type="curve"/>
      <point x="388" y="137"/>
      <point x="373" y="138"/>
      <point x="362" y="136" type="curve" smooth="yes"/>
      <point x="352" y="134"/>
      <point x="357" y="133"/>
      <point x="351" y="125" type="curve"/>
      <point x="328" y="72"/>
      <point x="329" y="66"/>
      <point x="302" y="65" type="curve" smooth="yes"/>
      <point x="244" y="64"/>
      <point x="204" y="64"/>
      <point x="168" y="65" type="curve" smooth="yes"/>
      <point x="160" y="65"/>
      <point x="156" y="65"/>
      <point x="161" y="72" type="curve" smooth="yes"/>
      <point x="200" y="127"/>
      <point x="303" y="274"/>
      <point x="383" y="376" type="curve" smooth="yes"/>
      <point x="390" y="385"/>
      <point x="389" y="397"/>
      <point x="386" y="409" type="curve"/>
      <point x="374" y="422"/>
      <point x="362" y="418"/>
      <point x="347" y="418" type="curve" smooth="yes"/>
      <point x="291" y="419"/>
      <point x="192" y="417"/>
      <point x="135" y="416" type="curve" smooth="yes"/>
      <point x="107" y="416"/>
      <point x="104" y="417"/>
      <point x="104" y="431" type="curve" smooth="yes"/>
      <point x="104" y="445"/>
      <point x="78" y="444"/>
      <point x="64" y="439" type="curve"/>
      <point x="55" y="437"/>
      <point x="56" y="436"/>
      <point x="54" y="426" type="curve" smooth="yes"/>
      <point x="46" y="392"/>
      <point x="34" y="325"/>
      <point x="27" y="282" type="curve"/>
      <point x="26" y="280"/>
      <point x="26" y="278"/>
      <point x="26" y="277" type="curve"/>
      <point x="23" y="258"/>
      <point x="50" y="259"/>
      <point x="65" y="259" type="curve"/>
      <point x="70" y="261"/>
      <point x="73" y="263"/>
      <point x="75" y="267" type="curve"/>
      <point x="95" y="345"/>
      <point x="101" y="349"/>
      <point x="121" y="349" type="curve" smooth="yes"/>
      <point x="165" y="349"/>
      <point x="202" y="352"/>
      <point x="245" y="352" type="curve" smooth="yes"/>
      <point x="249" y="352"/>
      <point x="249" y="349"/>
      <point x="245" y="344" type="curve" smooth="yes"/>
      <point x="20" y="43" type="line"/>
      <point x="18" y="41"/>
      <point x="17" y="40"/>
      <point x="15" y="38" type="curve" smooth="yes"/>
      <point x="4" y="26"/>
      <point x="12" y="-2"/>
      <point x="21" y="-2" type="curve" smooth="yes"/>
      <point x="105" y="-2"/>
      <point x="272" y="-1"/>
      <point x="338" y="-2" type="curve"/>
      <point x="345" y="0"/>
      <point x="355" y="4"/>
    </contour>
  </outline>
</glyph>
<glyph name="braceleft" format="2">
  <advance width="501"/>
  <unicode hex="007B"/>
  <outline>
    <contour>
      <point x="404" y="-239" type="curve"/>
      <point x="408" y="-229"/>
      <point x="408" y="-223"/>
      <point x="405" y="-213" type="curve" smooth="yes"/>
      <point x="403" y="-207"/>
      <point x="394" y="-201"/>
      <point x="388" y="-200" type="curve"/>
      <point x="319" y="-180"/>
      <point x="290" y="-144"/>
      <point x="290" y="-94" type="curve" smooth="yes"/>
      <point x="290" y="-76"/>
      <point x="293" y="-51"/>
      <point x="299" y="-24" type="curve" smooth="yes"/>
      <point x="305" y="9"/>
      <point x="309" y="45"/>
      <point x="309" y="63" type="curve" smooth="yes"/>
      <point x="309" y="134"/>
      <point x="268" y="191"/>
      <point x="197" y="229" type="curve" smooth="yes"/>
      <point x="195" y="230"/>
      <point x="194" y="231"/>
      <point x="196" y="231" type="curve"/>
      <point x="218" y="242"/>
      <point x="233" y="253"/>
      <point x="252" y="272" type="curve" smooth="yes"/>
      <point x="289" y="308"/>
      <point x="309" y="350"/>
      <point x="309" y="398" type="curve" smooth="yes"/>
      <point x="309" y="420"/>
      <point x="305" y="450"/>
      <point x="298" y="486" type="curve" smooth="yes"/>
      <point x="292" y="515"/>
      <point x="289" y="538"/>
      <point x="289" y="557" type="curve" smooth="yes"/>
      <point x="289" y="608"/>
      <point x="321" y="646"/>
      <point x="386" y="660" type="curve"/>
      <point x="392" y="662"/>
      <point x="402" y="659"/>
      <point x="404" y="670" type="curve"/>
      <point x="404" y="681"/>
      <point x="405" y="687"/>
      <point x="402" y="698" type="curve" smooth="yes"/>
      <point x="399" y="709"/>
      <point x="390" y="711"/>
      <point x="384" y="711" type="curve"/>
      <point x="269" y="694"/>
      <point x="188" y="606"/>
      <point x="188" y="500" type="curve" smooth="yes"/>
      <point x="188" y="477"/>
      <point x="191" y="448"/>
      <point x="199" y="416" type="curve" smooth="yes"/>
      <point x="206" y="383"/>
      <point x="210" y="360"/>
      <point x="210" y="345" type="curve" smooth="yes"/>
      <point x="210" y="306"/>
      <point x="177" y="269"/>
      <point x="114" y="256" type="curve"/>
      <point x="108" y="254"/>
      <point x="101" y="248"/>
      <point x="100" y="239" type="curve"/>
      <point x="98" y="233"/>
      <point x="98" y="228"/>
      <point x="100" y="222" type="curve"/>
      <point x="101" y="216"/>
      <point x="104" y="208"/>
      <point x="112" y="205" type="curve"/>
      <point x="180" y="191"/>
      <point x="211" y="156"/>
      <point x="211" y="114" type="curve" smooth="yes"/>
      <point x="211" y="101"/>
      <point x="206" y="72"/>
      <point x="200" y="41" type="curve" smooth="yes"/>
      <point x="193" y="11"/>
      <point x="189" y="-16"/>
      <point x="189" y="-39" type="curve" smooth="yes"/>
      <point x="189" y="-145"/>
      <point x="268" y="-230"/>
      <point x="383" y="-249" type="curve" smooth="yes"/>
      <point x="390" y="-250"/>
      <point x="397" y="-254"/>
    </contour>
  </outline>
</glyph>
<glyph name="bar" format="2">
  <advance width="534"/>
  <unicode hex="007C"/>
  <outline>
    <contour>
      <point x="305" y="10" type="curve" smooth="yes"/>
      <point x="308" y="146"/>
      <point x="306" y="305"/>
      <point x="306" y="422" type="curve" smooth="yes"/>
      <point x="306" y="830" type="line" smooth="yes"/>
      <point x="306" y="848"/>
      <point x="312" y="858"/>
      <point x="284" y="858" type="curve"/>
      <point x="276" y="856"/>
      <point x="264" y="858"/>
      <point x="256" y="860" type="curve"/>
      <point x="232" y="860"/>
      <point x="231" y="847"/>
      <point x="231" y="825" type="curve" smooth="yes"/>
      <point x="231" y="15" type="line" smooth="yes"/>
      <point x="231" y="-4"/>
      <point x="233" y="-22"/>
      <point x="256" y="-22" type="curve"/>
      <point x="263" y="-21"/>
      <point x="279" y="-21"/>
      <point x="285" y="-22" type="curve"/>
      <point x="307" y="-22"/>
      <point x="305" y="-9"/>
    </contour>
  </outline>
</glyph>
<glyph name="braceright" format="2">
  <advance width="501"/>
  <unicode hex="007D"/>
  <outline>
    <contour>
      <point x="384" y="204" type="curve" smooth="yes"/>
      <point x="403" y="208"/>
      <point x="404" y="221"/>
      <point x="404" y="233" type="curve" smooth="yes"/>
      <point x="404" y="246"/>
      <point x="393" y="256"/>
      <point x="383" y="259" type="curve"/>
      <point x="322" y="274"/>
      <point x="293" y="308"/>
      <point x="293" y="348" type="curve" smooth="yes"/>
      <point x="293" y="400"/>
      <point x="316" y="449"/>
      <point x="316" y="501" type="curve" smooth="yes"/>
      <point x="316" y="607"/>
      <point x="236" y="693"/>
      <point x="121" y="711" type="curve" smooth="yes"/>
      <point x="108" y="713"/>
      <point x="101" y="698"/>
      <point x="101" y="688" type="curve"/>
      <point x="99" y="673"/>
      <point x="103" y="669"/>
      <point x="118" y="661" type="curve"/>
      <point x="128" y="655"/>
      <point x="143" y="650"/>
      <point x="157" y="643" type="curve" smooth="yes"/>
      <point x="186" y="629"/>
      <point x="214" y="607"/>
      <point x="214" y="555" type="curve" smooth="yes"/>
      <point x="214" y="502"/>
      <point x="194" y="449"/>
      <point x="194" y="398" type="curve" smooth="yes"/>
      <point x="194" y="329"/>
      <point x="236" y="271"/>
      <point x="307" y="233" type="curve"/>
      <point x="308" y="232"/>
      <point x="310" y="231"/>
      <point x="308" y="231" type="curve"/>
      <point x="286" y="220"/>
      <point x="271" y="209"/>
      <point x="251" y="189" type="curve" smooth="yes"/>
      <point x="215" y="153"/>
      <point x="194" y="110"/>
      <point x="194" y="63" type="curve" smooth="yes"/>
      <point x="194" y="9"/>
      <point x="215" y="-42"/>
      <point x="215" y="-96" type="curve" smooth="yes"/>
      <point x="215" y="-146"/>
      <point x="183" y="-184"/>
      <point x="117" y="-198" type="curve" smooth="yes"/>
      <point x="107" y="-200"/>
      <point x="104" y="-208"/>
      <point x="102" y="-215" type="curve"/>
      <point x="102" y="-219"/>
      <point x="101" y="-223"/>
      <point x="101" y="-226" type="curve"/>
      <point x="97" y="-248"/>
      <point x="115" y="-250"/>
      <point x="132" y="-247" type="curve" smooth="yes"/>
      <point x="240" y="-226"/>
      <point x="317" y="-142"/>
      <point x="317" y="-38" type="curve" smooth="yes"/>
      <point x="317" y="15"/>
      <point x="294" y="64"/>
      <point x="294" y="117" type="curve" smooth="yes"/>
      <point x="294" y="155"/>
      <point x="324" y="191"/>
    </contour>
  </outline>
</glyph>
<glyph name="asciitilde" format="2">
  <advance width="567"/>
  <unicode hex="007E"/>
  <outline>
    <contour>
      <point x="404" y="241" type="curve" smooth="yes"/>
      <point x="486" y="241"/>
      <point x="546" y="309"/>
      <point x="552" y="397" type="curve"/>
      <point x="554" y="410"/>
      <point x="540" y="417"/>
      <point x="530" y="418" type="curve" smooth="yes"/>
      <point x="519" y="419" type="line" smooth="yes"/>
      <point x="480" y="422"/>
      <point x="507" y="333"/>
      <point x="422" y="333" type="curve" smooth="yes"/>
      <point x="383" y="333"/>
      <point x="342" y="356"/>
      <point x="309" y="373" type="curve" smooth="yes"/>
      <point x="268" y="394"/>
      <point x="222" y="415"/>
      <point x="170" y="415" type="curve" smooth="yes"/>
      <point x="87" y="415"/>
      <point x="24" y="349"/>
      <point x="19" y="262" type="curve" smooth="yes"/>
      <point x="18" y="238"/>
      <point x="68" y="225"/>
      <point x="72" y="256" type="curve" smooth="yes"/>
      <point x="78" y="301"/>
      <point x="108" y="326"/>
      <point x="145" y="326" type="curve" smooth="yes"/>
      <point x="180" y="326"/>
      <point x="226" y="299"/>
      <point x="258" y="284" type="curve" smooth="yes"/>
      <point x="301" y="263"/>
      <point x="351" y="241"/>
    </contour>
  </outline>
</glyph>
<glyph name="exclamdown" format="2">
  <advance width="272"/>
  <unicode hex="00A1"/>
  <outline>
    <contour>
      <point x="137" y="313" type="curve" smooth="yes"/>
      <point x="171" y="313"/>
      <point x="195" y="335"/>
      <point x="195" y="370" type="curve" smooth="yes"/>
      <point x="195" y="405"/>
      <point x="171" y="429"/>
      <point x="137" y="429" type="curve" smooth="yes"/>
      <point x="103" y="429"/>
      <point x="77" y="404"/>
      <point x="77" y="370" type="curve" smooth="yes"/>
      <point x="77" y="335"/>
      <point x="103" y="313"/>
    </contour>
    <contour>
      <point x="153" y="-249" type="line" smooth="yes"/>
      <point x="194" y="-249"/>
      <point x="198" y="-229"/>
      <point x="195" y="-199" type="curve" smooth="yes"/>
      <point x="159" y="253" type="line"/>
      <point x="152" y="269"/>
      <point x="121" y="269"/>
      <point x="114" y="253" type="curve"/>
      <point x="80" y="-198" type="line" smooth="yes"/>
      <point x="78" y="-228"/>
      <point x="81" y="-249"/>
      <point x="124" y="-249" type="curve" smooth="yes"/>
    </contour>
  </outline>
</glyph>
<glyph name="cent" format="2">
  <advance width="447"/>
  <unicode hex="00A2"/>
  <outline>
    <contour>
      <point x="370" y="316" type="curve" smooth="yes"/>
      <point x="398" y="316"/>
      <point x="418" y="336"/>
      <point x="418" y="362" type="curve" smooth="yes"/>
      <point x="418" y="392"/>
      <point x="393" y="412"/>
      <point x="363" y="424" type="curve"/>
      <point x="362" y="425"/>
      <point x="361" y="426"/>
      <point x="362" y="428" type="curve"/>
      <point x="405" y="536" type="line" smooth="yes"/>
      <point x="409" y="546"/>
      <point x="409" y="551"/>
      <point x="404" y="556" type="curve" smooth="yes"/>
      <point x="401" y="559"/>
      <point x="383" y="567"/>
      <point x="376" y="567" type="curve"/>
      <point x="364" y="568"/>
      <point x="362" y="567"/>
      <point x="355" y="553" type="curve"/>
      <point x="313" y="443" type="line" smooth="yes"/>
      <point x="311" y="437"/>
      <point x="308" y="436"/>
      <point x="304" y="436" type="curve" smooth="yes"/>
      <point x="300" y="436"/>
      <point x="295" y="437"/>
      <point x="289" y="437" type="curve" smooth="yes"/>
      <point x="153" y="437"/>
      <point x="43" y="327"/>
      <point x="43" y="190" type="curve" smooth="yes"/>
      <point x="43" y="113"/>
      <point x="79" y="41"/>
      <point x="136" y="4" type="curve" smooth="yes"/>
      <point x="139" y="2"/>
      <point x="139" y="0"/>
      <point x="137" y="-5" type="curve" smooth="yes"/>
      <point x="79" y="-151" type="line" smooth="yes"/>
      <point x="75" y="-161"/>
      <point x="72" y="-175"/>
      <point x="87" y="-178" type="curve"/>
      <point x="95" y="-179"/>
      <point x="101" y="-183"/>
      <point x="106" y="-184" type="curve"/>
      <point x="117" y="-187"/>
      <point x="118" y="-186"/>
      <point x="129" y="-163" type="curve" smooth="yes"/>
      <point x="150" y="-117"/>
      <point x="164" y="-75"/>
      <point x="182" y="-27" type="curve"/>
      <point x="183" y="-25"/>
      <point x="186" y="-17"/>
      <point x="188" y="-17" type="curve"/>
      <point x="201" y="-20"/>
      <point x="211" y="-22"/>
      <point x="231" y="-22" type="curve" smooth="yes"/>
      <point x="304" y="-22"/>
      <point x="365" y="13"/>
      <point x="411" y="81" type="curve" smooth="yes"/>
      <point x="419" y="92"/>
      <point x="422" y="108"/>
      <point x="410" y="115" type="curve" smooth="yes"/>
      <point x="397" y="123"/>
      <point x="388" y="131"/>
      <point x="374" y="115" type="curve" smooth="yes"/>
      <point x="341" y="75"/>
      <point x="314" y="52"/>
      <point x="267" y="52" type="curve" smooth="yes"/>
      <point x="259" y="52"/>
      <point x="213" y="51"/>
      <point x="219" y="67" type="curve" smooth="yes"/>
      <point x="324" y="329" type="line"/>
      <point x="325" y="332"/>
      <point x="325" y="336"/>
      <point x="327" y="334" type="curve"/>
      <point x="341" y="322"/>
      <point x="353" y="316"/>
    </contour>
    <contour>
      <point x="256" y="378" type="curve" smooth="yes"/>
      <point x="265" y="378"/>
      <point x="273" y="377"/>
      <point x="280" y="374" type="curve"/>
      <point x="282" y="373"/>
      <point x="284" y="370"/>
      <point x="283" y="364" type="curve"/>
      <point x="179" y="103" type="line"/>
      <point x="178" y="98"/>
      <point x="176" y="98"/>
      <point x="173" y="104" type="curve"/>
      <point x="152" y="133"/>
      <point x="141" y="171"/>
      <point x="141" y="212" type="curve" smooth="yes"/>
      <point x="141" y="308"/>
      <point x="199" y="378"/>
    </contour>
  </outline>
</glyph>
<glyph name="sterling" format="2">
  <advance width="796"/>
  <unicode hex="00A3"/>
  <outline>
    <contour>
      <point x="236" y="-34" type="curve"/>
      <point x="254" y="-8"/>
      <point x="272" y="20"/>
      <point x="290" y="55" type="curve"/>
      <point x="443" y="53" type="line" smooth="yes"/>
      <point x="469" y="53"/>
      <point x="474" y="66"/>
      <point x="479" y="86" type="curve" smooth="yes"/>
      <point x="482" y="100"/>
      <point x="480" y="113"/>
      <point x="460" y="113" type="curve" smooth="yes"/>
      <point x="412" y="113"/>
      <point x="367" y="112"/>
      <point x="319" y="112" type="curve" smooth="yes"/>
      <point x="317" y="112"/>
      <point x="317" y="110"/>
      <point x="317" y="111" type="curve"/>
      <point x="320" y="116" type="line"/>
      <point x="368" y="220"/>
      <point x="411" y="327"/>
      <point x="454" y="434" type="curve" smooth="yes"/>
      <point x="488" y="518"/>
      <point x="509" y="555"/>
      <point x="533" y="588" type="curve" smooth="yes"/>
      <point x="555" y="616"/>
      <point x="582" y="631"/>
      <point x="604" y="631" type="curve" smooth="yes"/>
      <point x="633" y="631"/>
      <point x="650" y="618"/>
      <point x="667" y="601" type="curve"/>
      <point x="671" y="596"/>
      <point x="675" y="591"/>
      <point x="681" y="587" type="curve"/>
      <point x="693" y="575"/>
      <point x="708" y="562"/>
      <point x="731" y="562" type="curve" smooth="yes"/>
      <point x="758" y="562"/>
      <point x="781" y="582"/>
      <point x="781" y="609" type="curve" smooth="yes"/>
      <point x="781" y="665"/>
      <point x="709" y="699"/>
      <point x="643" y="699" type="curve" smooth="yes"/>
      <point x="517" y="699"/>
      <point x="428" y="591"/>
      <point x="372" y="496" type="curve" smooth="yes"/>
      <point x="301" y="376"/>
      <point x="261" y="242"/>
      <point x="212" y="112" type="curve"/>
      <point x="80" y="112" type="line" smooth="yes"/>
      <point x="63" y="112"/>
      <point x="54" y="106"/>
      <point x="51" y="90" type="curve"/>
      <point x="48" y="80"/>
      <point x="44" y="63"/>
      <point x="57" y="57" type="curve"/>
      <point x="61" y="56"/>
      <point x="65" y="55"/>
      <point x="69" y="55" type="curve" smooth="yes"/>
      <point x="72" y="55"/>
      <point x="75" y="55"/>
      <point x="77" y="55" type="curve" smooth="yes"/>
      <point x="191" y="55" type="line" smooth="yes"/>
      <point x="192" y="55"/>
      <point x="191" y="55"/>
      <point x="190" y="54" type="curve"/>
      <point x="189" y="49"/>
      <point x="187" y="45"/>
      <point x="185" y="40" type="curve" smooth="yes"/>
      <point x="165" y="-12"/>
      <point x="156" y="-30"/>
      <point x="134" y="-70" type="curve"/>
      <point x="73" y="-96"/>
      <point x="10" y="-150"/>
      <point x="10" y="-193" type="curve" smooth="yes"/>
      <point x="10" y="-218"/>
      <point x="32" y="-234"/>
      <point x="54" y="-234" type="curve" smooth="yes"/>
      <point x="98" y="-234"/>
      <point x="148" y="-179"/>
      <point x="183" y="-110" type="curve"/>
      <point x="214" y="-96"/>
      <point x="231" y="-91"/>
      <point x="253" y="-91" type="curve" smooth="yes"/>
      <point x="317" y="-91"/>
      <point x="385" y="-169"/>
      <point x="438" y="-203" type="curve" smooth="yes"/>
      <point x="470" y="-224"/>
      <point x="511" y="-235"/>
      <point x="548" y="-235" type="curve" smooth="yes"/>
      <point x="653" y="-235"/>
      <point x="755" y="-147"/>
      <point x="755" y="-49" type="curve" smooth="yes"/>
      <point x="755" y="-7"/>
      <point x="733" y="35"/>
      <point x="693" y="35" type="curve" smooth="yes"/>
      <point x="664" y="35"/>
      <point x="642" y="13"/>
      <point x="642" y="-16" type="curve" smooth="yes"/>
      <point x="642" y="-46"/>
      <point x="670" y="-67"/>
      <point x="670" y="-94" type="curve" smooth="yes"/>
      <point x="670" y="-124"/>
      <point x="639" y="-154"/>
      <point x="595" y="-154" type="curve" smooth="yes"/>
      <point x="573" y="-154"/>
      <point x="553" y="-147"/>
      <point x="532" y="-135" type="curve" smooth="yes"/>
      <point x="510" y="-122"/>
      <point x="489" y="-106"/>
      <point x="468" y="-91" type="curve" smooth="yes"/>
      <point x="424" y="-58"/>
      <point x="373" y="-26"/>
      <point x="303" y="-26" type="curve" smooth="yes"/>
      <point x="280" y="-26"/>
      <point x="258" y="-28"/>
    </contour>
  </outline>
</glyph>
<glyph name="yen" format="2">
  <advance width="523"/>
  <unicode hex="00A5"/>
  <outline>
    <contour>
      <point x="246" y="661" type="line"/>
      <point x="247" y="670"/>
      <point x="244" y="679"/>
      <point x="245" y="687" type="curve"/>
      <point x="245" y="697"/>
      <point x="239" y="706"/>
      <point x="224" y="705" type="curve" smooth="yes"/>
      <point x="169" y="702"/>
      <point x="65" y="702"/>
      <point x="13" y="704" type="curve" smooth="yes"/>
      <point x="6" y="704"/>
      <point x="-9" y="701"/>
      <point x="-7" y="686" type="curve"/>
      <point x="-8" y="680"/>
      <point x="-9" y="672"/>
      <point x="-6" y="666" type="curve"/>
      <point x="-1" y="638"/>
      <point x="27" y="660"/>
      <point x="51" y="633" type="curve"/>
      <point x="55" y="629"/>
      <point x="71" y="606"/>
      <point x="82" y="584" type="curve" smooth="yes"/>
      <point x="84" y="580"/>
      <point x="100" y="547"/>
      <point x="92" y="547" type="curve" smooth="yes"/>
      <point x="22" y="547" type="line" smooth="yes"/>
      <point x="8" y="547"/>
      <point x="4" y="542"/>
      <point x="4" y="524" type="curve" smooth="yes"/>
      <point x="4" y="501" type="line" smooth="yes"/>
      <point x="4" y="483"/>
      <point x="7" y="478"/>
      <point x="19" y="478" type="curve" smooth="yes"/>
      <point x="121" y="478" type="line" smooth="yes"/>
      <point x="124" y="478"/>
      <point x="125" y="476"/>
      <point x="127" y="470" type="curve"/>
      <point x="153" y="408" type="line"/>
      <point x="152" y="408"/>
      <point x="134" y="408"/>
      <point x="132" y="408" type="curve" smooth="yes"/>
      <point x="91" y="407"/>
      <point x="66" y="409"/>
      <point x="24" y="410" type="curve" smooth="yes"/>
      <point x="7" y="410"/>
      <point x="4" y="407"/>
      <point x="4" y="389" type="curve" smooth="yes"/>
      <point x="4" y="366" type="line" smooth="yes"/>
      <point x="4" y="344"/>
      <point x="11" y="340"/>
      <point x="22" y="340" type="curve" smooth="yes"/>
      <point x="173" y="340" type="line" smooth="yes"/>
      <point x="178" y="340"/>
      <point x="181" y="342"/>
      <point x="184" y="336" type="curve" smooth="yes"/>
      <point x="205" y="291" type="line"/>
      <point x="205" y="133" type="line" smooth="yes"/>
      <point x="205" y="53"/>
      <point x="198" y="52"/>
      <point x="150" y="52" type="curve" smooth="yes"/>
      <point x="142" y="52" type="line" smooth="yes"/>
      <point x="117" y="52"/>
      <point x="121" y="32"/>
      <point x="119" y="17" type="curve"/>
      <point x="118" y="2"/>
      <point x="130" y="-5"/>
      <point x="141" y="-4" type="curve" smooth="yes"/>
      <point x="192" y="-1"/>
      <point x="307" y="0"/>
      <point x="379" y="-4" type="curve" smooth="yes"/>
      <point x="394" y="-5"/>
      <point x="406" y="-5"/>
      <point x="406" y="16" type="curve" smooth="yes"/>
      <point x="406" y="30" type="line" smooth="yes"/>
      <point x="406" y="44"/>
      <point x="395" y="52"/>
      <point x="381" y="52" type="curve" smooth="yes"/>
      <point x="370" y="52" type="line" smooth="yes"/>
      <point x="330" y="52"/>
      <point x="320" y="53"/>
      <point x="320" y="133" type="curve" smooth="yes"/>
      <point x="320" y="301" type="line"/>
      <point x="334" y="331" type="line"/>
      <point x="336" y="337"/>
      <point x="338" y="340"/>
      <point x="357" y="340" type="curve" smooth="yes"/>
      <point x="502" y="339" type="line" smooth="yes"/>
      <point x="517" y="339"/>
      <point x="523" y="345"/>
      <point x="523" y="363" type="curve" smooth="yes"/>
      <point x="523" y="387" type="line" smooth="yes"/>
      <point x="523" y="403"/>
      <point x="520" y="407"/>
      <point x="510" y="410" type="curve"/>
      <point x="375" y="408" type="line" smooth="yes"/>
      <point x="372" y="408"/>
      <point x="370" y="412"/>
      <point x="372" y="414" type="curve"/>
      <point x="399" y="474" type="line" smooth="yes"/>
      <point x="400" y="476"/>
      <point x="401" y="478"/>
      <point x="406" y="478" type="curve" smooth="yes"/>
      <point x="507" y="478" type="line" smooth="yes"/>
      <point x="524" y="478"/>
      <point x="523" y="488"/>
      <point x="523" y="503" type="curve" smooth="yes"/>
      <point x="523" y="523" type="line" smooth="yes"/>
      <point x="523" y="533"/>
      <point x="525" y="547"/>
      <point x="507" y="547" type="curve" smooth="yes"/>
      <point x="433" y="547" type="line" smooth="yes"/>
      <point x="431" y="547"/>
      <point x="430" y="546"/>
      <point x="430" y="547" type="curve"/>
      <point x="432" y="556"/>
      <point x="441" y="575"/>
      <point x="445" y="583" type="curve"/>
      <point x="471" y="643"/>
      <point x="485" y="649"/>
      <point x="514" y="649" type="curve" smooth="yes"/>
      <point x="527" y="649"/>
      <point x="533" y="656"/>
      <point x="533" y="669" type="curve" smooth="yes"/>
      <point x="533" y="687" type="line" smooth="yes"/>
      <point x="533" y="695"/>
      <point x="525" y="703"/>
      <point x="512" y="702" type="curve" smooth="yes"/>
      <point x="451" y="697"/>
      <point x="406" y="701"/>
      <point x="345" y="701" type="curve" smooth="yes"/>
      <point x="332" y="701"/>
      <point x="328" y="692"/>
      <point x="328" y="682" type="curve" smooth="yes"/>
      <point x="328" y="666" type="line" smooth="yes"/>
      <point x="328" y="649"/>
      <point x="345" y="651"/>
      <point x="357" y="649" type="curve"/>
      <point x="380" y="647"/>
      <point x="384" y="643"/>
      <point x="384" y="635" type="curve" smooth="yes"/>
      <point x="384" y="620"/>
      <point x="360" y="569"/>
      <point x="353" y="552" type="curve"/>
      <point x="352" y="549"/>
      <point x="348" y="547"/>
      <point x="344" y="547" type="curve" smooth="yes"/>
      <point x="234" y="547" type="line" smooth="yes"/>
      <point x="228" y="547"/>
      <point x="219" y="546"/>
      <point x="218" y="550" type="curve"/>
      <point x="192" y="612" type="line" smooth="yes"/>
      <point x="186" y="628"/>
      <point x="184" y="634"/>
      <point x="184" y="635" type="curve" smooth="yes"/>
      <point x="184" y="651"/>
      <point x="224" y="649"/>
      <point x="232" y="649" type="curve"/>
      <point x="239" y="651"/>
      <point x="245" y="652"/>
      <point x="246" y="662" type="curve"/>
    </contour>
    <contour>
      <point x="282" y="393" type="curve"/>
      <point x="250" y="475" type="line"/>
      <point x="250" y="476"/>
      <point x="252" y="478"/>
      <point x="253" y="478" type="curve" smooth="yes"/>
      <point x="315" y="478" type="line" smooth="yes"/>
      <point x="316" y="478"/>
      <point x="319" y="475"/>
      <point x="319" y="474" type="curve"/>
      <point x="287" y="393" type="line"/>
      <point x="286" y="390"/>
      <point x="283" y="388"/>
    </contour>
  </outline>
</glyph>
<glyph name="brokenbar" format="2">
  <advance width="534"/>
  <unicode hex="00A6"/>
  <outline>
    <contour>
      <point x="231" y="467" type="line"/>
      <point x="306" y="467" type="line"/>
      <point x="306" y="860" type="line"/>
      <point x="231" y="860" type="line"/>
    </contour>
    <contour>
      <point x="231" y="-22" type="line"/>
      <point x="306" y="-22" type="line"/>
      <point x="306" y="370" type="line"/>
      <point x="231" y="370" type="line"/>
    </contour>
  </outline>
</glyph>
<glyph name="section" format="2">
  <advance width="491"/>
  <unicode hex="00A7"/>
  <outline>
    <contour>
      <point x="201" y="-237" type="curve" smooth="yes"/>
      <point x="333" y="-237"/>
      <point x="446" y="-115"/>
      <point x="446" y="24" type="curve" smooth="yes"/>
      <point x="446" y="52"/>
      <point x="443" y="91"/>
      <point x="435" y="122" type="curve" smooth="yes"/>
      <point x="415" y="197"/>
      <point x="384" y="251"/>
      <point x="277" y="403" type="curve" smooth="yes"/>
      <point x="252" y="438"/>
      <point x="184" y="527"/>
      <point x="184" y="568" type="curve" smooth="yes"/>
      <point x="184" y="605"/>
      <point x="218" y="636"/>
      <point x="261" y="636" type="curve" smooth="yes"/>
      <point x="286" y="636"/>
      <point x="302" y="621"/>
      <point x="319" y="602" type="curve"/>
      <point x="323" y="598"/>
      <point x="327" y="593"/>
      <point x="332" y="589" type="curve"/>
      <point x="344" y="578"/>
      <point x="359" y="563"/>
      <point x="382" y="563" type="curve" smooth="yes"/>
      <point x="410" y="563"/>
      <point x="435" y="588"/>
      <point x="435" y="616" type="curve" smooth="yes"/>
      <point x="435" y="678"/>
      <point x="323" y="699"/>
      <point x="291" y="699" type="curve" smooth="yes"/>
      <point x="157" y="699"/>
      <point x="48" y="573"/>
      <point x="48" y="426" type="curve" smooth="yes"/>
      <point x="48" y="363"/>
      <point x="68" y="298"/>
      <point x="107" y="230" type="curve" smooth="yes"/>
      <point x="152" y="150"/>
      <point x="203" y="76"/>
      <point x="256" y="2" type="curve" smooth="yes"/>
      <point x="299" y="-58"/>
      <point x="311" y="-87"/>
      <point x="311" y="-112" type="curve" smooth="yes"/>
      <point x="311" y="-142"/>
      <point x="275" y="-176"/>
      <point x="234" y="-176" type="curve" smooth="yes"/>
      <point x="214" y="-176"/>
      <point x="188" y="-165"/>
      <point x="167" y="-142" type="curve" smooth="yes"/>
      <point x="152" y="-124"/>
      <point x="138" y="-103"/>
      <point x="111" y="-103" type="curve" smooth="yes"/>
      <point x="82" y="-103"/>
      <point x="62" y="-132"/>
      <point x="62" y="-156" type="curve" smooth="yes"/>
      <point x="62" y="-207"/>
      <point x="139" y="-237"/>
    </contour>
    <contour>
      <point x="364" y="-55" type="curve"/>
      <point x="358" y="-39"/>
      <point x="349" y="-22"/>
      <point x="334" y="5" type="curve" smooth="yes"/>
      <point x="279" y="103"/>
      <point x="207" y="189"/>
      <point x="157" y="288" type="curve" smooth="yes"/>
      <point x="122" y="356"/>
      <point x="103" y="440"/>
      <point x="130" y="515" type="curve"/>
      <point x="129" y="501"/>
      <point x="181" y="418"/>
      <point x="187" y="409" type="curve" smooth="yes"/>
      <point x="224" y="350"/>
      <point x="264" y="293"/>
      <point x="302" y="234" type="curve" smooth="yes"/>
      <point x="348" y="164"/>
      <point x="375" y="101"/>
      <point x="375" y="14" type="curve" smooth="yes"/>
      <point x="375" y="-12"/>
      <point x="372" y="-34"/>
    </contour>
  </outline>
</glyph>
<glyph name="dieresis" format="2">
  <advance width="348"/>
  <unicode hex="00A8"/>
  <outline>
    <contour>
      <point x="260" y="481" type="curve" smooth="yes"/>
      <point x="298" y="481"/>
      <point x="324" y="508"/>
      <point x="324" y="541" type="curve" smooth="yes"/>
      <point x="324" y="574"/>
      <point x="298" y="601"/>
      <point x="260" y="601" type="curve" smooth="yes"/>
      <point x="223" y="601"/>
      <point x="196" y="574"/>
      <point x="196" y="541" type="curve" smooth="yes"/>
      <point x="196" y="508"/>
      <point x="223" y="481"/>
    </contour>
    <contour>
      <point x="89" y="481" type="curve" smooth="yes"/>
      <point x="126" y="481"/>
      <point x="153" y="507"/>
      <point x="153" y="541" type="curve" smooth="yes"/>
      <point x="153" y="574"/>
      <point x="126" y="601"/>
      <point x="89" y="601" type="curve" smooth="yes"/>
      <point x="52" y="601"/>
      <point x="24" y="574"/>
      <point x="24" y="541" type="curve" smooth="yes"/>
      <point x="24" y="507"/>
      <point x="52" y="481"/>
    </contour>
  </outline>
</glyph>
